/* XPM */
static char *_7ec0bcaaba340ecbd5a6b7adb1e108auE84MWSqILtO5IkP[] = {
/* columns rows colors chars-per-pixel */
"128 128 90 1 ",
"  c #0B0F14",
". c #0D1115",
"X c #0E1419",
"o c #11161C",
"O c #13181F",
"+ c #151C24",
"@ c #1A1E26",
"# c #171F28",
"$ c #181F28",
"% c #1B2027",
"& c #1D222A",
"* c #23252D",
"= c #26282F",
"- c #28292F",
"; c #222730",
": c #252A33",
"> c #2B2C34",
", c #272D38",
"< c #2C2F39",
"1 c #302F35",
"2 c #2F3036",
"3 c #2E313B",
"4 c #323136",
"5 c #33343C",
"6 c #38373B",
"7 c #37393D",
"8 c #3B3A3D",
"9 c #353641",
"0 c #383740",
"q c #373842",
"w c #3C3C45",
"e c #3E3E48",
"r c #403F45",
"t c #403F48",
"y c #3F4046",
"u c #3F4149",
"i c #434245",
"p c #44434A",
"a c #49474C",
"s c #47484C",
"d c #4A484D",
"f c #4C4B4F",
"g c #4E4C4F",
"h c #454650",
"j c #484750",
"k c #464951",
"l c #4B4B50",
"z c #4D4B50",
"x c #4D4C50",
"c c #4C4C51",
"v c #4F4F53",
"b c #4C4B54",
"n c #4B4C54",
"m c #4E4E59",
"M c #504E51",
"N c #504F54",
"B c #4D5055",
"V c #505050",
"C c #535153",
"Z c #515154",
"A c #545254",
"S c #545354",
"D c #545357",
"F c #565557",
"G c #575657",
"H c #535358",
"J c #575658",
"K c #575758",
"L c #55545B",
"P c #56545B",
"I c #585758",
"U c #55595F",
"Y c #5A5A5A",
"T c #5A585C",
"R c #5B5B5C",
"E c #5C5B5C",
"W c gray36",
"Q c gray37",
"! c #5E5D61",
"~ c #605F60",
"^ c #606060",
"/ c gray39",
"( c #616064",
") c #636264",
"_ c #666668",
"` c #686769",
"' c #6B6B6B",
"] c #6E6F70",
"[ c #727273",
"{ c #78797A",
/* pixels */
"qqeagexpppMxppdppdQ^x5w8iAAAxpFIYYapgpppaCxaappMpaddFJFYIYYAFdbripi^^FpdxMYYFMxetpaAFpppZzYQQZYYFZAQf8>wAFCZxeqpAApdfdIQZqsqweeq",
"eqeaMpdxffFspsppppMQ^x>>pFMAfaYYYxpepFAFZtaasppppafppMCREIQYlenrep8C^YdFMJQYpeaepappApwspJYFQQQFFYFi4>iNZYYMdewpfAaapdYQxe,5pqet",
"5eedCppapMApfptesfdQY^e:MQZMAYYYZeptpZCYppppsfpppxafpdFQYFQx5eJtpp:aQ^CxZQQYzwpadpspxIpdxZJYQQFIFJFi5rxZzZxddptsdZdpppYxwpeq5qae",
",5exCpxpsMdfMeppeaaJIZR4riYFFYFYMpepxZIfapppZppaadpdZxQ^YdFpzpJpAp44Q^IxFFQFzpppCxppxCAFAFQQRQYFYfi4fAHpMxdCCfeaxMdqZdJspqq35qp3",
"<3edApepffpfMfttewdJYCYa4:ICAFFAFdeAafxpsdadasppppdpJY^FgpaeFQ(86>*:xCi8iFAxdpppxppACfdAJzFxFdZYYf14(RxpsFdfxMpxfAppxfFpe5iq3q35",
"35dFdwqfFzMdafaapqdIFZM^5=dYYFFJZxMspfdspdppfsaMspfpIQQMxapqwY[dq*&qai858C^fdpwsFACAappfFdZZdpxQZ84pJYMCxxaadppFaMdFpaYdpqqq55,,",
"555adetsdMfdxfsdpwpeepZ!!=2^QYYFFxYCdCppaappppsdddxFYQQQZpdppY`x3&@wrg6-86FQfappFAYfxppdpCdpfxZY4>EQJxYFxMdxapdFMxYFxpIp553353,5",
"q55pwpepzxgdpdfafZd5wedq!p>YQYYYQFxFFpppppapppdJYYFAYQQFpppdYE^Q![&84a>=44iFxdppxdAxpeptpfpsxZQa55(EAxZzFFxCppAdpFYYFpCl,,,,3<,5",
"pepaZFqdxxCfpaMYCAp3parqE!wiFYIQYxMCYFdspappspCYYxfCQMFp5dpAQxYpd'44>w>==>4YFxsaCfpeqpfaapepfFC55p^FxxZdFFFFpaMZpeYpdMYJ,<,5<,qq",
"Fp5p5xqIdCFCdpFFpxpq5pwqFJ>58^YQIxMCFFgIaappdYxCYAFYxppppYdCCxRi47:5>i:=:58YYYFJYdxpapppdwpxFC24ppAAFxZZpCAYzsdfpaZq5q^Jwq:<3qdI",
"ps5lqwtxxfMCfgAFpCsFqdw5xHyq<IQQJFFCdsAFpapAZFZxYCFQpapeppexYddYl'Z<:85>*=:iQYMYYZdaAdxpdepgg8:N`QFClFYCpFFCxxYCxxss,eYYdq3333qd",
"tp,qqxpxZgZxfCAFAffdqpxpqJ''>d^QQFZZppfCxapddaCFYFYJaxppafpfFF^R&**<>86=*%*5gYFAQCxMCxpefg614:5!^YYMJxAIppMCCdFFCCFs,3pQp53<5pwp",
"ppw,5xdFYZZIYFMdMZxeq3dswlJ`JwgQQZdJdfaadpppZMZCxAYYppzeppepxZJ^llJ4=84:%*:58CCJYYMCxfppii5**sxRQIAxJdFdZffxMsxZMFQCppeMp3<3eypq",
"eee5qpdfplFYFpdaxeppeqpxwwdJ!:sCQxdFFdMMxsppAFACFZFeeppepppdpZzFHa'==w4=%4585r8^ZQIFMadMp::=e`JCQIFYCZFCMFFCffFCFFYxfzppiqqpMqpe",
"wep3qYCq5wMsYMptpqtwewppppexs:<sQYxlxCxFFxpfxfFIYFpqwpxeppepsIaxlI`=-5>:*34>868axYQYYddMZ::q!YQxCYIAFxFFxAFJpAAFYZYCpdsqpYq5peww",
"wpp5qFC5qqddYQFepqzpixwxxFddw83,iaaEdFFCACAxaCZFYFeweppeptfdssxCJd`=*>:*=&i418888iYQZFdCs:e^ICQFFYYFFzCYMgFAdFMFFFAffpFxJAywwwww",
"qrfqyYxq55pAxFQFxpJYZpzCYYpxsQd*d88EZCYYZeMMFMAYQdeeppwppfMddpxpIZ(**:2*@@4=:46884a`RYdx25RJCxQQIFFFZAICAxCAfAxCYYddppMMZAZqwqww",
"qepr5xee5eeZdsJxxxFYMxYpFfppd^Q53ip`YdYYYxFCCCAYZpwqpprppfppppxpf^p&::>**:i54>2885i^FYF:*AYaFFYYFYYZFYZCCYFxpYZAFIppxpafdaYqqqqq",
"qepfqeqeqdpxztAFJYAMsFlsIFpwZ'``q+paIYQfAQYFCYYYpteppfaapfaprFfppYs&=*>4>**w=>484>:aiiw:qJspYFCQZYFQZxCCYYtewZIZIZppIpsdfffpqqw5",
"qqpYpqqqserxAAAFYsedzq5axApepY'`A<p5YYQAYpCFYYFYppapfApsaadMpdpsp^w%*&:4*@@y-@2i4>:i8w>>!xetYYQYYQCYZZFAAFp5qYYYFAdxdeCdMdpx5qqq",
"q5pAxpJIdq5wEAFYQCMZsppxdFpdYM'`~d:&788idMMQQICFFZMZppefafpAdxFxM`+%*&=:@@&=5*254:1r4&peReqwQ^QYEFxYYYYFAYJwpFYYFaZsxepZCfpeq55q",
"35dMFwYFq55pZQYzpZAspwttYxdRQ^`'_e;%&;<:*:>4igFF^QYQxxffYpxxYJJY^k:&&@&%*=*@i2>:44=>>l^RFpweQQYIJxxYJYYQdAIewdIJxpxdxepAAMpp,q<<",
"qwMsCwFApwpqpCdqp^YedqxepeJYQ^^'Z524<5<<<5465>>:8rip6weZQxZxQYYQ^x3O@+%&*=%*<4>4>=*:]'`ApMppIxaFAFYYFYYYFAdqeMAxfaZxZCZFAfpp53<,",
"5qxMpexCCpxxdCxeAYCIpeseawfZZY^^*;5i<45pMaQ^xd5454:8:::4ppdJ^QQQ^[xX+o+&::::<g5854:J'`QYxapp!FFFZQQFYQYYYfxZZJMMdfxxIFMpsppzq533",
"3eefAssFdxxMCxAAQAFFapdpaqpxYYFx:Yp38iplsxJ^E(!lxe5xxq:>5=>5riagF'Z.O+@:=<:*:s5w55p`'QQMCZJYQEZeqpfZYYYYYfAssYZxdddpMfpappdaa555",
"<qwfMeeFxFYCdMZdYFFMpdZse5qCEda*pssexYZYZdZQFeZFZZxxxsZx^e>55245iF5 XO&&&:>4>i54:l'`QYYYQJJFQFACpeMYAYYYYZzqqaFxZxfpdMffxafZd335",
"<55wpw5ppZCZxCZIMAAJxdfpwq3sQiw3epzpaaQYYYYYFdZxxdAQZppYQReZsq555eeo.O&&%*>**i455]'^FpFYYxQFYCYMpawFAYYYYxepwdYgCdppxCdfgaapq3<<",
"3q5qwaweexYAfFYCxCxdZZxMds>5aa*5elZpqlJYIYY^YYsdxdpMxepdaAdQRAZdFFx,;;%%%*::*w45'[^QZFQYZ^QIFF^EgppMAFIYYppppZFFFppexMaxdaptq3:,",
"<e9qpexeesFCFMzeZFFxdCaaex4is:ypFF~xAQQQFZxdMFpYapzfddapsddCIYQ~dax23,;,**::*44('^^^^QQIdZQFFaYRZCxFFFYYYYppsYAzpafqCApappeew5,,",
"3qwppsAdCdAMZgfaYFCFAIdMdx:,*dCQQQ^^JQYIYdedqptpaxYpeQszppxxYYAQAY!u33su,,;::<!'Ci^^QQYExdFZxIaMFCFAFFFYYpdpaCFdepwpdZfspeew559,",
"35esFpxfffxMxZxzxCfFQQJCdd;:iadAY^Y~YYYYZpqttewqpdxpqZewwsMaCYAY(`'plxR`sH9e53!CaiF~QYYFssseeQQJxzaFICYYZqeCsdIYCaidxsppsdaeq35<",
"5qweMzYxddsMAfxZMsCZYQQYse3egzfIQ^FZAIIFFzwedweeetdqeerqwxrxFQQQR`'swxYRpYllz,ia8iiQQJJYACpdpYQYEFZAFYFfMdMIFFFFYJYpfpppppseeq35",
"qpwepeFZeAefYMfAFFpFFYQpq:IxANFQ~FIpAdCMptpMAdpdzeppwpeqwsQZzZMIF^[wqdY^!lAas<<a5iiiYFCxfMYAZYYYQYYAFIMffYYFFFFYFxFsxfaarpeswq<5",
"5pwrppsZZdsfYfxCZYYxAYFe53xZI`^`FCQdApdtaapppY^^QpxsdZdppYFxprxeM^JqsMY^^zMsjq;i55iiEdpsFdMxCpMYQYYFxZJaCMxCFfAxgFYCdaxxspeeq333",
"5pwdfeqedwdxFMxCZJszFIQC3spZQ^^YIYxappxppppp3AJQYEMwpfCfARdAZxMpQ^QNZxMQ`xzpse;4r8iipCespwpxxZxYQYYFCMYYFMfCZgfgfJIpAfxMxCdpw,33",
"qt,ep5epqxxasdFdqMeqzJx<qEYEE`YxYQdwpAdtpppqeCFCQ^QZpepAMYQYAZeMQQ^[xuF^'xapss,:68ri6Fp5xpedYYxYYYYFfMFAAZACCfaCxYFpxxfxxCfpa,34",
"5w3qeqpd5dJpCCFwqpdsR87>xQQ^QIYFAYdedCppddqwpeMJQQYZwpMIIFIYxxIYFQQ^RsZQ'Msslx9@>r88iaYuZeaFYFYYYYYFCMAMCfYFCgfaMYYxsxCsseMpq3q<",
"55e3wqd5qpJZYFYdqppsa54eZ^^^YFIFFZzFIaFppMzMdppFQQQxewZFFxdYMgYAMZQQ'lIQ'MaafAl+=86wi2ddxpQYACYYYYFJFCCgxxgAAFCMYFIaZAxeqpMp35q3",
"55s3ee55qedfxxFeMeefp45pM!^AYJfFYxYFsMdexpMffdQQQQJAezCMFMZZxfAMMFJQ^'_J'MaazJJ;*5652i8iMpIJFAYYQYFYYAACxCdAAFddYYFxYAFdq5sq3q9<",
"5qewZs35eqeZFdCCCYFiq<*kJYYYFFgFFYFYxZYxdxZxppMYQYFMMxxxAZFfaCFCMZJYJQ`Q'FMIFYzH&=w54i6aFAIYYFAYYYFIYFFMMCfCCCaadFFFYQfteqp5qe5,",
"5qqipz5<pepxdCFYYCi8>eq!EYFAFFfAxZdJexJYFCdCapdAYFfpCYCCxZfaffCfxfAZFI^^'QIYJERw5&:q4wiaafFCIICQYYYYFFZCxZMACMasCFFfFFppt5q5pp3,",
"qqqepzs5pZfZpCgdii4>5pJJAFYCFYFYQZFdedYAAgCdMxdFYIpFIFIxMMCffdMfMfMCCYYQ~^YQEHZul;+w4888iidCQIxYQYYFYMCMxfMMCpdxACFCYMpppd53ww5,",
"qqqqszCZdAAfsi88a5:6qeHYAFJCAxxFYMFxxdIMdCMdfCxAYYACZdgfMxfCMxgfCIFAFxJI^^Y~Yssxlw+>2886iriRQYfYYYIFFfxCgMfxfMMaxYZFYAxCJF555w5<",
"5qq5epxxxMCMfi5884q5thxaFAAZZgdMYfAZIYCfaxMzMZxxYIFYQxdMMMaCCAfMMFAFxMFJY`EYZzxJpR<@4>4588i`QYxIYYYZCAMgdMffgddCdxxAYFxaapqspw5<",
"5qq3epxxdCCf864555865`pMFxIFZAxMYpdMFFCfafdxxaaCCAYYYYMFfaadMCMMMFZCCdZYFQ^ZI(ZQdZx&2>>4M8JFIECCFFCFFFAMMMFxzFCfdpxFYYCtapwppq3<",
"5qw5qpaMAii66i>>55qwe^xMYCIQAAFAMCFYIgMfdfdsdMdpCAYYYYMEYspdpdCMfMfMCxCYQQ^R^^JRxxR3&>>88:JpFYZFYAMIFIFFMMMCMYMxCwxJYYzfCetpqq33",
"5qqqqpddi88668>wiwephxMIYYYYFAAxAFFQFMMdZMfddadddFFFFCMCCZZxdfCCMfaafMFYYIQQQ^Q`IzAH+:=w4yi8IYJFAFMYFAFCxxMxAxCZxpFIMxeCdwppewq5",
"55qqwxa54458w>qQYzsssFAQYYYIMFdAIAFYAxAfdfMZxapdaCYFZFFfCYYMxxMCMxffxfxYFpd^^^^`RdN!,**4>wi8iYFMIFFYFYYYxMMCxMMafpZYsepFppdpeeq5",
"q3pwpC8444454>wQYAxtHCfYYFFFJMffFAFFffFdMddpafdfdZAFYMFJJAMgMxMxxfaddgFCxdpCQ^^^`ZYlq+*:>w8iaCFCFYQYFIEJMfCCxMAMxpdRxppZesdpaq5w",
"w5qpp85>6845>xZ'QZsMYMAfFYAFYfxYYFAxppxxxCaadfgffxZzCCMFFZMxMCzxCfgAdMdJZZfdpJ^^``xp3,:=:w8a4iYMQFZFCYYFZMFFAAFJfepsaeAZepppp45q",
"wq3545546i:4l[AZJlxzffFMMYAFFpZYYIFppazAMCFddadgxaMMMZFFACfFAMaxdxMfMZeepspeqpQQQ'`QHw@=:x6i8ixCYAxFFYYCCYFMFYFIM5qdxdxraMfCe55q",
"qq>=>46:>4:RJ'EYFFfpMfCZZZZAsxYYFdappxCMfAMffddffaAIZIFZMMaCAxxfffxdMFsqfdwtzZ^Jx^^!^J3:284d55MFYIQQYYxapaAsxZYxddCpCAdefCffq45q",
"5:**-14::=J^`^ZZxxppxMFFFZxFMAYYZfppCMACFMCaadfffaZYFFAYFCMMCxCCaxCxZFaepCaC^Y^xpMJ^Q`x@:>4546iJxQQRAFZddppdCdeqqpxpFMxpCZMFq4<5",
"4:==::>:*x~`QYYxddpsxCFYsfxAMIYFapaadMCAFCCxdaAgxdxFAYYYAxMFZMMMACFCAAesprplQFYJFpFQ`^J*<:->64iQEYQFZQQMxfsxpe5qwdMzMZZdMMdZ5:<4",
">::**=::p~`JddxdddwpdMJCZpfAAFCFaasdaddAFACCffdxxxpMCZFgFdfFFMdMJMMFxIdqxspZxYpfFFJY^`Yp*>>:45igQYQQQYQFdxMappwqpepdZCxAfCdM>==>",
"::>=*::3J^IZZCFgpdppsFYZApMMMYYFdpfpaffMFMfMxxMdfdaxZMZxgfxxxMpCAAfCAAZAYxQpdpdQYYFFY^'(O==**=8iYEYIYYYQAMdxCMwqeeqpFFAFMfxQ*==4",
":=>:*>>hAAACdZddppesfYFYAAFMMMFFFappdxffFCMMfMddZaxZYMCfMZaAMFYpxCZxaxYYZxpwppZQQRaFQ^Q]*=:*=*>4dQJYJFYYApepdzp0qqwxpxQYCMpi*==:",
"=>>>*<peefxxJYZxdppCfYYYddMMAxCFFxapfdAxFFAdgdMCFMCFYCfMCZaxFFAxpsppeeAFMppeeaZQQAYQdsF'_@>*<>41iYJZFEYdYdeqqxpwewppqwQYYg85**=:",
"=>>><5xlFFxMxCxMMaMxMYFxdadCFxfMCapaxdAfCZxACMxFZMFFFFgMYxIdFFFMFzppfrepxxxerpFEQIYQdpY`'*4-:3>>8aAYQYQZeeepeqepFppAzpdxg684**==",
"-:<<=&[AFMpFZxxpsxCdFAAdppAFFFxafdppMxfgfAMAZxdedYYACfxxCxfdMMxMMpqepeqedFqwpedCZFdxsfYY'9::*q4>5ifFQYQZwwwaptewxdpZZx>8i586-*==",
"::1=>:HMAFaxZCMfpaYdCxFgfdCIFFJZadadACfgfMdMYYlpplxZxFMCFZpMCFCaZdrwwrpqqxapZspMdpJYYZFF`U%=*4>45iaQQQQswqedwpddadeedd>i8::=**==",
"=>=JpklFxAdxZCasppFZMAFFApaFZFFxxdMgAMCMxxZCACCewepZeFfxFFIMdxJFxYdwapq5eqpCZFxCAppFZpFIJ[%*&6=58iiCQQYedpepspapxpwq466i4==*@=-*",
"==x`N'dCCFMfMCpsppxFACCFCtFJMCCfdxafIxMCfxgxFAxepdpMqxaMAYYCCxAFxAFJp5qqrMpxYZxdpapFJFsxZ`'224>>68iigQYdAdZFxCZseeq:164>1=>8**==",
"=qxExQddYxCdxadddsdYFZCYAaYICZCfaaaCAxgMMfxxMAFpppprZZCMFFAACxxaFAAJ0wpeqpxpAQFsdZdxdIZZYJ`s:4>-18iiaQxFYFFYFZfFi5>4468*:::5@*=:",
"%xzppYAfZZxfZxdxaffYFdaFMCYFFFMfdpAfFfxMMddFAxCZwqqpAxAAAMFCxxxpxAFCxxwwspCZYYYIFYApepQY^85w3%:4:5iigFCFYFFFYzwi8688455*48>>&&*:",
"3xqieAQMaJIZMICszCdFACfxxCFFFFFadspMCMaCxxMddCMCAdtZZdMMCCAfMZxxdxFCYCspexFYYYAYQYdppxCfg*4JHh%*4518gCgICA^QQMai8i86644>>51>&&<*",
"we5rpgQAexYFfJdMffpCYxCApFFFFIYMddpfCddfCxfdMMxxxFYxAMxYFxdaCxaqfZsACCxspIQYYYIYYIspJ=5iwdYFx!,&&:5waCAggaCii88888864446=441***3",
"p53rgaQYexYxxYMdxxxaxfZCdYYACFFxfpsFZpaZCfMfZCdffFYFxFIFZMCxZdpxsdCMAdCFZIYYIYYYYQxZC*&:JQ~EINu3;%>8wwa68688i68846886444*>>>*:%9",
"<>>raiQQxdAxfCCfafMfCfACYYYFMFxfMdpMfaMFCCMppsAMfFxxxFCwpddCxxpFFFJZdpCFFFYYYYQYQQMi&*eF[QQQYxHpeq*>858>=*:i488668i641162*:>**,,",
":3<parYQZpYxgxFMdxCxMAxFFYFYZFMAgddZaxFMaMxdsxFxdxxxCMZqeYZzpdxYFYxdCxsMFFQQYQQQ^Fg>*d^x'^`^^Eledl524>8>==:>:8864i8444445=>4*:3>",
"<>4waiCQFsZCgCMMMMFMCAMAYIFAxxfxCaCAdMAMpaxppxZJCMxMxCCsaFRCFxdIYFeJxfxFJYQ^QFCYi<%3aF^x`YQ```xJQl<*:5i81>id55w688r645448&:4:3=:",
">=55aiAFYpsFMxapxfCCxZFYYFFdAFppapCAfZAMxxxxdpdaFMCxAxCxCYMZdxpZIYdsAsCAQQ^^`8iaw:qeYQ^YQQQE^'!A'e,<<:34a5pp8wwii8866664r*>33:*%",
":*5qiidZFgiYACdpdMAIdFCQFACCFYxppaZFAaFMCFAZCpdMddCAfaxaAAqxppdCYIipdFYRCFFdg:+@<wpFRQJZCZQQQQ'IRCpqs>*ii>eewgl<rar56556w:::3<*&",
"&@:8pwxgYFpdffMMFCMfaFxYCFCACCMdpaCAMfFCCCFMdaaFCxCCfpCaMYpMapxdsdMfFYQQ4=>&3%<;ewMYEQQZYZxYYY``!zJdsqi8g4srgif5fYi641688*<3:3=*",
"@@*warZgYZapCAAfCZxMpxFYYAAYCCdfppFMaCFMCMCapddFFCFMMCMffsMxCpCxxpzxxYQF8=+%&5i<ppM^YZZxxxfZQRA^(FYZJxligrq5xxpexIfr8>58=&&=&<<*",
"&@@8iwFgCYEaxeYCCIZIxCJYYIYpMZCxfxFMMMFCgMAdppdFAMxCZfCxpppsZFYYYYFx^gFw5%%:54e>xJEQFYYCxxxxFYQQ^ZIQ^xepssqqMa5xFMFai85:>:&*;<<*",
"&%%5i8MCgd^ZfaFFZICaFAxYFQAdYMxffaZMAMFCfCAppfpxfxFZdxdpsppZFZFFFYYx!6iOO&54q6i:x^`AIYYfZFYgIEYQ!QQ^Q~YRQJ55agiCFgfgi5:=:<&*:>:&",
"&&*>a5dpxd^YQJupxxaqexxYxdapsYYdpdAFFZCAMYAxsdasCFAZppxAAAYFZFFFJFQZs@&X&<3qwq8>('QACxxCxdxFYYIYQQF^^'QQ^IZ5wiiMgiapir4>45>@>4;&",
"$*&*M8axifY^IxeapfppaFMYzpMIppfFxYFIFCxFZAdxxdzdYQAdYxfYYZCFIFYYYEQF2+%;;<wipdpp'RYFdxCfasAYYYYYQJal`'^~QEYs56iigiiie6e585<&<5<&",
"**&@i5aarxC^CawedJdCpdYYlwxIaeefYYYYYFMddaxMCMAAlpewidCYYfAFAIFQQ^dp%<<%&>wgCJF!`YYYMCMgadYQYEQQYJpdxI^`^^^^<48irriwwqq<i>>:=5<*",
"*&*@w4iaiCCYQswpMFZppxdMeedZpeaaaFZYYYxadfgdxxxeppwewCQQQFFFZYY^Yi7O;<:;:5gY^QxJ^QYYAMfddgdQQCMYYQdaJQQ^`'QRp<6858wqwi>iw::4%53<",
">&*&q5rapdMFQMwpMYppepdFspFeeaptpMYYFYFYfFxxfxdpppxqqfQAdxAAJQ^8>&+%<>455iQQ`YZRQYYCfCxfCACaxaaFQQAdYFYQQ`QQZ3we4584wwef5<:<&,5>",
">*%&75iaapCFQJesxZApwepCxsdZdfp5qpYQaYAxMFIxMppwadYdexIFxQQYFCp:@%%;354wiYQQ'``^YAFAAMMdxAFYxddxQQRYYYYQQ`E^!5wJp5q4w0wp*3<<=>5<",
">>*&48iaafgaFCxsFFFdpppZppaCZpqwqMQQQYFFAFMdFApdpaMZxpigCMsgay*+%&&<5555FY^^`'QFCAfYYfdaaxFZCZlpFQQFQEYQQ`Q^`eqdApqw5wew:<<:::3<",
">:=*>wipigiwwJaedYYxIzppprtpeppppxQQYYYYYYFAxMCZpdxdq>&8syq;&&&*&**qe54eJQ`'``QAfxFCYCpppxMMfZxpaJQYQRYQQQ`^QzqsRzl36qx5333<<*<<",
"<<:&*siprg48ixpweQZMxxeCspdprppweFYQQQYYFFFFgirdi8:*=i8<4pq3<,&**=:qaqweY``'`^^YMICMFxfspxxFFZJaYRMJQQQQQQ^^ENmpZZJ,w543<p33<*<<",
",<:&&pppaC5qwqfxYsledZppdpewfeprpMFFY^QQQFC54===>54pQ`JaFx4<3<%*::<prpeu^`'^QQQQQQJFYAdadMMCFdpYQQIIQQQYQQ^^^JAxslkpxe<35pq5,;:3",
",<<&&paipa5wwixfdppxApxpxZpdfZi4445igCFFa65=>><qdZJ_`~lea53<>:&&&*5pdpxQ`'^QQYYQYQYYYAdpMapMxMpp^Fdpz^QQQYY^^YA^pexpZw533pe5,:*<",
"5<::*yipwi6igMps55pMfpdxpZdfdi5&::*=iai554qaI^RRJF^^^QZspi5<&&$;&&45el^Q``QQQQQQQYYYYMapdxppfAsZxefdrJ^QQYI^^^MZ!5E9Jsq923epw,*<",
"3<<<*pirpixCfCfZq4xfpeaCfddiY4>&4::::<*:[^^`QIxAQQQQY^(Ys5<3*;$%++;sEZQQ'QYQQJQYQYYYFMMdpfaZzFYppdfCFA^^QQY^``zQ'3<Zeww5q3wee,,:",
"33<<&wid8iaiadi55884>:>5iai85:>&:7exp<3s^YsFYIYCFFQFFQQ'x9>3;;+#+5pNx^('^^YYQQYQQYYFYCdpddCMfCAspaMCACx^QYYQ^^xF`wqZ!pu<9qeew,2;",
":3<<*3aawqiii8445ii888ii4*@++@&qCQ`'Y!QfpCxFIYYJJpxQYZs`xw<4::+%&qeswZ(!QIQY^QJZYQYIFgtagxxMxCFfpazZFCpAQEYQ^`QzEhqZ(d5qwewts,3,",
"<333:;pgwi5i4>465aii4:@*++:<3<>gF^`'xxfpwaAYQYYYRpexYJp`l59>>:+&&;esexYMdpFQQ^QQYQYYAMepffMxfCxYAeeCCxMF^QYYQ`QfJxqdJE5qwqwpw33,",
"3333,&li5684458w=4=:O%:,3<3>55iMAJ^'YZapepYYYYFaxewxdZYQ'3e3;;+%;qZAp!CappxFQ^Q^R^YFFxZppgxxagCYfxpxgxfRQQYYY^^zHxH5dA5qeq9e935<",
":5eq,;ig8545:*****&&*>>::<:<pdZ^Q`^^xMtppYYIFYYQIeppdpQQ'xsq<*%;;p!JsxfpdppYFxYJR^QCCxQxedMCpfAAfdpCZZZJRQYYYEQxZF!qZR5qeeepq35,",
"<5q53,pFFw653:<><:=%*:>>>445FQQ^'^EQYYdYFZYFYYQQxapepdZAJ^Zeq;%+kp~QAfxpeppFxCCfYQQfCCFYYaafdxxFMppaYYFCpEYYYYREZZJ5545waeeuw253",
",,q3,3sANzeq5><:>4:&&:4555xQ^``'QFJYYJYQCxYYIEFQEF95eCFZQQspe,@&Jl(QCCQpepdZpZCpdZQFYCfxQdadzfFCFppMCYYAsQYEAZQQNxH:*>wwpepu2553",
"uuq535wpsplpww3<>::&*:48wdQ```'QQQxCQJ!FZeFYYFYIQFe:wdpFJ~asp9&29'YdAMFppexMpxppdFIQYYYZYpdfdfYZCCfdzxYFfYYYFQF^ZxHk<:qqespqq55,",
"!{933xuwpaxasp5>:>=;::<5px`'``^QY^QFZFxppxYpYYJYQZfqfydMY`Fpeq;,9'CsfdpteeapdpqpMIQQFYIMpAQafCZpYYpdCfYFZQFYFAYRRNAan<qwpx9ew5<5",
"Q`!,,eeslsxaqww<><*::39wsE`'`QQQQQJtdFdasQJaIYxYQ^FFffixF^Idqq3&w(MeddpxpxZtdprsCAYAddYFzYYYxxqeJQxAFAQYYFFFYFYQExZN',3wpewwq,H'",
"AQR2,sxszdepeeww95*4wewpMaJQQQQQQJxddxYFYYFMZYxJIYQdfsqpM^QYeqe%pYFsZpdxYCxepppwsYQAq5AIAYYEFpsppspxdFYFQFFFIFCY^ZZaQh3pJ5wq9k'I",
"apH_qzzpxNweqq5qq3,ppewsaQAIFYQYQFzedZYQIIYCYIFYFJJZssspCY`Ypws&pQ^QJxxCIpp5ewppppFFFpfdfYQdIsqtewepsxZYFQYfACYYQAZpF!,ee599q_QM",
"pqx~HqspMFpq<qqw3qwAzwezZMYFxYFYQJppxQAIFYIYYIFYYYYIFppfAF`Yets&uEQQQFJZMpqqqppxxpMAdJMpefxxdpsw5qewpxxYIYYYAJMdJZNpM(,,35qq'YMp",
"e5pYJew5qeeqee<<5leZsepQxxxFYYYIYFdJYYFFYJYQYAMYAYFYZxqeqa^YMew%nQQQ^YxatqiqqqJFpxMFzawptpdxaZxpwqqspeaYYYYFFfYxJ!xssh3,,w5[!Zpt",
"q5eF`'dqpeqiq<5qzNeNlxApfIYYQYIYZdxFYzCYYFCYYCxFFFYQZCrelaQEMeq%!QCQQFdsp3perepeqxaFJxwwwpFxxredpspsqqzYYYFFMZM^FRsssJ3,,:''Jfpe",
"w5qF^[qqwwi4>pqpepszZJapaFQYAYAMxsxAZFIFFpZZYAYFYFYYRQZaxaA~Zp9&(FaYYpepappppeafpqCCQAeepxJYZzdCpsppqdFYRZAYCZY^ZEJps!,,,'``appe",
"q5wMC'x5465=:ppFZpJAAppaMpFYZFAYJMFaZxYYMAJFFYAZYYYYRCdFMAM`Fxq3YCdMfpaMxdpqwwpapttMMYxdsdYFdpxxxfpxpxFQxCpYYYzCAFIxAx,3_(`Zdpwe",
"53edMQ(p484<qpxJxA^dpdxFCdIYYMYZxfFZdFYYYYICFCZfMYYYYQYYFYJAZxe9YafwpdwxxzpdedCpexxMFYYYAMYxFedMzwppZMFYMzJJZxdAxAExYl*!YQQdspee",
"35pfCF_R:2wepshQY`QaxpdfddFCQdFMadAZsCYYYYYFZMCMAYIYQQQRFMJpIlw9xpMpqpppQspdppawzspFQQYFFZJYMEfxd5pzYdMFQYYFpddFAZIFQw2xhpFaapeq",
"5qqdfFQJR4tppaZQ^QsdIMMgpdAFZpdJadCFCZJAYQYCFCAYYIYYYYYFAdFHNdppfxMe5wwdxexYZCdpwsqdQYQYCxaaZFZZFtepYCCIFFYJdafFZpxEZ3HZpqppdpp5",
"3q5pepl``(5jaxQ`QQJZdppxdCxzFAYFdxxQxxeMFYFFxFYFYFxZCFYYCpC^AzH3pMxapwwpsxFFQd555tZQQYFYFJYpfYZCZqZIFZgFFYYpdxMMMddJ5wxdCJeefpa5",
"355axdpsQAesNZRQYYYFsepadCdYYIMpfxFYZxfZCfAYIYIAJxFFFIYZYYZI'Jl:pFxppq55pFFFAzeeeqqxQYQYxZZFfCMMIYFICJggZYapMMgCJsww5ppaaYpepap5",
"553sFd9weRJ4^ExYFZIQZdFfadFCYYFpAQFdAMxFZFMaMFYFCCFYYYZYFQQQ'a<;sxMpaewppFFYpdqeqwpdQQQYxZCFCdMFFIYMAFMfYRaffxZAxp54lhpddYC5pdq5",
"q5qpAdweeF!eiYZFZFFJxIZMppCYIFpegAAfAAJFYpfaeFYZJZYYYYFFYYYQ[>=eqxFfppFxxpFpspeeqqixYYQYEMzFFZFZFFYZMfxMQdMZdaapZ<>r^sdFAMIsep53",
"55eeCsqppaEx5gQfAFFFdAYawpfJYxqqfxYfCCYJZsxapaZFZYYYYFFYZYYQ':>qurZpeppxFYdZsppq<qepFYYYQYZAMQYdpxIMxxMMQaAfdxsxp:q`^eMQMxCFxa35",
"55epCpqppdf!q5CFxMMFFsFsweppFZapdpdJCFMYFxddxxdppxYFFYFYFCZQ'5qp5^pezapYFCdFZddqwpaddQYQQYMCxCCYZYxxxfMYsaMaffsx4qlEYexJFgxYQq55",
"5qepxawpqfpMZ5iaFFMFFYYdwwqeAYdpfadCMFYQadaxMaapdfdYYIZYYFYxQH5s2ZZdYpdYCxMfJsdpAxAYQQQQQYFZZMxFxQxCZMCYsafCCdd5:lzpppxYYxJfF3qq",
"qqepdfqpqpegEl66FFACCMAepewqCQfxpppadAQJexfZfaxfFZFFYJxIZAJZxH<q:p`CMxxFFfxxMMxqFpdfxZ~QEQpqsZIpwdAxYFAYfdpaYd4=pZxtppMYYxxa,3wq",
"5qeppdrwydyMx!56aJFFFMZdspfJFQxadCpsCxRpxCZFYZMfQAZZYYFYQYYY^u<55B'YQYJAFxfxdaMxdJedCsZ^QQMqptYpeyJxZIIZxYffZa1>mafparMYICfY,,wq",
"5qpdCfpZppdspAZ85CYYFZFAYYQQQFMffdxCCCapdCffCdddxpMfIYIFFFYZ_55qqQ^YQYFFfdfdxCaAYplpfIFxQQewlQQpqxQQQEYpfZpMC4>wbaYppqpFQpZFeq5q",
"5wpaAfexpppwtp(e45JYFAAxYYYYYAxafICAxzaxwdaaxFfxZFdCQFFYYFFM^lpe<'ZYYYCMxsZxdCCAAZCpdfQQQQMpadZQFYYYQYAFxMpg15wwxfpppwdJYYJxraq5",
"55waZCpsZdepppRtw1iFYIFpFFFYFIZdAZAMMxdfwpfadsfpfxsdQFCIQJCC^M^',`fQYYMCfdCZMZJxYYQapFYQ^ffapdsZEQAQxppCxAF1:flpsxepppxFFQYeta55",
"55qexpedFFgqppsHAq5YYFFgCFYYMFYCYYMAAxCFxpfafpwpxFMFFYFYQxgMYxQ'pQY^YYFfCdgxMZCpZEYswafFExpeppJAQQYYepafpM64wzsjpdaeepaFYYdeap53",
"qqwpdpwsCxdxeqpRZQ45FFFgYCAFxJIMFpeaMxxYYfadpaepAMxdfYIYYFxfRMAYBQ^YFZFfMMfZFxfsZJZaxppCfFZapFYEQYQAeepfCi>8ppleJMptppxFQQ5expq5",
"q5qtadawexdaaedxpIq>gYFMMFCAFFFFepppZMFFdpxpsppNMddsZYYFYFZgYFfiJi`^YFFxfMEYYCMxYFdxCaaxFsZYzxIYAYFxddfFa48pwespFppppfxFYlwtape9",
"355wxpswdFdespddlA(55FAMpCFAfZYCpppzYFAetppMppFJAFaaYYIYQFffA^NwJiQQQJZAxCQYJYMFYQafdxCxYadMQIAACEdpCCZg46ZpzlppCappppIZMeepaeeq",
"555pxptpZFZdfeedMY`r5ipxpxFFCFYCZpxYfpFpppfppfZxaxfxYFYQYFMfCJxelxQQYFCCFFEYYYYJFYadspafpFxYYYCFIFMppZM45p(xxsepFdppppFxfrpdsppq",
"55eadttpdddddpwpxMQxw5fMfAFACgYMYCgsdpapppppppfxfaAQYYYAYZFMCxbrpZg`YIAJspYFFQFsdFFatpppzIJQQFFYJfMZCF65pzMCatepMApxdpCId5sppee5"
};
