/* XPM */
static char *fb7582d3f173445498570c41bfb378bbzpTUeIg5cDeabAFn[] = {
/* columns rows colors chars-per-pixel */
"128 128 72 1 ",
"  c #140E0F",
". c #16100F",
"X c #160E11",
"o c #180F14",
"O c #171110",
"+ c #1B1314",
"@ c #1E1915",
"# c #1E1519",
"$ c #1F1919",
"% c #201717",
"& c #211917",
"* c #22151C",
"= c #231B1D",
"- c #281E1E",
"; c #26201D",
": c #29211E",
"> c #241E22",
", c #281E22",
"< c #252025",
"1 c #2C2524",
"2 c #262229",
"3 c #2B252B",
"4 c #2F282B",
"5 c #30272F",
"6 c #30292E",
"7 c #2B2730",
"8 c #2E2932",
"9 c #302730",
"0 c #332D32",
"q c #362F33",
"w c #302A34",
"e c #322B34",
"r c #332C34",
"t c #332C35",
"y c #342E36",
"u c #332D38",
"i c #342E39",
"p c #352F3B",
"a c #363037",
"s c #35303B",
"d c #37313A",
"f c #37313C",
"g c #38313C",
"h c #38323C",
"j c #38333E",
"k c #39343F",
"l c #3C373F",
"z c #3D383F",
"x c #393340",
"c c #3B3540",
"v c #3B3642",
"b c #3C3642",
"n c #3D3744",
"m c #3D3844",
"M c #3F3A45",
"N c #3F3A47",
"B c #403A47",
"V c #403B47",
"C c #413B47",
"Z c #423C46",
"A c #433E4A",
"S c #433E4B",
"D c #443F4C",
"F c #45404C",
"G c #45414D",
"H c #48434F",
"J c #49444F",
"K c #474350",
"L c #494551",
"P c #4B4754",
"I c #4D4955",
"U c #504C58",
/* pixels */
"6digb04444::44111:111444460dkbitye44446t64:=#+#O#+++#**=14eGIgAmGcdmccmmbimmmALLABmgdft6ee6e46ttAe=111=#ooXX  OXX+oXo#*==-111144",
"0ALct0e444411:11444444444ed60BDdgt04164444::=#++#O++=**=16gLLgBBciefiuigutggiigmDLBditetet6e66yem64t641**+oXX.XOX++o*=11114-4466",
"Bnft6e4414414144444446444666igmfyy6qkd411<1:==*#OOO+&**,46qAGyBkueeeieeeeegdittttgmfgftite6eee6ef4eky66=*#XoXO XXo**,46,46e46ymG",
"Amgtit666441144144646646et46etmHmmGGge4::111====#OOO=*==1dlkAgtdutteteeeeeiidfyeiifdbccxgeiyttttd46t4141=*#oXXX X#**1a14y6bBGJPA",
"dcteee644444444444446466e6411egAPIIIie41-141-===&+OO=*--4tbbAfit444et4eeet0eteyitif77tt7ddfxfgigg4qgBb4<=**#X XXX***yA4yAbgPBGAb",
"icite4664444411444::14e600ygbgmgmAGHG01==:44:---&&%O=*>144tbgyt33741t66e6e66eeetiig322222222tetfydmBBm3<=&*## X+***=46BgGGLkbAAg",
"fcdfe444644444444444ee6466edk04gGGAmke332>-1:1:=*&&&&=11116Ab7741344e6446e666eetted2222222=<7377377ddd3t<=&## XO*=*,4qmBmAmkbAmm",
"gbgfee444444646444644461446iy46gmm7mdt111<<1:11=*=*&**=:1dGIf33334e4464644446e6teig23222<2<2<<22t278<=<$###&+ O*=*<10bgBGmnmAAGA",
"gcddiy64664464444444414441440BlGkd2dm7t73<11=;;*==*###*=:46gm743146444446644646etii227<2722227tu7=>>=$$#++o+OX#*==:4qkBdmibmmgma",
"0ygkgye66044644644444646eedgHAm478277fdd23<1===##*#*%#*#*=,4y73114441446444466eeeig2227727277882>##@##++OXoO.X#*=1410mgbgtya4gd0",
"66etgcyeeieeteeeeeeee0idddymbe7<233227mt33<1=<#==&**+#*##**-4t3314441114464446eeeib7272227td<>>$$+#++o+XXXOOXX#*=-446m4iktak1kq4",
"444eeddtddtete60ee6ee446y66bc<2>232<2787831<;>#&***#..O#***=107114111114444446ettfm8277udd2<=&$@#+#+oo+oXOOOOX#*=-16emg4ye0ydey<",
"4e466eeeiteetgcfteeyid04<eg78>22<2<<22=7k731<#*=**#.O+OOO***=4fe4414441466644eetdbAfdgt2=#$+$##@OXXXXXOOOOOOO+#*=:16em6444ite641",
"46466446e4e6e66tiiiyydcmy7277==23<>>>322kt7<<&==&$XO%%##OOOO+OO+=etd444446666etiBGLd3<>$###X+++++X+XO#OOOOOOO++==:4efa6644eee444",
"444444446446ee66eeiymcBk33<23>=73<2<>>222du<=<<<$X#%##&=*#OX X... O>0gy66eeeeygAm<<<>====$++#oo+OOOO++OOOOOOO.O=*146ga4414464444",
"146444446444e6eeeet0tdmde2><=<><23<>>><2<2gy<43# +=,11=====*#+XO     +>mkitigiu22222<>=&#++ooXXOOOOOOOOOOOOOOOX+=>44kd1414444444",
"1441441441446666ettea6md72<3=><<2<>>>>><222<3>XXO=,4<241======#+oX    X#eAmg7>===>>>=&##++oXXOOOOOOOOOOOO++OOOoXX#0tkq4444:41414",
"11414111441466406e640ikt23<d4@>=>=2><22<<==   X+10Aciyy441=****#OX  XX   #0<=&@$&&&&@@#+ooX+OOOOOOOO++O++#++++##*o#=ymi444441111",
"41144414611144464e446txb3277===&=2<>22==@@O  X+=6kIGKDGkdi311,<1=&#X XXX  X=$####@@@#++oXXOOOOOOO++OO+++###***====#O=eqg6444:::1",
"114111144::146464614gicm7277>243<t<>=&@#++ XX+&4kIILLIILKmkbgde64<<,=*+XXXXX+oo++###++XOXOOOOOXO+++++#+#=::-=111,,>-=XX#d641::11",
"11111141411161414e41yffBu3tt&27=>>>=+##o+  X+*=4bPGLLLGcmAcbDGAGAAmy5,,*##oooXXXo+++++O.OOOOOXoX+#+###,=-464,4=4441-=+X <y411:1:",
"1111:114411:1144664iddfBm7ud$>2+$@$#+ooo X+#140ikAbcmmciiAyBAGLLLGAHLGmcg3>=*##X XOOOO.O.OOO+++##*&===,-4y,4433335404*>k+X><e411",
"<11:1111:::1444464etudfGcf82@=>#$=++oXXX #&4bIGBygiifgtetgifffccmcmmmmAALLGAmk0t>O..OOOO.OOO+#+==1<,*=4dty46dbZZbkkidde40>#OX+=4",
"#da44::111:14414e40dgBmg272>#&$@+#oooXX +<1lLGmmGAAmttueeitytetgutytttggdffygcmat4=OOOOOOOOO++#4445164dmykykAcmBgtt6444441:43= X",
"  OX,44441:14446egcku3<>=<>##@##oooXX  X=emLmcfbgbmBbkd6eteteeteiietetteitdtfiA>>== O++######*#11==,40mILIGGbcideee6444141:16y4+",
":#oX+>7de411464ye32>>==&>2#o##++oXX  X #efAGidcgcfiyicmAzq466eteetete0teeettfBd==$#X X#*=144633,,**,,=ekByBbgbie4644464411:14444",
"4=#o   +3e04et3<>===$=$$==+o#oXoXXX  Xo<cmDcicdgicbfiffbGGGzq46ettteeee66eibmm<=$#oO X#**-:16tbkBBAGILmAZ6ek6cdt644446111111446y",
"e1-=+XX   >d2>$$&&@@@@@#&$+o++oXXXX XX=dLBmmfiifffccfgifggmAGGBdee6646akbmcAG8>$#+XX X**,353y64qkAUKGcgLKA664e644444464644441114",
"661:=#oX   O>@##@@######$#OoooooXO.O+#0HmmcgiiutggcgbnbmggcmmALGAkdmBABgcgmHt<$@ooX  X*=4kcde6mIayLLmebgHAmBygq61111144444114114",
"40e44*=ooX  +$#+#####+X+#+XX+XXXO..+#1AGgmbdutitidgcxmAnGLAALGmmgbcAAccffgf<>=##XX   X**-6gnkKAqamGgbkyGLmkkmcgxy60ee66444444114",
"6eiee=-=#oXX +#++++++o+#++X++OOOO. >4bIxiettetttfifggxmbmcLGBffdditid7722ug2=#+#XX  Xo==-4fGGAmA0LBmkt6AmbbAyeiityye644414444444",
"4etdd3=:-*ooX X+oXXXXX+++OOOOOOOOOO3BIct6ee66tettttigcccgdAGB77772222272772>#o++X    +=1=4BGmmmk6bmyq46kbLDcgkdiid06666661464444",
"4eeicg-41-*#XX   OXXX++++OOOOOOOOOO#=me66e666666e0fteefdcimAm77722222237t8=#@o+oX    #=41ebBfigdmqgmGBHIGAAAmlcftee6646e44466446",
"etidmG,441=-#XXX  OXOOOOOOOOOOOOOOOOO3cmmgt44446066yyeggcfgbd22727232777d2>##ooo     #*614amggcbdAmgGBLIGbAkB6mqctetete0e444464i",
"etiycLl4641:=#oXXX O...OOOOOO++++OOOO.O#=kd44141444yiiggiixcc7222222222t2==++oXX XX X**6ekGnccmcblmBkkmbLDAby6ybgettydd64646e4ey",
"yttycBLdt6,1,**+oX XOO.OOO++#+oo+++OO...X=1i4464444dfffikcbmi222222222t8>$$++oX  X XX*,eecABctgmdygmkkbDALAketyydtiiei000y6ey04y",
"6icdcmAG6y341==*#oXXOOOOO+o#&#++#+++OOO..O<Gie64664giteetmfmf222222227d2=@#+oXX  XXX+*66nLmcgfe6tbtfcgbDmAGbd7eiidckbtibiya66g4y",
"ffgcbdmAat72&==**#oXXOO+&**==---=&+++OOX.O+eJge6666kddftycmiu22222227g2=@#+oXX  XXoX#>06GKfieite64yggggcgAAB7t7777773<2227t4ymtd",
"dgtt4272u22>+###+oXXXO##,=#,=,1141**###+X   #emteeeitdfitfxc82222<2273=#++oXX   Xooo*94yLBgdetiicee44dmcmmgi28223>222223<<<427te",
"37e232222t2>##$#+ooOX###1,>y41<444****===O   >77teibdfgydicmu222<2287$+++oXX    XXoo*31iLAiteetitiiye460Bbft782<2222<=<<><<<3233",
"14t7222227u2>###+oo####=646l641:,,<,=***=&O  O=$&$#27kmmBmAcf22222282=#+oXX  X X+XXX#*=4GAi66eetyiiietd4tkct72<<<232<=><<<<<<<<3",
"<3ee722227tt2$#@###**#>1bgAAGmmgii6<,,>=*##O  O#+#+$<<27tfcABdt727t<=$++oX   XXX+O  +**-emey6e66eteety6kiee7t2<>>><><><><><=<<<<",
"77tut77822>==&$<Oo***#6yImetcAAcgi666441-**#O  O+o+###$&=>2277ttdf8>$#+oX    XXo##*=X#*=,bi0644e6eeytyydfci2><>2<<<><2<<<><<<<<<",
"4ffmc82>=&$#+++XX#****GGct6eeifmIPGmmd441::-=#X  XXoo++#@$&=>=>>>37>@#oXX  XXoo#&=14<O#**4ye444666eteeyyfbd22<2<<<>3<<22<>=<<<<3",
"et7<2<<>$##+oX X+**==9Diie60e6efmLLgymmd441,&%##X   Xooo+#@@$$$&&=<=+XX   Xo+##=-144yqO#**64044446eeeettgm722<33<<3222<<<<<<<233",
"<>==$==#+++XX Xo**=14ggit6te668icmAGkdgd644<441-=+XX  Xoo++###@@+XoX    XXo##*=114414qa*+*110444466e66yygAe<2<<33>>>22<>><<277<>",
">==$>$#XXooX X#*=:1teBgeeetee68iifmcgAAAgte,--==,**+oO XOXO+++XXXXo#  XXooo#=,444tylgyey2O*=1e44444eeeeed62283>>=<22<>>27722<>=>",
"+#+ooXoXXX  X+1-14eiiftd64eteeeetfmciitgbABe641--***##+..OOOOOX  XOX  XXXX#=--64ymbi644404XX#y44466460edy443>3<2&2328=&+><>&&$$#",
"##+oXX++X  X#=668ttfiiiie4eteeeeeBfcitti0dcmbg044,=***=O.OOOOOO   X XXOO#-1<36ykGB0e644146e# $04486e6eygd7>2=2<827727=$##+X+++#+",
"XOOOOOoX   #14Gbfdiiiitee6etee0ticguitti6igdinBky*=***,,=OOOOO..   Xoo#=4446bbGAciee644:144t>O>d4ee66etkg474237t=22>=##$$#+XXXXX",
"  OOOXO.  X>6tGbftiyefdfeeyt6ee0ggigyetitiiitffmG::1141==1#OOOOXX++Xo#:1=<tgGmBmdyey644:1114&&O#y6et6tfgg377883$$>=@#+#ooooXXXXX",
"  .O+O+OO#*3Bmfityyeefbgyeiyeieqbccittetdt0i0eigkt6e61:=*=>O+OX+#****=16tiicGfibdtyee6644144$#+ #kg6ykcBb>>2222+#@#++ooX   #3=+o",
"oXOO++++=>*qLgyfeeeetimg0etiittdfAiiutttieieitt6eeie4:==*=> ###*==***,6t4eedteibity466444464&#oX $BBcmce2=>>>=$oo++oX  X#2mLA1#o",
"+o+OO+++,--gmteteeeetgmcdttgdtdfbmgfiittttetyee66ttig0340t=X+**=***==46gayggigggyty464444663=@++  #d<&=>$@===$+XXX   O#eGAcBLe1#",
"#++OO+++16egieteet0eemAmdiycfdcbgmgitfiityte6tdiiu872773>#X X###=,*=:6kmdydeigicfti444646404=@#+X X72<&###@$#+XX XO>lAbcytigIAe1",
":##+OO++3bt46etuetteimAcgftmgmbgbmmfettttgffg7222<<2=><23= XX*=:<:-:4byyideetidggte0e4446667=&#+XXX+2>>>&$$+XXXX#&1BfeeetydfAUd4",
"44@++O++gy666eeeetitiAbcmcicmGAAbcBcfgffggu22223<===><22>+XX+=-1:444ecey6e06tetfiee6et6eeeye>&$#X XXO+=>>$#+OXXX#10cte6eiiggmILy",
"y3@O+OOOyie44eeeeeeidGAmcxgkGcmAfkc87t78232222><<>>=<22=+XX+*-441kdd0i4ydeyeiydiyee0eeteeti7>&$$XXXXO+$++O++ Xo+1gGfuttteiydAPUm",
"d2=#+OOO6ee440eeetefgmgmbccbDcAu2223222<<222<<<<<<2<2<$@  o#14644gu06ye0itieeydcyee046tyetdt>=##X+XXO#>=O....+#&tAbtttteyiybALUL",
"u2>#+OOO=d4646etettgfmcggcgbGk722222<><2222<2<<<<<<<>&#+ Xo&1ydt8t8664tittetitdgiytt6tetetdd>=$+o@++OO+>OOO.O&&,GAcittttbkbcALIL",
"mt7$#OOO>c6664tuteeicmmimgm77272<><<>232<<<<<>>2<22>#@++ X+=10k66ee666tdtyiiytgcdtii460ttecf>==+X#++OOOOOOOO#<=eIbffitixiammAIII",
"G23<#+OO#k6e46iut6efmcbigcg22>2>><22<>=<<<<><><2=7<&+++  o+=:qc6et6e46gyytdtiibybidi4ytf40mf<=$#o+++OOOOO++#14=BLgdditfigkkAGILP",
"LA3<$+XO+ddu6tditedgmcftifdd3<2<2<===>>>>>><<>2<=<&@+++ Xo#-1yceeeee66dyieyitcbmbiig6eiiicA7<$$#++o+OOOO###&t6-PAfidieffgcBmHLLL",
"IIf<>#+OO<=4ibmgcegmAAmgct7t233>==>><>>>>>>>>22==>#+XXO Xo&-1ti6ete66egfteyydfdccccgetfifxm8>$=++#X+OOOO***,Ly6UBfkgiifgcAALLGKG",
"LIG7=@oOO<&=><dALmAGKGAmg778>>=>>><>>><=>=>>223#@$#+o+ Xoo*14tdtttee6tifgdggiidgfgfcdtfdgmG7>$=++$XO+OO+*===BydILAcBcccmAAGGABBG",
"LIIk7=@+O=#$&>377dGLPILKA8732<><<>>>=====><><2>###++X  Xo+=11dkieeeteedgcgciytifffcmbfigcgm7>$=#+#X++OOO#&&%=-6UUUAGmedcdccckmAG",
"KGIG72=#+###$==><2cLIGHbugd<22<>><========>>2>&+#+o+   Oo#=:46xiteef6edcbkgygetgyidcAtfffgb2>$>##+XOO+OO+&&&#*6UIGGmdt4te7ffkcGL",
"LmIUct>$++++#&>2>>2234cct787722>2>=>==>><<<2>&$X+XXO.XX++*=:4tgueettfiggbgddiiyitgicmdifgcA2>=$+#OOOO+OOO#&&#*eUIGGAm8<<33gdffuA",
"ABPIGg82###+##@>323<=2tbtdtu82>2<=>>==>=><2=$##XXXXO.Oo+o**,46gftyeicgxcAbiidttttiffmxgbfnA22$#$#X+OOO++++&&&=tLDmcAm32<<3efdfbA",
"GGILctt<##+o##$$+#>877778c2df72<2>>>=>><22=@#+OXo+OO.++oo*=,46mficgifccmmmcgtttiygfg727ugmG72$$>#o++OO+++O@&==egtt7mmme74eidfkAA",
"HGmgd<$#+O+++++$#=>2t722<3=3777<2<>>>><2>=@#++XX+OOOOO+o*=144AGmcdbmmGABmbgdiititfg872227uc82+@>o++OOOO++++&&*4e4447Am2kfttcccmG",
"Gg843@++O+++++#$$&>>222><>>>>>k7<>>===2=$@++ooX++OOOOO+X*=:40AGAbddggdfigiitfftiigi2222227t22#$>++OOOOO++++&&*161111mmguee0tmmmG",
"t2>=+#++++O++###@&$===>>>$&=$@7u72<>><2=@#ooX+OOOOOOOO##14tdcAimfbggciiecciyicggxf23<<2222d22+$>+#Xo+OO+@++@&&:1-===7mccmkmcfmLA",
">=#+O+++@@++++##@@@@&===@@@###>>22222>$#+oo+OO.OOOOOXX#&144tfAiHcccccteeddgitfccc732><<227u2>+$>+#+++OOO@+++&&-:=#+++<u2dmBkymct",
"OOOO++@@@@+OO++####@@@@@##@+++$==>>22$##++O  O OOOOOOO+#:16eugyAgccggieetitiidfcd322<<><2282##$&+#++OOOO+@++@&=#OOO  X###=4+o++O",
"OOO+++@@@@#OOO#++####@##=$#+#+##@=@=2=+X  XXXOXOOOOOOO+#:14eiy4Bbcidget6tettetyif322<2<222t2o+#=o#++OOOO++++#&#O....  XXXX#=$=+O",
"OOO++#@@@@++++++++####+#@&@$#+o#+##=+   Xo+ooOOOOOOO.O+#:14edy4Dciteee66etteyitif72222><<28>#+#$#++OOOOO+++#=&*#*#+XXoX##XO+#$+O",
"OOOOOO++++++++++OOOOO++#$@##@#ooXo+XXXXo+##+++o+OOOOOO+#-14egg6Bc66eee66eeeeyttif2222<<>227>=$$#+#+OOOOO+##&==##****#+o+@#o+XO+O",
"#+++O++++++@@++++#+++OO##++++oXXX+oXXo+*&@@##+++oOO..O+#=144fi6mie66te46e4ee6e08i22222<<273>=@@#+++OOOOO+#&=*******=====&$##XO+#",
"#O++++O++#++@@@@#+O+++++OOOOOX #4==*==,1=14;&++#+++O..+**-44dd6gitee6e44666eee88y2222<>>223=$$#+++OOOOO#&=-=*****==-::14:3=$+X++",
"#++++++++#+++@@@@@#++OO+#++O.O<346eaq0e444444***++++O.O**-46imgty666664464466e60d222<<23222=$#+oooOOOO+#&==*====1::1:44k1t0<=X++",
"##+#+#+O+##+#+@@@@@@++OO+OOO+aJgifbAAALGl6664=:=**#+XX.#=#$>>230ee446644441444ety22<<<><<2>$@#++ooO..O++#**=--:11114466G66g6e#+#",
"=#+####++++++++@@@@@#++++++#1Aae4eyt0imGLbtyt46,=*=*#XX.##o##&<2fy4646444444444402=><><<222=@#+ooO..OO+*==11:1114440eymIg4itg*#&",
"44&#$@#++OO#+@++++@@@+++++#km04646ee44ymAJAck4t64:=-**#O.O+#+#@=2ct66e44441446e6i2<222<2<2>@#+ooO  X+#*==-4:144466e6yAIIH10fc,**",
"16:=$$#+O+++++++++@@@&###<yy4444444664etimLLm46441--==**#O+##+++++,g644444464ee0i222<<2222>&#+o+  Xo##==-141446qeicmGLGGI6dgB,*=",
"-44::1>++@@##+++++@@#6ygg64444144446ettdggBUlie4411:--=**#OO++#oo#$7g06444446etyi22222222<>$#o+  Xo+#=-=14646ee6mGGHBmmALz6cm44=",
"=1d6146=@#@##++++++@6Bk4111144444446etiuiibPGkgm46414:=**%##..#=*#+=>ye6444460ytc222887772<&+#X Xo+#=1440014gg0ABKdkbcgcmG6GA6c6",
"3464ee3==##@##O+++@4Hy611::411444466ett8edAAGIIkmt6441:-==**#OOO+==&@=ye4446eticA87t82<>=#+#   Xo#*-::1444-gAGBGfad6idfibAgGLicA",
"b==1444,**&###OO+&=mBe64:11111444464ee46tfmABDPd40e4:44:==**&#OO.OO#=$>7d66eeftt7<2>>=#XXXXX XX++#=::46e441ZIGGBd4etgitigcAGImAG",
"I3,yge4>*=,=#+OO#*,Ift6414:444444466e04eigAdxALG444:=664-,**=%*OOOOOO#>2742>====>$$>$#XooXXX  XX*=-166gt6d6mLHBfg6666ygfkfABIIIP",
"G6-14<4<*===*#O#3BLAgt46441141144466ey6etcmiicbGLll6=-16114*==*#OOOOOOX>7=###@@@$++++++oXXX XX+#=114gt0mGAAgAAcdd6e6g6dgbgGALUIL",
"Ad=:e144*%==*#+6IUGA64e404114444446eee6edcAiciggbkGLBt,4614==1,**#OOO..XX##++++++##+XXX XXXXoo#=<416gzgcDABimcnbtdygt6iimbDAcmcG",
"mdk=4413*#*&###>JJbiy0644444444664eetieegbAydcmbbgiBLHk6e442=4=****O..OOOOO++XoXXoX   XOXXXo#*,14114yLAcmcmamBAyefiitybccAGc7<d7",
"2cg<:444=#*#+#43Akbitt64<644461146eetittfAAmmcfgccmbGLLBie44,441==**+OOOOOOOOOX  XXXXXo+##&=,4446yeytcggfddedkce4teytibmAmff3284",
">2ge=441>#=##aIIceyet6444e60446eeteteteggADnbmcccmmcBAILGgyt,1<-===*#####+XX XXX  X XXo+&1146ebGBgigdkdiye43dd0eciuttidmktt77tt2",
"7t<m14e4>#*O3Igmy0yfe46e6t6e4eeeee0ttttbAmmAAABbbkcAnmABABd6414,,=*##61-***>=+X++X  Xo++=4yeibDb66a60gegdgkcdkzBdBBcgkmft784<232",
"3237d1e41#+#BAtd1e40e44466440e6tett0fcfcg7ttt78ddu87227ttAket,4,1:*+=BIIBBPAmg4ed+.Xoo+&:4iGLbgyg64gyygcdB0qmy00ygbmcmcet772<243",
"32t241g64##=GLqy1i41446e60e6444e41dAAg727347732<>222<23222cBt44<=-*+#gAGGmlBBLKA#$.XX+#:14fLAciyd466ybcgdgdkbc04ggymyifu873t=<<<",
"33277;k60+*#mIAgyideyey0tffeyikkg4gc7222233222<<>>2<>>>2<<2ume64**#<6cttggg6cfiy+#.XXo=:4ecLkit60ii0ktcgqtigBi06bgtegcfu773t1<<3",
"43347<1m3=gByiGLfbcggddytdgfcmmem443223223<322>><<=>>>><><<22cd4e#*Bdt6eqcagfyi2+# XX#==44emAbcqq000itdetdfgkk4kdde4qdd7377t=114",
"3333e17m$=eg4tcLABbccddiigggmAmd3<232<2<2<23222<>===<=>>>>>2>7Amd#At6eeeicbgitg=#OOXX*=*=1mLLAmyqtdccyifikdymbk0idie4me73372<743",
"31<33<8m$+=-46ymAPGbccygdedmAd73<><<<><2<231332>>=>=>>>===>><8fm#<Betettikqdtgm+$OXXX*-=14iddfbggffcmifmibffcfdidyeie333738<<211",
"332<3<tfO+=<40gBALLBmmkmkBBm22232<>2<<<<==<2133>>=>>=>>==&=>2<2$X2meugmygd4dcAk+&O.XX#==16gf6eeyibmAGmbBgmiggigdfidtd7t8728<<<31",
"<3<323k7X+$#-14egLIIGGGAkAk7722222<<<<>>=<<<<332>===$$@====2t++X#=Bcbe34ei3fkG2+$OOOXo==:eAg0eteecmccgdc6fddiddkdgt3<<7u8733<<<1",
"<<<334A<XO&@=4eygAHGIIIILct822<2<<2<<=<===<13<33>==>====>=>7#  .+,JLiecggmkckk>#$O+OXX**1eBftete0fifiigeetfcifgye7<<<>3tee771<33",
"<2<2<dd$XO@#=44e6ymGIULDk7u8222<<2<<<>===<<11<14>==&$====><4X...OO72$##4tttdmt>#$O+OXX*=:eqdtddeettidiy66iyfbcit<=<<22227e7d<734",
"14332u$OOO###:46idgLmIUm7dtt22<2<<<<<===>><<1<133>=&====<<27O.OOOO+X>>=$$$=+=>#$#O++XX*=10dBg0t644ttyytty0eidci<<>2<><2327e73733",
"33331gOOOO#+#&44eimkyLGmddt8232><2<22<><=><<<<<43>=>===>2t7=O+@++#+OOOO+O+#$$#=<+O+++o==16Dky46444teet66eeiuik222<<<===2222<2733",
"3333=3+OOO###@14e0gbGGggmkt872<2<2>>===========112>>==<<8=O+@@@@++++OOOOOOO..O+$O+++#+==14kbee4444ee6e4e44eifi22>>>><>=222<<2733",
"373=$=$OOO###@;4e4dBAdtdfckt7222<>>>=<===&====;111<>>>27#+@@@@@@++++++OOOOOOOOOOO+++O#+*=-4Bkt4441t466464yitit2<<>2<>><<<<<<27t3",
"7>=$#&OOOO#+##&444iAd72288cf722<<2<>=<======<<1414<<=2>+@@@##@@@@+++OOOOOOOOOO++##oX.O+*==10Bt6641464444ey0ic232>>>>>>><<<2<27fk",
">$$@##OO++###@@141482222228tu2722<>==<=====;<1433tt22t#@@###++++####OOO++++#+++oo++++XX#*=14gie64:666446et6if222<>>>>>>>22<228t2",
"=$##+++++++###@=444><>>><<<2tk87<2>><<<<<=>>>=====>>=2+@++++++###@@##+#@######&###==,2>++#*<yB644144446466yct2222<>>>>>><22<>2>>",
"@@##O+++++####@@44=>>=>>><<<2tku2222>>===>>$$$$###$=2+@@++++++####O######+###==<3446e06*OO#*,qie4146446646tee222<<>>>>>>223&&=$@",
"++++#++++#+###@$<=======>=>=22872>>=$@$>=$++++#$@@=2#++@++++++++@&&##*****==1==<eifgBGd4=#O#*=4g6446444e6td772>2<<<><>222>=#$@##",
"oo++#++++#+###@@$&$&$=$=&&&=>22>&=@@&<=#++@@@@@@@@@#++++++++#@====#&<=>*==:,44444emGAALy,#++#*-3y644444t0eett22<<222222>=&$+#++o",
"ooXX+@++++###@@@@@$$@&$$$$$=><>&$$$>=O++++@@@@@@@@@@+++++#@&=>==&=-1=4-*=:14t46ybDKcyigAy1*#+#*=4e44444yie77e22222272>>&@@#+#+XX",
"XXX+#@@@++#####@@@@@@@@$@$&$=>&@#$>+OO+++++@+@@@@@@@++++$&=&&&*=111e3,4<=144bGLLGmig6660c61=#O#*4d6444eigu34i722t72>=&$@##+XXXXX",
"OOOO@@@@@#######@@@@@@@@@@@@$$##=#OOOO+++++++@@@@@@@+@@@@####=146166y4e644ddIGBcifgiiiiet6:-*#XO#3c4d444eutfg7872<=&@@@#++X++OOO",
"...O+@@@@++########@@########+#&++++++++++++++@@@@@@++@####&:46e06yityygyAGGcdiiii0tyiteei61=*#XX*,=e66e7ecBAdt3=$$@###+o+O.OOOO",
"OOXO#@@@@@##+############++++##o++++++++O+++#@@@@@@@++#$&&14666i4ccbBnALLHGbfitigfttttee0ece1=*O#*1=eeetBA0<=2<><>$+#++ooO.OOOOO",
"XoXo+$@@@@@#++#+#######+++OO&==*+++++O+@#+#@@###@@@@#++@3ieete6gyLKIUIUIImbcfitetttit6eteeyg4:=*+#:=5ydk>$+++o+++++#+ooXo..OOOXX",
"+++oo#&@@@@@@++++++++OOO+O#=,=-=*#++O###$$$@+++++@@@+++@6AceydcKHUUUUUILHkmbcdttttgtytte66eiy1-*#+==<Lt2$=+##+o++oXXXoXXX. XXXoo",
"###===-==$@@@@@+++++++O+#6Gk06==,<,=#$&&@@##+++++++#++#=16cAbGLUIUUUIILLAAbnmfitediyt6eeg646t01-*##%#<<$$<+#$$##++ooXXXX  XXo+#+",
"=**=,:--:1<=##+++++++#@,BImyye4411141=###+++O++++++@O+#=:40HUUUIKGLIIIILLKBmmcgxdgfitettte446d04=*oXX+=#+#$@+++oooXXXX  XXX++##+",
":==-*---=-:46y<<=O#&>4ekmALky646y44111;&$$@####+++++O+*=-4emUILLLDAIPIIIIAdmAbcbbfgittte66646tgy,=#*oX XX+#+o+oo+OO.. XXXoo##**=",
"1-1::14444411146=<0kkg00eikgde646111114:1&####+O+++++#*=14eBILDGLmmILLLGDmAAAmBBfcgdddtt6e4e46iA,1*=*#     O+#+O   XXXXoo+#&==>4",
"4444644ye4111::44444144446yAGie64444641441=@+#+OO++++#*=:1eAUAAmGmkGABmcccBALHAAmccffiyt6t6444ydy3=:=-#XXX   XXOXXXXX+++#*=**146"
};
