/* XPM */
static char *_9b92331f77648d7ac8a47f51e493b71NsQZGw6uHl1mw6lo[] = {
/* columns rows colors chars-per-pixel */
"32 32 185 2 ",
"   c #2C2213",
".  c #2F2213",
"X  c #372013",
"o  c #302514",
"O  c #312614",
"+  c #322714",
"@  c #362615",
"#  c #3A2410",
"$  c #342815",
"%  c #362A15",
"&  c #342816",
"*  c #372C15",
"=  c #3D2A13",
"-  c #382A14",
";  c #3A2A14",
":  c #3A2D17",
">  c #3A3114",
",  c #3F3F3F",
"<  c #471E13",
"1  c #521C12",
"2  c #6D1712",
"3  c #671812",
"4  c #6F1A13",
"5  c #761512",
"6  c #761612",
"7  c #701A13",
"8  c #49290E",
"9  c #4B290E",
"0  c #532609",
"q  c #52290B",
"w  c #572909",
"e  c #56290A",
"r  c #40301A",
"t  c #41311A",
"y  c #42321A",
"u  c #622805",
"i  c #632805",
"p  c #622806",
"a  c #642805",
"s  c #682A06",
"d  c #6A2B06",
"f  c #6F2D06",
"g  c #752F07",
"h  c #7E280A",
"j  c #773007",
"k  c #18513A",
"l  c #464F0D",
"z  c #4A520E",
"x  c #4E590F",
"c  c #535E0F",
"v  c #444910",
"b  c #515513",
"n  c #505810",
"m  c #505E17",
"M  c #685D0C",
"N  c #546709",
"B  c #556709",
"V  c #556809",
"C  c #5B6F0C",
"Z  c #5D6F0E",
"A  c #5E720B",
"S  c #5E720D",
"D  c #5F740D",
"F  c #56651A",
"G  c #61750E",
"H  c #63741D",
"J  c #6A7D1F",
"K  c #465D3E",
"L  c #695433",
"P  c #7C623E",
"I  c #2B3F55",
"U  c #0D6A4F",
"Y  c #0C6B50",
"T  c #0E7457",
"R  c #2F6245",
"E  c #2A4D78",
"W  c #2A4E78",
"Q  c #2A4E7A",
"!  c #265275",
"~  c #275678",
"^  c gray28",
"/  c #494949",
"(  c #8B190F",
")  c #8A1A0E",
"_  c #981E0F",
"`  c #861311",
"'  c #8F1111",
"]  c #901111",
"[  c #911111",
"{  c #941212",
"}  c #991212",
"|  c #9D1313",
" . c #9C1911",
".. c #A11413",
"X. c #AD1414",
"o. c #AD1515",
"O. c #AE1414",
"+. c #AF1515",
"@. c #AB1D12",
"#. c #B01515",
"$. c #B11515",
"%. c #B31515",
"&. c #B41515",
"*. c #BB1616",
"=. c #BC1616",
"-. c #81240B",
";. c #8D200D",
":. c #A22010",
">. c #887D08",
",. c #897E08",
"<. c #836941",
"1. c #8A6B40",
"2. c #947241",
"3. c #9B7742",
"4. c #9B7842",
"5. c #9C7944",
"6. c #9C7A44",
"7. c #9C7B45",
"8. c #9D7D47",
"9. c #9E7E48",
"0. c #A17C46",
"q. c #69800F",
"w. c #6A810F",
"e. c #6C840F",
"r. c #6D850F",
"t. c #7D880E",
"y. c #6E8610",
"u. c #6F8710",
"i. c #758E11",
"p. c #108463",
"a. c #108564",
"s. c #118E6B",
"d. c #6A827B",
"f. c #84820A",
"g. c #918609",
"h. c #9F9209",
"j. c #9F930A",
"k. c #9B980C",
"l. c #A0940A",
"z. c #A89B0A",
"x. c #9E804A",
"c. c #9E814A",
"v. c #9E824B",
"b. c #9F844D",
"n. c #A5824C",
"m. c #A6824D",
"M. c #AD874D",
"N. c #A68952",
"B. c #AE8954",
"V. c #B38C51",
"C. c #B38D52",
"Z. c #B48D52",
"A. c #B48D53",
"S. c #B69056",
"D. c #B69057",
"F. c #B09059",
"G. c #B79159",
"H. c #B79259",
"J. c #B8925A",
"K. c #B8935A",
"L. c #B9945C",
"P. c #B9955D",
"I. c #BA955E",
"U. c #BA965F",
"Y. c #BB9760",
"T. c #BB9761",
"R. c #BC9761",
"E. c #BC9862",
"W. c #BE9A63",
"Q. c #BF9A64",
"!. c #C6A065",
"~. c #C8A269",
"^. c #C8A36A",
"/. c #2C5485",
"(. c #2F5788",
"). c #315B8E",
"_. c #2F5C95",
"`. c #2F5D98",
"'. c #2F5E99",
"]. c #3163A3",
"[. c #898989",
"{. c #84A199",
"}. c #8CABA3",
"|. c #AAAAAA",
" X c gray71",
/* pixels */
"V.V.N.E.E.E.E.T.Z.V.V.m.V.V.V.V.V.V.K.E.V.T.E.E.E.R.V.V.V.b.V.V.",
"V.V.b.b.b.b.5.3.3.3.3.P 2.3.3.3.3.3.3.b.v.5.b.b.b.b.4.3.3.9.V.V.",
"V.V.+                                           /._.(.Q   $ V.V.",
"V.V.$ $ $ $ $ $ $ $ $ $ $ $ $ $ $ $ $ $ $ $ $ $ '.].).Q $ $ V.V.",
"V.V.$ : t t t t | $.+.' t t t t t t g.l.j.,.t t '.].).Q $ $ V.V.",
"V.V.$ : t t t t $.=.=.[   t t t t t l.z.z.,.$ t '.].).Q $ $ V.V.",
"M.M.| [ i s i t $.=.=.[     t t G Z |. X X[.[ [ '.].).Q T U M.M.",
"3.3.$.[ f j s $ $.=.=.[       b i.n |. X X[.[ [ '.].).Q a.Y 3.3.",
"!.!.$.[ s j f $ $.=.=.[ /.Q   S u.* l.z.z.,.[ [ '.].).Q a.Y !.!.",
"V.V.$.[ a j g = $.:.j j '.Q   w.D $ l.z.k.f.j j '.].).Q a.Y V.V.",
"V.V.$.[ i j j 9 $.:.j j '.Q v i.c $ l.z.i.i.j j '.].).Q a.Y V.V.",
"V.V.$.[ e j j e $.:.j j '.Q S u.> $ j.z.i.i.j j '.].).Q p.Y V.V.",
"V.V.[ [ 9 i i i [ ) h h Q Q S S $ $ ,.,.t.t.) ) Q Q Q Q Y Y V.V.",
"V.V.' 7 ; i 0 # ' [ [ 2 Q I x n $ $ ,.,.,.M ' 2 Q Q Q I U k V.V.",
"M.M.B.U.U.E.E.~.~.~.~.~.E.~.E.E.U.U.U.U.U.E.E.E.E.E.U.U.U.P v.v.",
"3.3.0.V.V.D.K.E.E.E.E.E.E.E.E.U.V.V.V.V.U.E.E.E.G.V.V.V.V.P 3.3.",
"V.V.0.V.V.V.E.E.E.E.E.E.E.E.T.V.V.V.V.D.E.E.E.Z.V.V.V.V.V.P V.V.",
"V.V.3.3.3.3.8.b.b.b.<.b.b.v.3.3.3.3.5.b.b.b.5.3.3.3.3.3.3.1.V.V.",
"V.V.+                   A w.C N                           $ V.V.",
"V.V.$ $ $ $ $ $ $ $ $ $ r.i.S V + @ 1 $ $ $ $ $ $ $ $ $ $ $ V.V.",
"V.V.| $.+.[ t t /._.(.Q r.i.S V [ +.&.< t t A w.C N t t $ $ V.V.",
"V.V.$.=.=.[ $ t '.].).Q r.i.S V .._ =.`   t r.i.S V $ t $ $ V.V.",
"M.M.|. X X[.Y U '.].).Q r.i.S V i i =.}     r.i.S V T a.p.U m.m.",
"3.3.|. X X[.Y Y '.].).Q ^ / , , 9 i *.$.X   r.i.S V a.s.s.Y P P ",
"!.!.$.=.=.[ Y Y '.].).Q ^ / , , $ i ;.=.6   r.i.S V |. X X[.!.!.",
"V.V.$.=.@.) Y Y '.].).Q ^ / , , $ i i =.{   r.i.S V {.}.}.d.V.V.",
"V.V.$.=.j j R R '.].).Q ^ / , , $ q i =.+.  r.i.S V a.s.s.Y V.V.",
"V.V.$.=.j j L L '.].).Q H J F m $ ;  .=.+.3 r.i.S V p.s.~ ! V.V.",
"V.V.[ [ -.-.K K Q Q Q Q V V V V $ $ [ [ [ [ V V V V Y Y Q Q V.V.",
"b.b.' [ [ 2 U k Q Q Q I N V V z $ $ 4 6 X   N V V l U Y Y k V.V.",
"V.V.F.E.Q.~.~.~.~.~.E.E.E.U.U.U.E.E.E.T.U.E.E.E.E.U.U.U.U.b.V.V.",
"V.V.N.E.E.E.E.E.E.E.G.V.V.V.V.V.V.K.E.E.V.E.E.E.E.U.V.V.V.b.V.V."
};
