/* XPM */
static char *result[] = {
/* columns rows colors chars-per-pixel */
"128 128 81 1 ",
"  c #A96F6B",
". c #AC726E",
"X c #B0736F",
"o c #A67571",
"O c #AE7571",
"+ c #AE7A75",
"@ c #AD7D78",
"# c #B37672",
"$ c #B57975",
"% c #BA7A76",
"& c #B67D79",
"* c #BD7D79",
"= c #C17E7A",
"- c #AE817C",
"; c #B1837E",
": c #BD817C",
"> c #C4817D",
", c #C9837F",
"< c #B28681",
"1 c #BB8681",
"2 c #B48984",
"3 c #BB8B85",
"4 c #B68E89",
"5 c #BD8E89",
"6 c #B6928D",
"7 c #BE928D",
"8 c #B69691",
"9 c #BA9691",
"0 c #B79994",
"q c #B99995",
"w c #BF9F9A",
"e c #C58581",
"r c #CB8681",
"t c #C58A85",
"y c #CD8A84",
"u c #C18F89",
"i c #CD8E89",
"p c #D08B86",
"a c #D28E89",
"s c #C0938D",
"d c #CE928D",
"f c #D4928D",
"g c #C09691",
"h c #CD9791",
"j c #C29A95",
"k c #CF9A94",
"l c #C29E99",
"z c #CF9F99",
"x c #D49691",
"c c #D89791",
"v c #D39C95",
"b c #D99B95",
"n c #D49F98",
"m c #DA9F99",
"M c #C4A19C",
"N c #D6A29C",
"B c #DDA39D",
"V c #E0A59E",
"C c #C2A4A0",
"Z c #DCA6A0",
"A c #D6AAA4",
"S c #DEAAA4",
"D c #DDAEA9",
"F c #DCB2AD",
"G c #DAB6B1",
"H c #DDB9B3",
"J c #E0A7A0",
"K c #E2ABA4",
"L c #E3AFA8",
"P c #E4B3AC",
"I c #E6B7B1",
"U c #E7BAB4",
"Y c #E8BCB6",
"T c #E6BEB9",
"R c #E8BEB9",
"E c #E7C2BC",
"W c #E8C2BC",
"Q c #E7C6C1",
"! c #E8C6C1",
"~ c #E7C8C3",
"^ c #E8C9C3",
/* pixels */
"y,>=>%*%#%*>*=>=>,,yyppr>=>>==%%**==****==%**==**===>rr,rrrrrrrrrrrr===er=rrrrry,ypppapyyyyyy,,,yyyy,,,y,paapp,,,>##=>>>,,>,,,pf",
"=%..OO..#&%*%%&&$$%%%&&OOX+#OOO.OOOOO.OOOOO#O#....##%%***&%%*%*%***%%$*==**&**==>:>::*%:%&###.O...O##$$*X#%%%%O #O%>:>>%:XOO.O$,",
"=OAAANNZABABNBANNANNNNBNNNNNNNNBBNNNBNZNNNNBNvNbNNvNNNNNNNNNZNZNNZZAAZZAZZNZNNBNNANNNNNBNNNNNBNNBNNNNNvvNNNNNNBNNBNNNNNNNNBFGG6>",
",#PIIRW!!!!W!!EEW!WEEEEWWEEEEPPKKVJVBVBJJJJZLILPLVJLJILZUYTEKIQYUYRRQQQ~QTTYYQQQE~EE!!!!WPPPPIYIEEQEWYPYEEEUUUEEEWYUPPPUUEEUEW0>",
"r&SLIUWW!^!!!WWWWWWWWWWWYWWWEEWEYIURYWWRWREYLLLLZvcxZBZJBBIZLKIRTTTHETHUIHUDLIHIEETTLZKVLLLSDKZLDPLDPLLFLLLLLKLLLBSLBBKSLLJZSD2>",
">#SLKKPPLPPPPIUIIYYIUIPUIYYEEEWWWWWWWRWRWRYYYURYUITRUPPIYTQEEITRTHLYGETIIUUUUIHUUUHUUYUUPLSPIUYIUIIUIPbLKLDPUULIPEIPIPPIIYEYE~6>",
">OBVBVJLKKKLLKLLPPPPPPPJLPPIIYYIUYYUYYRRYYUUIUUUIUIUIYETTWEUIUPLIIUDILUInKUUIIIUUPUTYTUYYYTEPEYEYYYTYYYEUYEUYEYUUEUUEUIIIIIUWW6$",
",#SJLPLLKKKVKKVVJJVVVJVLLLJKJJJLLLPPPPLPPPPPPPPPPPPPILLPUUIPPLLLLLLLLLLLLLKKLUILPSPYYYRYYYIUUUUUUUUYYIPLEEYEYIWWULPLLKULYYYUUU2X",
",ONBVLLKJVVVVVVBVVVVVVVVBVVVVVJVKVKVKLKKKLLKKbLfJPPPPKKLKKKZVVVmbVVVVVmVmBBVJVJKKKKKPIIYUUUIIPIIPIPPPPIIPPIPIPPPPIUKUUPVSIPPIL-$",
"p:ZVVVVVVVVVVVVVVVVVVKVKVVVVBVVVVKVVVVVVVVVVJKVVJJJLPIPKLKJBVVVVVVVVbmVmVKVLKVJJVVVVVVVVVKVKKPPIIPLPPPLVVVVVVVVVVVVKVVVVJBJJKc;*",
"f:IPKKKKJKKKKKKKVKKKVKKKKKLLKKKKKKLLPPPPPPPIIIIIUUYYRRRYIPLKVKKKJKKKJVVKKKKKKKKKKKVKVPLLPKVVVKVKLKJJVVJVVVVVVVKVVKVVVLKLIUPPPI6,",
"x1UPLLKKKKKKKKJKKKKKVKKKKKKKLLLLLLPLLLLLPPPPPPPPPIIIIYUIIIPLKKKKJJJJKKKJJJKJJJKKKKKKKKKKLKLLLKLKLLPPPLPLPLLLKKLVVKKKKLLWWYPLLJ6,",
"p:NJLJKKLKKKJLKKLKKKKKKKKKKKKKKLLLLPLPPPPPPIIIIIIUUUUYUIIPPLLKKKKJVVVVKKbJKKKKKKLKKKKKKLKKKLKVKPLPLPJPJPLLLKKPKPLKKKKKKKWWPLKKMp",
"f&BVVLKVVVVVVVVVVVVVVVVVVKVKLLLLLPPLLPPPPPPPPPPPPPPIIIKULJLLLKKKKKJJVVVVKKVVJJJKVVKVKKKKVKKKLKKKJKLLKKLPLLLLPKKPLKKKKLKKVVVLLPM,",
"f:NVVKPLLKVVVVVVVVVVVVVVVKVKKVKVVKKVVVVJVVVVJKKKLLKLLLLLPLLKKKVVVVVVVVVVVVVVVmBBVVVVVVVVVVVVVVVVBVVVVVJJKKKKVKKKKKVVVVVVVKVVVtua",
"BeDJKPPPPPIIPPPPPPPLPPPPLPPLPPLLLPLLLPPLPPPIIPIIIUUUUYIIUUUIPPKKKKKKKKKKKKKKJKKKVKVKVVKVKKKVVVVVJJVJJJJKKKKKPKKKKLLLLLKVKKLVVLMy",
"BtPIPIWUUPIYIUIUIKIIPUIIIIIIIIIIPPIPPPPIIIIYYYYYUWWUUWWWWUYYUIIIPIIPPPPPPPPPKPPKKVVVVffVVKKVVKVKKKKKKKKVVKKKKKKKKVKVVKVVVKKVVKMa",
"BtHUWEWWWWYUUUUUUUUUYUIIIIIIIIIIIPIIIIIYUUUIIIIYIIIUUPEUIUPIIIIPIIIIIIPIIPPPPPPVKKVVKKKKVVVVVVVVVVVVVVKKKKVVKKKKKKKKVLPIWWYYYPMp",
"c:LBVVVVVVLPPPLPLLLLKPPPPIPIIPPPIYLYYYYYUUUIIIIIIIVUKPKLLLLLKPPPPIPIIIIIPPIPPPPPPKPPLVLLVPPKKKKVKKVKKLKPLPPPIIIIIIUUIIIWUIPPPPMf",
"c:DVVKPIPPLLLLJLKKLVPKPPPPPIIIYYYYUIPYYYYUUUYIIUIWWUIPLVKKKKLPPPPPPPPLPPPLPPPLPPPPPVLPLLKPPPPPPPPLVPPIIKIIPWIIIIIIIPIIYPPVVVBVka",
"c:SVVKLPPPKKKKVVVKVKKKKKLLPPIILPPIPIPPIUIPIYUIUUUIIPLKVVVVVVKJKKKKVKKVKKKVKKKKLLKPPKLKLVKKVPPPPPPPLPPIIKIIWPIIIIIIIIIYIPVVVmBBlp",
"c-BVVVVVVVVVVVVKKLLKKLKLLLLPPKVPPPPPKKPPIPPPIPPPPPcKVVBVmVVVJJJKKKKKKKKKKKKKKKKVKKKKKLKPPKKKbPPPKIIIIIIIIIIPIPPIIIPPUIPVVbVBVBj,",
"f&NVVVVVVKLLLLLKKKVLKKLKVVVLPKKPLPPLPLKPPLIIYYYYYYWPKJVVVVVVVJJJVKVKKLKKKLLKLLLLVPPPLPPPPPPPKPPPIIIIPIPPPPPPPPPPPPPPPKVVVVVVVBj>",
"a:DKKKKLPKLLKKLLLLPPLKLKPIPPPPPVLLPPPPPbPPPIPPIIIIPKVVVBVVVVVVVVVVVVVVVVKVKKKKKKKKPPIIIIUUWVUWYYYIYIYPIIIIPPPKPPPKPPUPPVVVVBVDs,",
"a:NBKJKKVLLJJJJKBcbVKLVBVVVPKPKKKKLLLLPLKPIIUYYYUPLKLKVKJBKJJKJbVVKKKVLJNVKJPPPPKPUYWUUWYULUWUWUYIYIIIIIIIIPIPPPUPPUUULLVVVVVV5>",
"p%SJJKKLPLJLKKJKKLLKKVLLLLPPPKKPLKLPLPPPIIUURWEWWWEUPPLLLBBLJLKBKLVVJJJdVbJLPPPPKUIUUUYYYKUWUWUUIYIIYIPPPPPPPPPPPPIPPPVBVVVBVBM,",
"y$SBVVJPLPLLLLLKLKLLKbZLPPPPPPWPYUUUUIYTIILvNBNBBVKKIIPPLLBPLLBbVVVVBByBVfBVVKJKVPKKKLPPIPPPPPPPPPPLLLVLLLLLLLLPPPLLLPPLVVVVVBg=",
"a:SBVVVVJJVPPIUULLDPPLLBVKVVBBVVmdxvmIUIYIPJLITYWEEUYIPPLVVVVfpVVVVVVBfBVBrVVVVVVVVVBVVBVVVVcVBBVVVVLPIIIIIUWIWIUEEE^EEEWWEUYIjX",
"c$DKLLLPPUPPLPNBJZPIIPPUIUUUUUUUYLEEWYUUUUIIJIKPPUUYYLIPPPPLKBKPPLPLLcKKVdBKJVJKVVVBVBBBVVty,NBBVVLPPPPPPIIIEWWWEEEPPLLELKLBVBs%",
"f%FLLKLLPPYIILLDLBvPLUYPPKLBBLLPIZUTTRUUYRRYYEEYWYWWWEE~WW!!WWWWWWEEIJBTBEEWEEEEWWKUIIPIPLUPUEUUEWWWYYYWWWWWWWWWLVVLVKLLLLPLPLj:",
"f:wjMjjjjMjMMMMCqq82622642664422<;;;<<<;<;;;;;;;;;;2;47777777777d777712;2262626sgsu3333t3t53;;<;;;;;;;>:;;;;:53::35557qMM9jMjsM*",
"cfydyydfaiidffffdiidi,>>>O%:%%OO####%%%%$%#$%%*%%*%*>.**=:***:>>>>:>**%>=******%%#%X$#%####X...OX...XX.XXX+ OOX++O%$%%%$$%%:>,,#",
"cfffypppffafafffffffaadyy,,,>>>>#%X.X>>>>>>===>=**=*X=>**=>=>,,,,,,,>,,,,,>>=***%%%.%%.%=%=#.#%%:%%>>>>=>$%=%%:##:>>>%##%%%%##%%",
">,,>=>>**=>>,,,,,t,y:,,::::%.##O...O##X##X#X#$%#....XX...XXX$$*=,>>::%$$>%$$%>#OO.OoO.X..X#X...X#X#-%>:#$$##XXXX###X%:#>==%#%%%#",
"NMNNNMkNvNkNNNNNNNNBBABNBBBNBNNBNvNNbvvNNNNNNNxvNvNkvdkk1;:676s>,%NhkkNcNNNNBNpBBNBBBBVBNNNNNNBNNbNbbNccBbbbcbNkvvxhkkkNkkNkkNNk",
"PPUEEE~~WWEUUEEEEEWEEEEWUKLLKKLKPIYIUUUUUPPPPPPPUIIUPPPPIUUIIIMpa:LPPPUWYUEYUIYYUUUUEUYWUWWWWKKVVVVVVVVVVVVKKPBPBVVVLPVBPUUEBLWU",
"PUUHUHUFFFPDAFFPWUEEVVLVDSSBBBbNBtNBBBZZZZJZZZLZBBNJbNZBZZBcNNspp:BVKLPIUIUUIIIIPIIUIIIIPPUUYWWUEPIIWEEEYWIIKKVVBdfdNcBBcNLBBNBU",
"UHSUFUTHPIUUPPPPPPLPUIIPPBKVDPLLLLLPLLJDLLLLPLJPKIPKPPLPPIIPPB3,,-BVKVLLLKKLKPIIUIUIIUUUKPUUUWYYWWWWEEEEWYYPYIPPPIIPPKVPPUUIIEUE",
"PYELIPPPLLPYPPPIUPPPUUIIUUIUUUIIPIIPIUIIIUIIPIIPIUUPPPPLPLLKPI7>,oSVVVKPLLLLPPPPPIUUUUUUUWWUWWWWWWWWWWEEWYYPPKKPDLLLPPUPPPUPPUPD",
"PPPPPPUPLPZPPUUPPKPUWUYILIUUILVUIYYYYYETWWTEUIYYILPKLKILIPPLPY7>,oPPIUIPPPPPPPPPPPPPPPPIUUPPPLLLKEWIWWPIYYPPKKKVVVVLLVLVPLPPPPPP",
"VVVKKKKVBJLKLPLLLPLLIYYYYWYYYYYYYYYYYYWYYYYYYYYUUUUBIYPBJLLPEP:>,$DBPIIPPPKPPKPLLLLLLBbVKPKPVPPKKKKPWPWWPKJKVKKVVKVVLVVVSKKKLLVV",
"LKKKKKPKPPPIPPLJKKKKKKKKKKKPPIIYUIIPUKIPJLVVKVJJLVVKVKVVJVJZPB3,a:PIIPLLLKVKKKKKLKLKPPPPPVVVVKPPPPPPLKKLLPPPPKPKLVKKPPKVPLLKKKKK",
"WWWYWIIYUPYYYYYYWIIIIYYYIPPPPKLLPKKKKKVKLNKLKLPLLKLLLPLPIWEYWEjpf5EEWUWUUUYIUUYUUIIIIIIIIPPPPVPPPPIEWWPWWWWWWWWWWWWWWWWWEYUIIUWY",
"YYYYWWWYYYYYYWYYYIYIIIIIIIIIPPPPIPIPKPPLJLLPLLPLKLLLPLPWWWYYYTjpc5^EWWUWYYYYYIIIIIIIPPIPPPPPPPPIIPWPPPWWIIWWYIWWUIUUUIUWUEWWWYYY",
"IUUIUYYYYPYYYIYYYIIIIIPIIIIPIPIIIPPIPPPLLKLLLLLLLLKLKKKVIUIIIUNpx:DPPPUUYUYUYIYYYYIIIIPPPPPPPPPPPPIPIIWPIIIIIIIPPPIPPIPPPIPIIIII",
"PPIPLPPPPPPPLPPPIIIIIIIIPPIPIIPPPLLPPPKLLVLLLKKLLKVJJJVVVVJPPUM>,:BKKUPLPPPLPLLKKKKKVKKKKKVPKKPPPPPIPPPPPPPKKKVKKKKKKPPLPLPPLPPP",
"VKKKKLLKLJKKKKLLLKLLLKLPKKKVKVKVKKKKKKKKKKKVKJKVKVVVVVBVbVVVBikri:KKLPPUIPPPPPPPPKKKKKVKVKKVVVVVVJKJVJJJVVVVVVVVVVVVVVVVVVVKKVVV",
"PKPLLLPPPPPPPPPPIPIIYIIIIIPIPPPPLPLLLLPLKLKKKKKKJKJJKJVVVVBVBPv>,-LKPPUUYUYYIIIIIIIIPPPPPKPKKPKVJJJJJJLKKVKVVVVKVKKKKKPLKPLPLPLL",
"PPPPLPPPIPIIIPIPIIIIIIIIPIPPIPPPIPPPIIPLLLKKKKJKVVVVVVVBVVVVVBv>,$PPIUUEUUUUUUUIUIIPPPPPPPLPPVKKKKKKKKKKKKKLLLLJKLLLLLLLLKLPPPPP",
"KLLPPVPPPPPPIPPPPPPPPPIIIPPPPPPPLPPLLPPPLLKKKVVVVKVVVKKLIIPPPLx>,+PIUEEWEUUPIIPPPPPPIPLKKVKVVVVVVVVVVVVKKLKJVJJKKKKKKKKKKKKKVPKK",
"KLKLPPPKPPIPPIIPPPIKIIIIYYYYIIIPIIIIIIIIIPIIPPPVPIIKPPPPPJLLLLk>>oDVVVVVVVVLPVKVVVVyVKKKKVVVVVVVKLKLPPLLLLKKJJJJKKVKVKKVKKKKKVKK",
"PPPPPPPPPPPPPIPPPIIIIIIYIUIYYWWWRRRRRYYYIUIIIIIPPPPKPPKKJJVVJZk=>:SVBLPPPPPPLLPLKKKPKKKKVKLPKPKPPPLLLLPPPLLLLLLKKKKKKLLLLLPLPPPP",
"LKKKKKKPLLLKLLLPPPPPPPIIIIIIUUUYYRRRRYYUUUUIIIIPPPIPLKKKJLBVJBvrp:ScBPIUYIPPPPLKKKKKKKJKKPKPPPKPLKPPPVKPPLPLLKKLKVKVKJKKKKKKKKKP",
"PPPLPPLPPLPPPLPPPPPPPPPPPPPIIIIIIIIYYYUUYYUIIIIIIPLLKKVVJJVBJNNff:BfBBVBVVKPVKKKPPPKLPLLKPPPPKPPLPPVLPPPPLKKKJJJVVKVKJVKKLKKKPKK",
"KLPPPPPPLPLPPPPLLLPLLPLPKPPKPPLLPLLPPPPPPPPPPPPPKVVVVVVVVBBBJZd=>#BBVVLLKPIIPPIPLKVPLVPLVVKKKKKKKKLLLPPPPPPPPPPPPPIPLLKKKKPKPKKP",
"KVKVKKVVKKKKKVKKLLLLLLLLPPPPPPPPPLPLPPPPPPPPPPLLLVKKVKVVJJJJKPs,p&BLKPPPIPIIPKPPPPIPLLLLPIPPPPPKPPLPLPPPPPPLKBJJKVKVVVVKKKKKVKKK",
"PKLPLLLKLLLKLKLKKLLLLLLLLLLLPLLLLLLLLLPPPPPPPPPLLVKLLKKJKKKKLP7=>$BVNVVKKPIKPKKKBcbJJLVJJBJLLLLKKKKKLLLLPPPPPLLLJJJVKLLLPLPPLKLP",
"PPPKLLLLLKKLVKKKKKKKKKKKKLLVKKJKKKKKPJJKKKKKJLJLLKKKJVVVVVVVVL7*>+LKVLPPUPPPKKKPLLLVKLKKLLLLKLKLKLLLLLPPIIIUIIILPIPPLLPPIPKPPPLP",
"PVVVVVVVVVVVBVVBVVVVVVKKKLVKVJJKVVVVVVVVVVVKLJJKKVVVJJVBBBVVJZ3.OODVVVKPPUIIPPVKKKKLJZKKLLPPPPPIYIIUKPIUIILvmmxvvbbBLPPPPIPIPPPP",
"VVVVVBVVVVVVVBVVVVVVVVVBVVVVBVBBVVVVLLPPPPIPPPIIIKYREEEEETTUTIs#%oBVVVcBVKVKIUWWLLJLPPLNBBBbbbbNbcfcmIUIRIULLIUIPPPPPPLPKKKVKKKV",
"KKVKKVBVVVVVVVBVVVVVBVBBVVBBBVBBVKLPPPIIUUYYWWWWWWWPLLLUKBJJJJ3X#.BBVLLLPWPPPUVVKJPPPPPIPIYUIPYTEEEQW!W!WWREREEEWRYUYIIPIPPPPPPL",
"WWUUPPIUUIWWUWWWWYWUUITYEUEUEWEWWWEETRWWWWW!~!EWLPPPPPIPLKKKJBs%>%BBVVVVVKPPPKKKLNNPLYEPYPLAPLUTT~~~!^!W!W!^!~~!^^^^^E~~~~^EUWYW",
":;;;2;222;2;;222:;222;222;232222u3244442444424223344888888684<j*>#q977ssss9jqwj0006462668800880662<2<;22<<<<2<<22<<<;;;22-;2;;;;",
"%%$#$%$$#%$O.#XX%%#X.  ......... X.X.X##%#XX...XX***O###$%%%%**%%:#:%::%::%:>:>,eeyy:>>>#*****%##X#####XXX# $.#*=*%%%$#X$$%$%%*>",
",>>>>tr,>,,>>,,>>>>X>>>>>>===>==##%%%:=>%%O##OXX#%X===>,ppp,,,,,>>>,,,,,p,,,y,ppyyffaprr>,>========>,e,,,>>,,,,,,,,,>>>%%%*==%%%",
",:$O....O.....O.XX##OO.X...X.OXXXO++.O.OOO#+$$#%%$%:>:::%%%-%%%%%%#%$$%O#%$$::%>>eerrrrr>ee>&**&**:ee>>=>:::***:>:,,,,>:&&&###:>",
",:FNBNBNBNNNNBBNNNNNBNNNNNNNNNBBNBBNBBNBBBBBNNNNNNNNNNiNNNNNBNNMNNNNkNNNNNNNvNBNNZANZNZANAZZZZAZZABNNZABNNBNBNNNNBNNNvvNNNDHHFv%",
",&EPLLPIIIIIIUIIUPUIUKUWYEYWWLKVVVVVVBVVVVVVKPKPVVVKKPLLUUWEPUEEUUIUSUEWWUPPPEEWTWEEEQQEUDPPIURREEQQQQQEEEEEYTEEEWEEUIIUYTRREYk$",
">$UZVVKLJPPPPLPLLPPLPLPPPPPPPUYIPLPUWUWELUEIKKVVBxcdBBVBBBPBKKPKHUUHDPFDSDFSBDLLIUHIbAJVLKLSLSZSLZDPDLLPLLLLLLDPLZKLBZPDLPZAAZk*",
"y&FPKKVVBBVBBVKKVKKKLLKLLLLLPPPPUUIWUUUUEUUVPUYIIUUULPLIUEWWYWWWEELPDUPPDLPPPFSLLPPDPUPPPZJLPIIILPUUTLKDLDDIYILIPEIPUIPUIYYYUTk>",
"i:UPJBBVVVBVVVVKVKKKLKLKKLLLPPPIIIIIUUUUIIPPPPPPPPPIIUWUUUEEWWWYEEEDLSPKKVPILLLPPPPPPPIIPIUYUUTYUYYYYTLTETEYYEEYEWEEYUIIIIPPPTk%",
",$TEWWKLVVVVJVKJVKVVVVVKLLVKKVKLKPIPUPPIPPLLKKKKLVKPIVKLIIUUYYYWE^EPLLLLKLBKPPPPLZPIYPPIIIPIIIIUIUUYYTWEEEEEYTYEYKILPDEPEYUPYTk$",
">$FPIWEPKVJVJKVBVKVVKVVVVVVVVKKVKKVPUIIIPKPKKVKVKKKLPBVKKPPPPPPLPIYPPVVVVVVVKLKKKLKKPLIUIIIPPPPIPPvIIIIIIUUIVIUIPIUPIYPBZPPPEPk%",
">:HUUUIWKLKKJKKVVKKVKPKPPKKKKLLPPUPPPPPKPKKPKKVVVVVLPLLLPPKPPKVKKKPPIPKVKPLPPVVVVVVVVVVKKKVVKKPPPPKLPPPVVVVVKVJKLJBJJJJVVBcJPNd>",
">;EEWYWWWWWWWWYYWWUWWUWWRWRWWYYYWWUWYUUIPUIUYUYUUUUUWUUUYYYPPUYWWWWYWIUWIWUUUUWUIPPKPIPPPLKKVVVVJJBVVVVVVKKVVKKKJLPJLLLJPIUYIEk%",
">:QEWWYUYWYWWWWWWWWUYWYYYYRYYRWWWYUPPPKKPKPPPPPPIPPIIUUUIYYWYIIYUPUUWYYYUUIIIIIPIIPPLPLLLLLLKKKVJKKJKVKVVVVKKKVVJJVVJVLUYIIIIDh%",
"r:DPPPYWWWYWUWWWWWWUUUYUYIIYYRRRUPKVVVKPPKPPPKPPPIPPKIPIIYUYIYUYYYYYYWYYUWUUPVIPPKPLKLLKKmVKVVVVJJVVJVVVKVVVpVVVVVBBBBmVPPUUUUk%",
">$FPPUUPIPPPPVPPLKVPPPIIIIIYYWWYPKVVVVVVVVVKVKKVKKKLLPPPIPIIYYYYWYWYUIIPIPPPPPPPLLKKKLVJVVVyVVVVBVBVVVVbVVVVVVVVJVBBVBVVJcfBITNy",
">$UPIW!!WWYUYUPKIUUUIUPIIYYIYYPKVVVVVVVVVVVVVVVVVVVVVVVKKPPPPPPPILIUYYUPPPPVKKVVJVVVVVVVcVVVVVVVVBVBVVcmVVmVBbVVVVVVBBBJmVVVB1d>",
"r$PPPIUWYWWWWWWWWWWWWWWWWWRRYIPLKVVVVVVVVVVVKVKKKKKKPPIPIPIYIIIIIIIIIIIIIPIPPPPPJLLKLJLJJVVVcVVVV>BBBmVVVVVVVVVVVVVVJVBbrfBBJPk>",
"&+PPPIUUIIIUIIIYPUUUUUUUUUUIIIPLPKVVVVVVVVVLLLLLPPPPPPPIPIIIIPIIPPIIPIPPPPPKPVKPKKKKKKVVVVVVVVVVVVVVVVVVVVVVVVVVBBVmVamVmVVBVZn>",
">#DPPPUWUPPLLPPPPLLLPPLPLPPKLPPLKVVVVVVVVVLVVLLLLLLPPPPPPPPPKPVKKVVPLVLVKKKPKKKVKVVVVVVKVVbV>VVVVVVVVVVVVmVVBBVVVVVmVVKPPPPPfLvy",
",ONVVJJVVVVVVVVVVVVVVVKKKKKKLKKKPPPKVLLVVVLVKKVLJPLPLPLPPPKKVVVVVVVVVLLVKLLLPPKKKVKVKVLLKPVVVVVVVVVKVKKKVKKLKVLLPKPLKVamaVPPLBkr",
"y&BVVVKLLKVKVVVVVVVKKKKKLLPPPKLIPPPPLLLLPPLPPPPPPPIIILIUPPPKKKVKVKKVKLVLKLKVKVKPPPPPPPKPKVLPVVKPLPPPLPLPbPKPPPPPKPPKPPPPLJLKKNx*",
",#BVVKKJPKVVVKKVJKKJJJJVKPPPPIPIPUPIPVPPPIPPPLPIIIIIIUULPPKKVVVVVVVVVVVLVKKVKBLLVBVVPPLPPLKVVPPPKPPIPPPLLPIIIUUIUUKIUULYUxLKJBk*",
"yONVVVVVVVVVVVVKLLLLPLPLPPPPPIIIPIIIILIIIIIPIIIIIIUUYYYIIPPKKVVVVVVLVLVLKLLPLPPVfPPpKPPPIIPIUUUUUYYULUIYUIUIIUIIIKPIIKPIILLJJBh=",
">OBBVBVVVVKPLPPLKJJPLJPPKKPPPIPIIIIIYIYIYWYYYWWWWEEWEWEIPPKKKVVVVVVVVLLLLLLPVIUPPLUPKUIIULIIUIUIIIIKIIPPPPPPPPPPKLPKLPLPPPJVVNh>",
",#SKKcKLPLPLLKLKLPIPLPPPPIIIIIIIUUUUUYWYYYYYYYYWYYYUUUYYPKKVVVVVVVVVVVVVKKKKBLLLrfIPPIUIUIUUUKUUUIKPIKIIIIIPPIPPLPLPPIPPImPKVSh=",
",oBVVVKVVPKKKKKKZNbLLLKJKJLPIIPIPUUIUPUUYWUWWWWWWIIIEYYYUPLKJJJJVVVLKKKKPLPPcUPVvbidUUUPUUIIYBUUImKILIIIPILPIJPVPIPPPPLPPPYZLSny",
"y:BVVVLPPPPPPPPPPPPPPPPPPIIIIIIPUPPPIUUUWYWWWWWW~EEEYUYYWULLLKLLPPLLPPLPLPPPPPIPPJPPUUUUUUUUUPIIKKPPKPPPPPPPLPPVPPPLLPLLBPPPLJxe",
",$SVVKKPPUIPPIIPPPKPPLLLUPLUIIUTWUEUYIWUPIPVNBBBZSSLIYUYUWUUPLLVLVKVKVVKBKVKLVLLLPLLLLbPLKPPPPPPPPPLKKVKLJLLLLLKPLLLJLLKJKLPPFz>",
"OOSVVVKVVKPIWWWWPLLPPLLBZKVNbNBBNfffbPPPIPPKKPWWYYYYYIIPPPPPPLKJVKLLLVKVVVVVViVVVJVBVBBVVVVVNJJBVVJKILIIIIPIPIUbYYEWE!ETETTEEE7.",
"%OSPPIIUUEEUPYBVKZLPLSLPPIPPIPIPIWKWUPPUUIIWUUUIIUYEYYUIPIIIIIBEWWEIPPPLLVBVVVBBVVBBBBVBmVBBVVJLJBPKYLUYYYYYYYEP!~EPPLZJLJJJJB5%",
"%OLPLLPPIPUIPKKKZxfNLJLJKKZBBLLPKVPWEWWUWWWWWWWWWWWWEW!WW^!!!EE^WW^WUWWWWEUEEEPIEIIPIULIUUYLIEEYWDIPYLWW~QQ~Y~QPLKLKJBLLJJLLLKs%",
">O8666669666699q68622;222666446;;;;;;-;;;;;;;;;222222222;222<<<23;4444;;;;2o;;;---.;22@2;;1<22222<<22@122<<2<22;;2<;24688488423*",
",>:$%%:::>,,,>>>>>*>,,r#>#%%X$OXO....#%X%#.O$%%%%*.>*>*:>,,>=>>=%>,>>>>>>>>,,paaydi,,,>>,yyryy,>rrrr>rrrrerrter$,r>rtre>>>>>yyyp",
",,>,,,y%ryyypyapyy:p>>p,,,,,y=>=====,,>,,*=,>>>%>,rrppyryyp*ppffbc,,>f,,,,a,fffcc,fffffffffcccaappaaffcbafyfxcd:iafadfffyfff$ayy",
">>:$::X:::>>>>,>,,>>>*:*%*$#%$%#######X$$###>>***>>tyeyyee>eryiff,,>,,,,,,,>>,,,iiaiaiaiippt,a,,er,rrryiiy,,,,,::>::::::::&:X%%O",
"NNNNNNiNABNNNBNNNNNNNNNNNNBNNvvvkkkhknnnNNBNNNNNNNNBNnnNNNZFFDwy,>ANNNNbBNbvvbfbb,NbNdNbNNbbBNVbNNNnNBNNBNBBNNNNNSNBSNBNNNNNNNNN",
"UEEE^^^^^WWEUWEUIUUIYEEYILLLLPPPUETRRRTTYTIPPIIUYYTYIIPUYYTYETw*>-EPEEWWEWWEKbPIIIIIIKVWEWWWWPKVJVVVBVVVVVKVDUVPLBBLBULPUUWWPUEW",
"HTESETHHPEEHPILIELEUSSZSSKLDSSNBJBZZVKKKSKSKSLLSZBZSBBSSDLBAZS7>:-VJPPWWEEBEWIIPLLPPLJLLKPPIIYYIPPPUYUYUYYUUVPKVBhiiBBVBNBUBLBPE",
"EEPEIEEEIEPEEEUEEIHUHETEULLPUIUIPPPLPVKKKLKLPPSPLPPLPPLIIYYITE6%%XKLKLPIEIPEIIIPPPPKLLcLKLLLPPPPIIUPIIIDIIIPIKYYUEUEUPLIUEEEEEEE",
"EEWDEPEIPLWWEEWWEEWEWE~EE~WWWWWIIPPKPPPIIPIPPPIIPUIIIPPPLPPPIE8>,#PLLPLJIIPEIIIIIPPBLPLLLLLLKPPIKPPPPPPKPPPPPPPPLVLPPUPUIYEUYEUP",
"UUUUEEEPEEDDUEPULPEWEEWWEWWWYUUIPKPPPPIIIIIIPPIIPLLKLLIPYYIIYQ8>,-IEWWWWWWPLPPPPLKKKVKVKLKVVVVVKJKLLKLJLKKKKKKKPLLLLPLLKIPYYUUTE",
"SLLLPPPPKVVVKLKPLLLLPIUUUUIIIPPPLLKKKKKKKKKVKKVKLLPJPUKBVPPPEI2>a-FIIEPPLLJVbJJKKVcVVVVVVVVVVVKVJJJJKLKKKVKKKKKKLLKLPVVVPPPPPPLK",
"LKKLPPLVVKVKVVVVVVVVBVVVVKVVVLLLLLKVKKVVVVVVVVVVVVVVVVVVBVJJPZ6%,$HPPKVVVVKVVVVVBBVVVKKKKVVVVVVVJKJJVVVVVVVKVVVVVVVLPVPLPPPLLSKK",
"UEEEWPPKVVKVVVVVVVVVVKVKKVBVBVVVVVVVVVVVVVVVVVVVVVVVVVKKPUYYEE0>,:EIPKKKLKJLLLLLPLLLLLLLLPPPVLLLPPPUIIIIIIIIIIPYUUUPYJRREYUPBKUY",
"IUUUPPKVVVVVVVVVVVVKVVVBVKKJVVKJVKKKKVVVVVVVVVVVVJJJKKKYYUIIII0r,,EEPKKKJJLLLVVJLLBLPLPPPPIPPPIYUUUUUIUIIUIIIPIIUUUUYYIYIYYUIIIL",
"UUUIPKKVVVVVVVVVVVVVVVVVVVVKVKVKVKKKKKVKKVKKVKLLLLKKKKKKIYYUUYqr,:DKKVKKJJLKKLLPVLLPLLPLPPPPPIIYIUIUUUYYYYPUYYRYUYYWYYYIUIUUUUIU",
"UUWPKVVVVVVVVBVVVBBVVVVVVVVVKVVVVVVJVVVVVKKKKKKKLJKKKKKVJVJPUE0*,-SVBKVVVVVVVVVVVVVBVVVKKLKPPPPIIIIIIIIIIPIIIPPIIIIIUYIYIIIIUIUI",
"PPPPKVVVVVVVVVVbVVVVVVVBVVVVVBVVVBVVVVVVVVVVKKKKKJVKVVVVBVVVVc;>,-DVVVLKVVVVVVVVVBVVVVVVVVKVKKVKVLLKKVVVVVVVVKKKKKKKKKLKPPPPPKKK",
"IIUUPKVVVVVVVVVVVVVVVVVVVVVVVVVVVVVVVVKVKKVKVKKKLLLLPLKKJVVVJIq>,#DKVKKLLLLLJVJKLKKKKLLKKLLLKLLLLLKKVLPLPLLPPPPPPPIIIIUYUYUUYYII",
"YYIYIPPVVVVVVVVVVVVVVVVVVVVVVVVKVLKLLKKVLKVLVLKKKKKVKKVVVVBVVPq,,:PLKKLKLKKLKLLKPKVKPKKKLPKPLLLPLLKPKPKLKKPPIPUUPIKIIUYYIYYIYYUY",
"IIIPWIPKLKVVKVVVVVVVVVVVVVVVVVVVVVVVVKKKLVKLKKKLKKPKKPPPPVVPPI9,c:EIIUWIIPLLKKKKKVKKKKLKVKKVVLKVKKKVKKVPPPPPPPPPIIIIIIPYIPIIIPPI",
"PIPIUWWIIPVLPLKLKKLKLLLLPPPLLKPPPPPPIPIIIIYIYIYYWYWYYUIPPPPPPI0:,-SKVVVVVVVVVVVVVVVVVVVVVVVKVVVVLLPPPPPPIPKIPPPPIIIKPIIKPIPPIPPI",
"IYYIYIYWWWYYIIIPIIIIIIIPIIIYYUUWYYYYWWWWWYWWYWYYWYYYUIUPPPPKPP8>,+HLLIWUIPLLKPKVKVKKKKKKPKPPPIYIIIPPYPIIIPIIIUUUUUUYPUYYYYYYUUUY",
"LIIIIIIUIYWYWWUWWWWWWWWWYWYWWWYWWWYWYWYWYYYYYYYYYYYYWUPPIPPPPU0>,:IIIEWWWWUIUIIPPPPPPPKPPPPIPUIIIIYIIYIIPUKYUUUUUUYPIYYUYYYIIIIY",
"WYYYYUUYYUIYYUUYUUYYIIYIPIYYYUYIIYYYYYYYIYYYIYYYIYUUUUUIIPIPIUq>,#DVVBVKKLIPPPPPUPIPPPUPUUUUUYYYYYYYYLIIIIVKPPPKPPIYYIUYYYWWWWWY",
"IIIYYYYYYWYYWUWUUIUIIIPIPILIIIPPPIIIIIIPIIIIIIIPIPPPLPPPLKKKLP8>,#FPPPPPIUUWIWWIUPPIUKUUPPWUWUUIIIPIKIIIPIYIWUPUPVPVPPPPPPIIIIPI",
"LLLVPKKPPPPIUPPPUUUIIUIIIIIYIIYIYIIIIUUYYIIIIIPPPPPKPPPPPPKLPU6pc:IIIUEWWWWWWIWWWWWWWWWUWWWUIIPPPLPLPLLLLLVKKKLLKKVVVVPKLLLLLLLP",
"LPLPLVKPLPPPPUUUIWUIUUKUYVYYIYYIUUUUUWYYYYUUIUIPIPPPPIPPPPPPPUqfc:DVKLLLPUYYYYILLBDKPKPPPLLPLLKBVVVVKVVKVKVLLLPLLKVVLLKLLLPPLLPL",
"LPKVVVVVPPPPIPIIIPUWUUUUKLIPIPIIIIIIYYIIIUIUIPIIPIIVLVLVKLKVLLq,a-DLPPPUWUYIPIIYUEEUUWUEIIPKKKBBVVVVVVVVKKKVLPPPPIPLLLLPPPVLLLPP",
"VVVVVVVVVbBBKLKLKPPPPPUUYIPIPPPPPPPIPIPPKKKKKLLKKKVVVVVKBVKBVL6>,#DLVKPLIWIYIIIIIILLPUULEKLPKKLKPPLKKKLLVKKiffdkcbBBLLPPPILIPPLV",
"VVVVVVVVVVBVVLVKKKKVVVVVVVVVKLVVKLPPIUPPKPKPLPPPIIWWWWWWEEEWEU8>,#DKVKVKVVVIPWWWILPUWPPLKBBbcbcxf,pidKKKLVKVBLPLPPPPPPKKVVVVVVVV",
"KLKLVKVVVKVLKKVVVKKKLLLLLLLLKPLPIUIIPPLKKPPPPIUUWWWLPKKIVBBKVV;:,#DVLPPPPELPPUVKLKBUUIPEIIIPLLLPPPWIIPLPPPLKLJLLLLPPPLLKKKKKVVLL",
"WEUUPPUUPWWEEWWEWWWWWWEEEEWWWW^WWEEUPPPIUUUUWWWELVVVVVVVVBBVVV6>,+DKVVVLLLUIIVKKLNBDLIWPPLKBBLLPPWIWWUWUIWWWWWWWWEWPEEWEWWWWWWYW",
"55555722;45;4;;44;5;;;;;;2;445764;-;;;-;-:;;;;;;-;;;;2966266;;4>,O865444666660qj00646;4644684664;;;;;;;;;;;;;;;;;;;;:2;5555555tu",
"OX%.O...%%+.X-O##%#-%%>#%-#XO#.#.X. ...X  .....X.XXO##%>:>>>>:>,,:%>:%:>:>:>>>>>>>>:::%::::::#######$##:%:>%%:%%:$#:#O###+XOXX%X"
};
