/* XPM */
static char *result[] = {
/* columns rows colors chars-per-pixel */
"128 128 24 1 ",
"  c #0E0E0E",
". c #0F0F10",
"X c #151515",
"o c #171718",
"O c #1B1B1C",
"+ c #1F1F20",
"@ c #232324",
"# c #272728",
"$ c #2B2B2C",
"% c #2F2F31",
"& c #333334",
"* c #363638",
"= c #3B3B3C",
"- c #3F3F40",
"; c #434344",
": c #474748",
"> c #4B4B4B",
", c #4E4E50",
"< c #535353",
"1 c #575758",
"2 c #5B5B5B",
"3 c #5F5F60",
"4 c #636363",
"5 c #6A6A6A",
/* pixels */
"##@@@+++@OO@OOO@O@OOO@O@X@@OOOOOO+O+++O+@O@OOOOOOOOOOOOO@@OOOOOOOOOXXOOOOXXOXOOOOOOOXOOOOOOOXOOOOOOOO@@@@@@@@@@@@@@$@@@@@@@@@@@$",
"##@OO+++O@@OOOOOO@O@@@@$O$$$$$$$$$$@$@$$@$$$$@$$$@@$$$$$$$@$$$@@O@@@O@OO@+@@@@@@@@@$@@@$@@$@@@@$$&$@O@@$$$@@$@$@@@@@@@@@$@@@$$@@",
"@@@@+O++@@@@OOOO@O@O+OO@O$&$&&&&&&&&&&&&$&&&&$&&&&$&&&&=&&$&$$@$$$$$$$$@+@@$$$$$$$&$$$$$$$$$$$$&&&&&&O$&$$&$$$$$@$$@@$$@@@@@$@@@",
"@O+$####$@@@O$$$$$@@$OXOX@&>=;;;===&&;&&==;==&&&=&&&&==&=&==&=&&&&&&&&&&$&$&&$$$$$$&&==&&&&&&&&=&=&&&$O&&&&&&&&$&&&$$&$@&$$&$OO@",
"+++#&%$%$$$@@$$$$&$&@OXOO@$;>;;=;=====;==;;;;=&==&&==;=;;==;=;;;===&==&&=&&&&===&&&$======&==&======&&@===&==;=&==&&&&&&&&&$OXOO",
"OO+@#--;=$$;;==&=;&@OOOOO@&=;2221<<<>><>><<<<<2>><<2222222><<<>><<<><<;>>>=;;>>>>>;&<<>>>;;;;;;>>;;;=$=>>;;<>>>><<>>;;;;;;&@OXX@",
"OO+@$==%$=====&&&=&OOOXOO@$==24421244454>>2244422<2<2<<<<222<>>><4242<22<<<<><><<<<;;<>>;>>><>>;;>;=&;42>>><<<<>>>;;>;;===$@OXX@",
"OO+@&#&=;==&=&=&$$&@OXXOO@$&=2422123<<22<<<><22<<<>;<<42><24<<2><<<<<<2<<><>>>>>;<<<&><>;>>>>>>;===$&22><>>>><>>>>;;>;;===$OOXOO",
"OOO$@&;;=;=&=&&$@$&OOXXOOO$==22<1<22<<121<<><<<<>>;;><2<<2><<22<<><<>><><<<>>;;;>>><$>>>>;;;>;;===$@;<<>;><;;>>>>;>>;;;=&=$+OXX@",
"OOO@@&=;=&&==&&$$$$OXXXXO$$=;<221<<<<<<1<<<>>>>><<>>><<>>><<>>>><2<>>>>>2<;;;;;;>>;<$><;>>=;====&&@>;>;>;>;;;>;;;<;=>;====$+OXX+",
"Oo@#@;;;==&&&$&$$$$OXXXOX@&=;22<<<<<><;;>>;;;>>>><><<><>><<>>;;><>><>>><<>;;===&==;<$;<;;;==&&&&&@=;>;;;;;;=;;&;;;=;;&;===@+OXO@",
"OXO@@&;===&&&&&$$&&OOXXOO@$&=>2<2<>>>>>>>>;>>;>>;>><<;>;;;<;;;;>>>>>>;><<>>==;;;=;;;&=>;==&&&&&@@&===;;=;;====;;;;;==;;===$OOXX+",
"OO@O@;;;=&&$$$$$$$$OXXXOO@$&=>242<>;><>;>>>;;;<;>;><>>;;=>>>;;>;>;>;;>>>>;;==&==;=;;=&;==&@@$@@&;>;==$$$&=====;=====&=====$@OXX@",
"OOO$@===&&&$$$$@$&&OOXXOO@@&=<422>>>>>>;;;;;;;;==>;>;<;>>>=>;>>;;;;;;><>>;===&==&&=;>@&&@@@&==>;;;;==;===&=====&==&&&&==&&&@OXX@",
"OOO@$&==&&$$$$$$$$$OOXXOXO@&&>22<<>;;;;;==;;;;====;>;;;;>>;>=;;>>>==;;>>;;===&&&&&=>;@&$@=;;=&==;;=&&$&=&&$=========&==&==&++XX+",
"@O@@$=@&&$$$$$$$$@$OOXXOO+@$&><<>>;;;;;==;=;;;;;===;=&=&=;>==;>>>>;;;>;>======$&&&===@@@&;==;=;;;;=&&&&&&&&=&====&&==&=&==$OOXX+",
"O+@@$&&@@$#$%%$#@$$OooXoO@$&&;<>:;---;--=-=-=;;==&&;======;;;>>>;>>;;;=;;=;=;&=$&&&=$@@;===&==;;;;=&&&&&&&&$$=;=&==&===&=&@@OXX@",
"@O+@@&$&@@$#%$$$$@$OoXXoO@$%&=:>:===-;=-;-&==;=;;;;;=====;>;>>;>;;;==;;;;>=&;&&&$&=&$@;=;======;=&;=&=&==$&&$&=&===&===&=&&@@XXO",
"O@@@@&&&&OO@%$$@@$$OXXXOO@#$%->;;-=------=&==;=;;=;>=====>>>>>>>;;==;===;;;=&&$$&&&=&@==;;;===;====&&==&&&&;=$$&$&&;===&&=$@OXXO",
"@O+@@&&&&OO$%$$#$$$+oXXOO@$%&><-::==*=-=-==&==*&&;>>=;;;=>;;>>>>;==;;;;;>;;;=&$&==;=$&;====;=;=====&=&&&=&;&=;;======;==&==@OOX+",
"OOO@@==&$@O@$%$@$$&OOoXOO@$&&>,>;;-*====--==*&**=>;;;=;;;;;<>><>>;;;;;;=;>;;;;=$===&@=;=====;==&&==&$==$&=&=&;===&=&==&====@@OXO",
"O@O$@=&&$$O$$$%$$$$OOoXOO+&&*>,>;;-*===&;-=***=*=>;=;;&=;>=>>>>>>>=;;=&=;=$=>;=&===$@>;;=====&===&&&$&===&=&&=&==;;&=&=&=;=@+OOO",
"O@@@$&=&&&O#$$%@$#$OoXXOO@$&&>,,>-==&==&*=-=;;===;>>;==;>>;>>;>>>;=;==;>>>>>&=&&&=&@&;=========&&&&$&&=&==&======;;=&==;=;=@OOXO",
"@OO@$&==&$O$$$$$$$$OoXXOO#$&*-<<>--=-;;=*==;>;;;;;>>;==;>>>>>;>>;;>=;;<>;>>;=;&&&&$$>;==;;&===&&&$$&&======&=&====;==;=&=;=@@OOO",
"OOO@$&=&$$@@&$$$#$$OoXX@O@$$%=<;>===*;;====;;=;;>;;>=&;;><<;>;>>>>>=<;>>>>;;==&&&@$>;;&=;==&=&&&$$&&&&==&&=&======;=;===&==$@OOO",
"@@@@@&&&%#$O$&$$%$#OooXOo##$%;;;>==&=;==&=;;==;;;;=;=&&=;;><;>>>;;&>>;;;;>;;==&$@$==&;;;;&;=&&&$$$&==&=;==;==&===;;========@@OXO",
"@OO@$&=&$$@@$$@$$$#OoXXOo@$&&;;;;;;;;=======&;;<;;;;;=;=;==>>>>>=<><>;>;>>;;$&@@=>;;;;;;==;&=$&&&&&&&;=====;==&=&=;=====;==@OOOO",
"@O@@@&&&%$@#+@@$$%$Oooo@O#$&&;;==;;;===;;;=====;>=;=;;=;;>;>;><;<>;>>>;>;;;;$$=;=;;;;;==;======&&&=&=;=&=;=&&&=&=;;;=====;;@@XOO",
"@@@@$&&&#$$$$$O@%%$OoXXOO@$&&;:;;=;;====&=&===&=;;=;;>;;;;;;;>>>>;=;;>>;>;;=$>>&=;;;==;==&&;&==&&&&==&;;;;&&====;;;=&======$@OOO",
"@@@@@=&&%$$$$#$Oo$$OoX OO@#&*;--====&&&&&===&&=&===&&=;&;;>;;;;=;;=;;>>>;>;=$;>;;==;==&;;==;&=&&&&=&&=;;;=>;=;;==>>;&&=;=;;@@OOO",
"O@@@@&&&&&$#$##$O##OoXoOo@#$&;;==&&&&&&$=&=&&&====;===;;;;;;=;;=;;;;>>;>;;==@;>;==============;=&=====;&=;;;====&;;=====;;;@OOOO",
"@@@@$=&@%$##$$@##X$oOoXOO@#%&;;*&&=&$&&&&=&&$&=&==;&&=;;;;;;=;==>>>;>>;;;;=&$>>;;;=;=&;;=;;==&$&=======;;==;;;;;=>=====;;==$@OOO",
"O@@@@&$$&$@$$&@@#OOOooXOo#$$*;-=%*&%$&&&&*&%%&&-=&=&%&=-*-;==&-;<;>>>;;>;==;@;;;;====;;;=;;&=&&&=;====;;=;;>=;;>;;;;;===;==$@OOO",
"O@@@$=&&&$$&&$@@#$OooXXOo#$$&-*==***&=&==&*%%&-%&&=*&&=;=-===&&;;<<>>;;>>>;=$><;>>;;;=;;====&=;====;;;>=;;==;;===;;=;;;====$@OO@",
"@@@@@&$&$$$$$@$$$$$XXXXOo#$%&-==-=%%$&&&&&%%$#$#$&$&&*-;==-*=&&-=<<;>;==&=&$+@&$$$&$$&=&&&&&&======&;==;=;;==========&&&&==@@OO@",
"@@@@$OOOOOOOOOOXOoO+XXXoo@$&*$O@##++O+O@O+O+++++XOO@+@$+@$@$##@#$&$$$@$$$@@+O@@@@OO@OO@@O@O@@O$@@@@@@@$@$@$$@$@@@@@@@@@@@@@$@OO$",
"@@$@OOOXOXXOXXXXX.Xo+oXOo#$&$XO+++@OOO+OX+XXX++.ooXOOOOO+#O@OOO@@@$@@@@@@O+OXOOOOOOOOOOOO@O@OO@@OOOO@O@@@@O@O@OO@@@O@OOOO@@@&@O&",
"$@OOXXOXXXXXXXXXX.XXooXXo#$$OXOO++OoO+OO+X++X.XXXXoOOOOXo+@OoOOO@@@@O@O@OOXO OOOOOOXOOOOOOOOOOOO@OOO@OOOOOO@OOOO@OOOOOOOOO@@@$@$",
"$$@OXOXXXXXXXXXX.XX..XX@$XOoooOOoooXXoooXX+XX.XXXXXoXoOoXOOOooooOOOOOOOOXXXXXXoOXOXXOOOOOOOOOOOOOOOOOOOOOOOOOOOOXOOOOOXOOOO@@@$&",
"&&$&$$$@@O++OOOXXXXoO+#&%$oOOOO+@+@@#@$$#+++++++@OOOOOOOooooooOoOOOOOOOO++@OO$@O@@@@O@OOOOOOOOOOOOOOOO@O@@OO@@@@$@@$$@@@@@@@@$&&",
"@@@@++OOOO+OO+OOooooooooooooO+@OX+#+++###++#++#+OO+++@@@@@@+++@O@@@@@@@@O@@@OoOOOXXXXOXOOOXXOOOOOOOX@OOOOOOO@@O@OOO@OOO@@O@@@@@@",
"&&&$&$&&$$$$$@@@###$$$##$##$###O#%%##-##%%%$%++#@@@#@@$#@$@@@$$$@$$$$@@OO@OO@@@@@@++OOOO@@@$$@@@$@@@@@@@@$@@@@@@@@@@@@@@@@@@@@$$",
"$=;&$&======&&&&&&&&&****&&&%@$&-%#-----&%%%%$&&&%&&*&%#&&&&&&$+@$@@@@@@#O@O#@##@@+@@@+@@@@@@@@@@@$@@$@@$$$$$$$$$$$$$@@$$@$@$@@&",
"$;>>;=;=>;;;;;=&*=*-=*===*&$$*&*-----------&-%--&&&**==&&$&@&@@XO@&=&$$@$$O@#$$$$$@@@$@@$@$$@@$$$$$$$&&$$&$&$$&&$$$&$$$$$$@$$@@@",
"$&;<2>;>>>;>;;;=------*-*&&==*=*----------------=*==;=;=====&OOOO@$==&&$$$$O$$$&&$$@$@$$&$@@$$&&&&&&&&&&&&&=&=&&&&&&=&$&$&&&@OO$",
"$=;;<44<<224<<>>::;;:>-&*>>,::><-3311111111,,,,,<><<>>>=>>>&@OOO@@@$&>;=;=$&==;;;=;=;;;===;&$&===;;;;;>;;;>>>>;>;;>>;===&&&$@OO@",
"$&=;<452<244424431<1<:*<3<1122<2113,,,,,,,,,:,-,<<;><>>;>>;@OOOO@@$&&>><;&@==;;;=;;;;;;==;;==@&==>;>>;>;;;;;;>;;;>;;===&$=$OOOO$",
"$=;;>42<<2<21<2<1<<1>&3<,,<<<>,>>,,>,,,,-:,::::-><<>;;>;;;=@OOOOO@$$&<>;;+&==;;;;;=;=;=&=;;===@&=;;=>>>;;=;;=;=;;;====&$&&$OOOO$",
"@&=>>22533<,,,,<,,<<;%<<>::,>>>>-:,,,-,-----------------;;=@OOoOO$$$&><=@$==&====;=>;;;&&;&&&$&@&===;;;=;==;;===;;=$=&$=&&@@@OOO",
"@=;;<42231,:,,<,,,1<-#,;>;;>::::--:,,------$------#-----=;=@OOOOO@$&&;;$$&===&===;=====&$&$$$&&=@&==&;=&&==&&&&&===&$&$&$$@@@OO@",
"@&;;>222<3,::,,:,,,:-#>>:--;;;;;-----#----*&--#------##-&==@OOOO@@$&&=&@&&&&&===&==&==&$@$&$$&&&@$&=&=;&&&===&&$=&&&&$$$$$@@OOO$",
"$=;;>4><<,-:,---:;;;-$;>---;:::=----------&*#-------#--#&=&@@OOO@@$&==O&&==&===&&&&&==$$@$$$$@$$@$&=$=&&&&&&====&&&&$$$$$$@@OOO@",
"$=;;<1<<<<::,:--*;;:;%*>-*;;:=--#-----#--%%%&**&-##---+#$&=@@OOO@@$$$@&========&=&&;=&=$$@$$$$$$&@$=&&&&&$&&&==&=&=$&&$&$$@OOOO@",
"%=;;>1<<,,:-:---;;:>:=#;=*-;-=-;-----#-#-&&-*&&&#---#-#-$;=$O+O@@@@OO&=========&&&=&;==&&&$&$@$$$@$&==&=&&$&&=&&&&&&$$$$$&@OOOO@",
"$=;;<<2>:-::----*=;::-@>-*-;--==--------*--*%%&*---###-#=>=$@@OO@OO@$======&===&&===&&==&$&&@@$$@@@$&=$&&&$&&$&$$$$$$$$$$&@OOOO@",
"$=;;;1<>::::----=;;;;=@;:--;;==*----##--*-*-*%%*-#-#----;;=@@@OOOO@@$=====&=&&&&&&==;&&&$&$$$&$&$$@@&&&=&&$$$&$@&&$$@$$$$@+OOOO@",
"$;;;;1>->--;:---;=;:;-&*;:;;;-;;--#--%-----%**&%#--#&*--::&$@@X+@@@@$=;====&=$&&&&;===&=&&$&$&$&@&&&@@$&&&&&&&$$$$%$##$$$$+OOOO+",
"@=;;;<;-;-;>--;::;==:=&&-:;=;;;;----$--$%---*&&%--#-=*=;><;&@OOO@@@$$;=&=&&&===$&=&$&&&&&$$$$&&$&&&=&@@&&$&&$$$$%$$$$#&%$$@OOOO@",
"@=;;>>;;==;;---;:;;-==&%;;:-;=;=#--##%------=**$#------->>;+@#+O@@$$$===&&=&&=$=&&=&&&==&=&$&&$=&=&=&=@$$&%&&$$@$$%$$#$#$$@+OOO@",
"$==;;>>=&==;---;:;;=;=&$-:::=;=*-----$------;:=*--#--:--->=$##@@&$$$$&>==&&&&&&=&=$&&&&=&&&&&&$;=&=&==@$&&&&&$$@%%&&#$##$$@+OOO@",
"$=;;><;=======--;&---=%+:;>;;-;=---------,:;-;-=--$%---->=:@$#@@$@@$$=;&===&=&&$==$=&&&=&&$$$$==&==&=&$@&$&%$%&@#%%&&$%%$##OOOO@",
"@==>>>;;-====*-*=****=&O*-=;-;;=-#-##-%---:--;;;--------=;:@%@O+@@@$$=;&&=&=====&&&$$&$$$$$&;=&=&&&&&&&@#$%%%$$$#$#$$&$##$#OOXO$",
"$===;>;==-***=-**===-&&@#->,>>**------#--*---==:--------&>;@##@+$@@@$=;&&&&&&&&=&&$&$$=====$$&&=&&&$&&$O$$$$$$%$#%$%%$$##$$OOOO@",
"@=;;;;&==&*=**-**-;*=*&%@&-:;>>;---------**--=-=-----&-#>;=#$#@O@@@$$==&&&=$&=&&&&&&&&&$==&&&&&&===&=$$@$##$%$###$$###$##$@OOO+@",
"$*=-->=**=*=&&==;;;=;=&&$+=;>>>;;;;=;;>;;=;&;;;===;>=;=&=>;@$$@O@$@&$&=&=&&=&&&=&&&&&=&&&&&&$&&$&&&=&$$$+###$%#%#$#%#%#%$$#O+OO@",
"$&=--:====&==&;;;;;=;;;=&&O=>>>;;;;;=;>>=====;;;=;;;;==;;;<&@@@O@$@$$&&&&=&&&&&=======&$&&&$&===&&&=$&$$O#$%$#%%%####%$#$$#O@Oo@",
"$%*-=-&*&$&&=&;=$=;;;=;=&=&@;;=;;;;=;;>>;;;==;;>;>>;=$;>;=;&@@@O$@@$$&$$$$$@@$&=======$$&$$&$&&&&&&$$@@@#O###########&##%##@@OO#",
"$%**&$###+@@@@@@@@@$@@@@$@@@X+$@@$@@@$$@@@@@@@$$$@$@O@$$@@@$$@@@$@@&$@@@@@@O@@@@O@@@@@@@@@@@OO@O@OOOXXXXoO OooOOOOOoOOooOoO#O@o#",
"#%=*#@@@#@#O++@@@@@@@@+++@+@@OO@@OO$@@@@@@O@@@$@@@@XO+@@@@O@&$O@$$$$@OO@@OOO@O@@OO@O++OOOOOOOO+OOOXXXXXXoO  XXooOOoOOooOOOOO#+O#",
"$%$@@OO@@@OOOOOOO@OO+O+OOOO@+OOO@@@@O@@@@OOOOOOO@OOOOOOOOO@@@@OO$$OOOXXOOOOXO@OOOOOOOOXOXXOOXXOXXXXXXXX XXXX XoOooXoXX oXXooOO@#",
"%@@+oOOOoOooOXXOOOOOOOOXXXOOOXOXOXXOOOOOOXOXOOOOOOOXOOOXOXOOOO@@$$@OXOOOOOOOOOOOO@@OOXXXXXXXXXXXXXOXXX XXXXXX X oXXX   oXXooOO+%",
"&&#+OoXXOoooOXXOXXXXXXXXXXXXXXXXOXOOOOOOOOXOOOOOOOOOXOXXXXOOO@@$@$@@@@@$@@@@O@OOO@+OO+OOOOOO@+OOOOOOO+OO+OO+++OooOoXooo XXXOO+#&",
"%&&#%#@#@@@@@@@@@@@@@@@@@$@@@@@+@@@+@@@@@@@@@@@@OO@O@@@@$@$$@@@$@@@@@@@@@$$@@@@@#@@@@@@@@@#O++++@@@@@@+@+O@@@@+@+O#$$@#@#@O##$$&",
"=&#@$&$#@@@@$@@@@@@@@$@$@@@@@+@@@@@O$$&&$&$$$$$$$&$$$&&&&&&&&&&==@=========;========&&&&&$#$###%$$$&$$$$$&$$%%#$$#o@$$##$#@&***&",
"*%+@$%&$@$@@@@@@@$@$@$@$$@@@@@@@+X++$=;=&&&&=&=&=====;=;=;;;;=;;;&&=;;;;=;;;>;>>;;;>;=&$$$$&&**&&==&&&&=&&=&&=&&&%&$O@$&@O&&***&",
"$+O+$@$&$$$@$$$$$$$$$$$@$$$@@@@@XX+X$&<;;=;;;====;;;>;>;>>;;;>>>;>>&&=;;==;>;;><<>><>>;;;;-=-=--=;=======;==*-=&&*&*&$@O@&====*-",
"@OO+#$$$=$$&$$&$$$$$&@@&$$$$##$OXX+O@&;>>;;;;;;;=>;;>>><<>>>>;>>>>>>>>;==;<<<<><<<<>>>>>>,;=---;;;;=;===;;====-=***=**&*&**====&",
"@OOO@@@#$=;;;===;;===&&&====&$OOXXOO$$=>2<2222242222244555454455222224554>;=><<4444432342223<:,,<<2<<2><<><;;>;;>;::::::::-->>&#",
"@OOO@$$@$====&=====&&&&&&&&&$#XXXX@X@&=;22<<<<22<424255555554454<22224422552=;<21423424434331,<,<<<21<<;>>>;>::>>,::;;;;-=;=;=$#",
"OOOO@@@$$=&&=&=;====&&&&&%$%&#Xo X@X@&&;222<<><<<22244424<24222<2<22<2<222222;&<<2111<<><12<,:,:>>;><>>><;>>;--::;:-=*-====;;=&#",
"@OOO@@@#$;&&&&==&=&=%#$$%$$&$# oXXOO@$==<<1<>:><><222<<2<><2><2<><2<22<2<<<<<2==><<<<<<<<,,,:::-::::-:,,:---:---:=;--%%--%----++",
"@OOO#O$$&=&&&$$&&&&=&#&$$$$$%#oo X@O$&==<<>,>:;:;>><<2><<><22><>><<<<><><<><<>>$;;>><><>,,:,,::--:---::::*-:-***-:;=---%-%#-#-#@",
"@OOO@@$$&=&&$$$$%&%&&&$$$%$$$+XoXo@O#$&=<,,>::;:>>;>;<>>;=<<>>>;;<<<>>>;<>>;;;>>@=><>><;:,,,::;;-*--*---%%******==--$--&%#-#-#-+",
"@OOO@@$$$==&$@$&&%&&&&%$&$#$@+XoXO#O@$&=<,<>>>;;;;;;=>>=>><>;==;><>>>>>>>;>>>;;>=&;>>>;;:---::;;---:----*%******=**&-&%%%-#-#-#+",
"OOoO@@@$$&$&&$$&&&%&$&$$@$$$#@Oo O@O$$&;<<<<,;=:;>;==><;>><<;;;>>>>;;>>>>>;;;;>>;&&=;;;;-----::----**-**%%*%****%*-&*-&--###--+o",
"@OXO@@@$$&&&&$$$%%%$$$&$@$$%$@oOXO$O$$==:<<<2;-;>;=;;=<;>><><>>>>>;=;;;=;;;;;>>>>>$===;=--------:-**-**%%%*%*%%%*****%&---%-#-#@",
"OOOO@@@#$&$&&$$&%$%##$$$$%$$$#OoXO#O$$&=;><<,>;:;;=;>;>=>;>>>>;>>>;=;;=;;;;;;;;;;><$;=&&----------*-*****%%%%%%%&&%%**-%#-####-o",
"@OoO@@$@$&&&&&$&%*$$#$$$$$$$$#OOoO$O@O&=>,,>>::>>;;;>>=;>>>=;>;==>>;====;==;;>;;;;>&$&&&%#--%%%-:***-*%%*%%%%%%*%%&%%%%&-#-#---+",
"@OoOO@@@@&$%$&%&%&#$$$&$#####$OOO+#o+O%&:,:,::;;;;>==;==>>;=;;==>;;=;;=====;;;>;;;;;#%&&**=&-%-----*-:*%%%%#%%**%%%%%%%%#%-%%##+",
"OOXO@@@@@%$$$$$&$$%$##$$##@$%#OOX+#OXO&*><::::=:;=;;=;;;>>>>>;>;;>;;;==>;>;;;;====;;*@&&&**&-%%-*----*****%%***%%%%%%%-%-%%---%#",
"OOoO@@@O@&%$$$$$$%%#$$&&%$##&$OXXO#@O@%=>><:=;;;;;;;==><>;>>>;>;>>;>;>=;;=;>;;===;;=-%#&&*&*-%%%**********%%%*%%%*%%%--%%-%#--%+",
"OOoO@@@@#&&$$&$@##@%$$$$$@@@&$OX O#@O@%*>,,::=*=;==;==;>>>>><>;=>>;;>;;;;;;;;;>;=;==&=#$&&**-$-$***********%*%%%-*-%-%%-%%----%+",
"OOoO@@@@#==$$$@@+###$$$$#@####OOXo@@o$&*::>::;;;=;;;==;;<<<><<;;>;>;;;;>>>;;;;;;===&&==+%&%*%&--***%%%****%%%%*%%%**-%%%%#%-%-#o",
"@OoOO@@$$=&&$@@O+++#$$@@@###$$OXXO@+X$&*:::;::;-=;;===;><<>>><>;====;;=;>;;;>;=====&===&%%**-&%$***%%*:***%%*%%*-%%-%--#%--#---+",
"OOoO@@@$$=&$@@@@+@@@@OO+@##$$$Oo O@OO%&=::;=--=;;;;;=;;<<<<>>>>>;=;;;;=>;>;>>;===&&====;+&&&%&--***%%****%%%%*******#%#%%-----#+",
"OOXO@@@@$=%$@#+@+@@@@O+@######OoXO+X@$&*::-*=---;;;>>;>><<>>;;>>=;;=$;;;;;;;>;;=&&=====;@%-&-&&--*****-***%%%%%%***%-#--%--#---+",
"@OoOO@@@#&&&##@#@@@@+@@@@#####oXXX@X#$&->--*=-;>>-,>;;>>>>;=;;;;=>;=--;---;;:;;-**====-:&#**=**=*-******&%%&&&%&***&%&&*-***==&@",
"+OOO#O@@#%&$&#$$@#@@+@@@@#####oXXo@X#%&-:-===-->>-:--,;;;;;>;=;=;;;-**:-*-*-:;--=*=*=-:--#==-==-*-**----&%&&***&-***&&&*&**&**&@",
"@OOO@@@@#@+OOOOOO++@+@@#######+X.OOO#$&==%&&%&&==&&====;;;>;;==&==--====-=*-;;;-=====&=-&#*-**==****----&&&*&&--=--=&*=*-=-*&&%@",
"+OOO@@@@OXOoXXXX XXXXXXXXoXXXX+XXXXO$%=&$++@@O##@@@@@@@#@@@@+@+@$@@@+@@@@@#@#$@@@@+@@+@@#o##@@@###+#+###@O+++#+###+@@@@###@++++@",
"#OOO@@#O  o X X X XX XX .X.X.XXoXX.O$&&@O++++O@+@OOO+O+@@O@@O@@O+@OO+O+O+++O+@+OOO++OoOO@o@@@@@++++++++ooooO++++++O+O+OOO@+@++++",
"OOOO#OX           X    X  ......XXXO#$OoOOOOOooOOOOOOOOOOOOOO@OOOOXXXOXOoOoOOOoOOOoOoOOOo oOO+OO+++++oo+oXooOOOOOOOOooOoOoOOOOoo",
"OOOO$OX  o o X X          .....X..X@OoXooXXXXXXoooXXoOOOXXXOXXXXXOXXXXXXXXXXXXoXXoooXXoOoXOOoOOoooo+o+ooXXXXooooooooooXXXooooooo",
"OOOO$#@##@@@+@+++OOXXOoooOOOO+OO XO@@OO+++@+@+++OOOOOOOOOOXOXXXOXOXXXOoXoOOoOoooooOoOoOoOo+@++OOoooo.o.. X...X.XX.X XXoooooooooo",
"@@####@@@@@@+++OOO+OOOO+O@@@@+++@####@@@@@@@#@@@@@O@@@##@$@OOO@OO+O++O+O@@O@+@+@@#@@@@@@@o####%%%+##++++++@@@@@+@@@@@@#$$@@###@@",
"&&&&&&&$$$$$$$####@+@#@@###$###$$$$$$$$$$%$%%%$%$$$$$%##@$$@O@@@#+@@+++@@@#@@@$@@@@#@#@@O$O$$$$$%-%--########$$%$@$$%$%#$$%%%%&%",
"&===*=**&=&&*%%%$$%$#$%%$&&$%%%&&***&&&&*==&&=**%&&%%&@@O@$#$$#$$#$####$$#$$$$$$$$#$####$$$#%$@@##---#-#$#-%%%&%&&&&&&&%%%*&=&&&",
"=;====;=====***&&%&%%&**&*&&&&**=*=-&&&**=*&=&**&&=*=$OOO@#&$$$&%&&%&&%$$%$$$%&&%%%%%&##$$$&$+OO###-#-##--%-&%&&&=&===*==**=-=&=",
"=;=;;;;>>;;;=-*******--*===****=-*--======&**======;#OOO@O@$&&=&&%%&&&&&&$%&%&%&&&&&&&#&%&&*#oXo##+--#--%--%-&-*&=;=;;=======-=-",
"<12<<11422<<>>>>,,:,,,,,>,:;,<>>,<1,:>,,>>>;>>><<<<&OOoOO@$%%=;;==-:>:>,;::=---==-;--%*;;-;#OXXO+#-#--:--:,,,:::>;>;<<<>,<>,,1<,",
">2<<><<1<<<<<>:>,,,,<1123,;22222331,,:,<>:>:>,>>;;;$@OoOOO#$%=>;:-::::::;::;-;-;---%#-;&=&&@OOo@+###+---,,,:,:,,>>><<<1<>,,,<<<<",
">>>>>;><<>><,;;::,:,1<<1>=2<2232,,,::,><:::;::>;=>;$+OoOO@@$%;<>;--:--::;;==*=-=-=#=---&&%$OOoX+++##-----,,,,:::>>;;::>>>>>>,,>;",
"-::-:;::,>>>>;;;-:-,><<>-2<<<<<<<<>>;>>>;>--:;>;*;;#OOoOO+#$%;,:-=--;---;=*&***-&+-*-*-%%%#+OXX+@@@@$;;;;;;>>>>;;;;;;;;;;;;>;;;;",
"----;--::;:-;=;=-:--><;>24,<<<11>>>>;;;><>:-;;-:;=;#+OoOO++##*;--====***=&&&&&*&#-*&***%%%#+oXXOO@@@&;;;=;==;>;;;=;=>;;;===;;;==",
"---&--;=-;-=====:---;*<2<1<:>>><;>>;;;;>>:--;;;>:-;#@ooOO+++#&*-=&*=*&&%%&$%%%%#&&%&%%%%%&%+oXXOO@#@$;;;;===========;&;&&=======",
"#-&&***-----;===---%-,:>><<-;><;>>>;>;<;:---;;;--;-@OooOO+o+#&&&*&-*&&%%%$%$%##%%%%%%%*&&&&#OXXOO@@@&;=;===&==&==&=&&&;=&===&&&&",
"--%-**&*-;--=;;&-$&;>,:<<<>>>>;;;;;>;>;;=-;;-=-;===@OoooOOo+@&*&**=*=&%$%%####%$%%%$$%&&=*%+OoXO@@@#&;=;&=;&=======&&&;&===*&&&=",
"%--%*&*=-====;;=#-:-:>>,>221;;:>;;;;;;====---=--==*@+OooOoo+#%&&*=**=*%$%#-+#%$$%%$%$%&&*=%+OoooO@$@$;;=====;;===;=&&=&&=&*=**&&",
"%-%-=***==*;>;=$--:::>::<>;;;<<>>;;;>;==-------;;;-@+ooo+oO+@&%%&*-*&&%%%-##$#$$%%$$%$&%%%&OOoXOO@#@&;=;===;;====;&&&&;&=*%&&**=",
"-%-#==*=*&=-;;==-,::::<>>>;><<;;>>;;>===--;--=;-:;=@OoOO+oo##&%$$&*&&&&&%%+$##%%%$&$&&&%%%%+OoXo@@@@&;===;;>;=;====;=;;;-=&&&%&=",
"-%------&===;;;=>;><;<><>><>>>>><;;>;==;----==-;;:=@OooOOoO+$&%%%%%%&%**-+#####%$%$&%%%%$&&OOXXO@@@@&;;===;>;;;;;==;-*-=*-==&&*=",
"----#-#-==;=;;&=;>>>>;><<<><;>>>;>>>;===---*==-;:>;#+ooOOO+@$*&&%%%%%%**%+$######$&%&#%&&&$OOOXOOO$@&;;;;;=;;>==;;==-=-&&==&&&&*",
"+###-###$$$$&&$;&=;;==;;;;;>;>>>>><>>>;>,:;--*=;;==$+OoOO++@$&%%%%%&%%%*$+#$##@@@#@$#%%#@$$+OXX@@@@@=;;;;=;;=;;==*==-=&&%&#%$$&&",
"+o++Xo++O+@+O+O@@O@@@@@@$$@@@$$$$$@$@&@&&$%##@@##@$$@Oooo+O@$OOOoO+oX++X+++X+oXXXXOOoOoOOOO+OXX@@@$@&@@@@O+@@@@OOO@++O@+O+OO@+OO",
"+Xo+XoooOXOO+OO+@OOO+@@@$$@@@@@@@@@@##@@@#@+++++@@+#$OoOOO+#oXXooXooXXX++++oooooOXXOooXOXOoO+XX@@$$@@O+OOOOOOOOOOOOoXXOOOOoOooOO",
"X+XoXXXoXXXXXOXXOOOOOOOOOO@@@+O@@O@@OOOO@@+OO+OOOOO+OooOOOOXXXXXXXXo.++.X...XoXXXXXXXXXXoXXXXOO@@@$OOOOOXXOOOOOXOXXXXoXXXXXXoooo",
"XX.X..X.XXXXXXXXXXOXXXOOO@OOOOOOOOOOOOOOOOOOOoooXoXXXXo@++oXXXX.X... .X.......XXXXXXXXXXXXXXXXO&@@OXXXXXXXXXXXX XXXXXXXXXXXXoooo",
"++o++o++XOXXOXOXOXOOOOXOOOOOOXOOOOoOOOOoOOOOoooOooO+OO+@+@OOOoOOoo+o++XXXX+oo++++++O@+@@O@OOXX$$$@OOXOOOOOOOOOOOoO@O@+O+++OO++++"
};
