/* XPM */
static char *result[] = {
/* columns rows colors chars-per-pixel */
"128 128 61 1 ",
"  c #1CF615B6139E",
". c #1F15179F154F",
"X c #210C193F16DA",
"o c #25281CBC1A17",
"O c #28F31EBF1B4F",
"+ c #27621FD61DB9",
"@ c #2C5421B01E09",
"# c #2D8124692193",
"$ c #2F5027F625BB",
"% c #31C3260421B4",
"& c #354C293B24B1",
"* c #39772C0026B1",
"= c #34F82C4729E6",
"- c #3C6E2E7228F1",
"; c #379B2FF02DEB",
": c #3DE730642B42",
"> c #3D85344731E6",
", c #43C533B82D13",
"< c #47D536F32FAB",
"1 c #43F136D03206",
"2 c #48253760301C",
"3 c #42BE38D53637",
"4 c #4BEC3B083350",
"5 c #459D3C3239F5",
"6 c #48DA3EE13C71",
"7 c #507E3F1036DD",
"8 c #50C83FB337D5",
"9 c #4AC240F53EA0",
"0 c #51943FE6378F",
"q c #54AF429E3A14",
"w c #594346703D73",
"e c #5B9748683F1F",
"r c #4DB8440541D2",
"t c #50D746BE4463",
"y c #52EB48E2468C",
"u c #5DF64A8740FC",
"i c #55BF4BF449C8",
"p c #58EE4ED84C8A",
"a c #5B0250F84EB3",
"s c #5DD853F451D1",
"d c #61F44DED43D4",
"f c #65BA512B468B",
"g c #672E52B8482A",
"h c #6A78554B4A0E",
"j c #6E8058D34D16",
"k c #71025AF44ED6",
"l c #60E156C65493",
"z c #630358EE56C2",
"x c #65DD5BD759C4",
"c c #69065ECB5CAA",
"v c #74455DE0516C",
"b c #6B3F60FD5EE1",
"n c #7728608D53E3",
"m c #78A961E1550C",
"M c #7BBF65245877",
"N c #6DF7639F619C",
"B c #712866A464A6",
"V c #736C68DE66DD",
"C c #76216B88698B",
"Z c #793B6E996CA3",
"A c #7D7872B270BC",
/* pixels */
"xzNNNccpasa9ryaya96.#5iyyaiiy9rsxasiias33itr935ia93+$+#$=ryrrrrr935953;;>>39r5ri651%#>y9axp9r93669r9yr6955#O$6yslaiir666riaslzcz",
"pcCCCcspiyi9tiazi>;=&rriaiyyr9yyzaiiia9;>36rtr3as;3$#+$>9tyr9y99r69955>>>;5996yp553#+=yralarp335ratyr56>5$X%;tlzpzpt59995yisxzsi",
"rbNNNzcpiiityysss9=;,aypllt95aaisatr533>35rriirry;;$++;$rr9ryrrryr999533>>365rzp53=O@=yrysriy3599yty9>=#$oO&raaipixss6iitiizbcly",
"6rrzzcspirtrisasxi;>iiiipty9aazassyiii533rtyipi$$+;#+X+$61=319r99ryr96556565yrry1==o==ayssipt6669rr95;$+ o>riaazliizxiiiiiiscxs5",
"ryrissypia6rylaaar=$5a339ytiaszssapiai555tiiar;o=X#ooooo@#+#=93=3iyrr999599959691==o*aaay9iitr56rrr96>+.X35iyxlslpipciiziisparr5",
"yir6iptrltyyysaaly+$rrr69yiiissst>9tt669riia5r;+Ooooo+oooo+oo$;,riyyrr95359yrr;;;;+.=llapry69r96363>5>@o6ritiNzlspxxNpssiisi6r9>",
"ayr;rrryst99aar6l5+#yyrr95tzsai9965rtttirisy>5$+ooOOOOOOOOO@XX#$19y9y965>;>5y9>>;$ #3llirsi566r3>5=>;=+@5rriyxisaixxNpsiaxzprr5>",
"ir>>>rpsari9yyy365#.ryyyyiry9ya3t56rr6itrr33++XXOOO@O#OOOOOoXo@O=r19y9953>>>yr5;@oX;3ssrist5>95>+=$$$+X;;4y9aztsalaVNzpsNBcprrri",
"pr>59rriirr>33a>>%oXO=9ii5r>99s5r36r59ipi51%XOOOOOO@@@O@%@OOooOO*9>yrrt93>;3ti13$X$>3ptr6r3>6r9;@@+oOXXO=66>tsrzzNbCBNlbVVNiriiy",
"a6;555ry5>3>,;3@o@%OOo=t956>>rs9r1r99yipat>OOO@@@%@@@@@@@@@OOoOO&>5iiyt933>1yi6=+o56ia39>563r61+@##oOOOO@=16t5aiNNVVVCxbVBxr5rsi",
"y55>5599;;;5=@@%@%%@ooo>r55;>ya>65t6yipsay%XOO@@@@%%%@%#@%@@@@o@=3iaiy>>>33593;& #3ryt61=131i1=O@#%@OOO@o#3islcpZNVbNVbBVNxi9iii",
"6556559r533;OO%O&#%#OoO=rr53>ya3559tyyiis&OOOO@@%%@@%@%@%%@@OOoo@;9li3>3;3355@ Oo$=3655>;96p6%@@%%%@OO@@@$:iplisBbzbbVNBcBsirszi",
"rr;569rpsy6$o+O%&#%%@O@>r9ri9ir566yr9r6rr#XO@@&@%%%%%%%%%%@@OOo.o;3p995311;=+ X+Oo#=:33=696a5=1@%@&@OO@@O+3sicscCzNNbVNBbbiiixbb",
"t35rryi9y;;$+#%&%&%@%%@,tiiiry5959ty6tyr;OO@@@%@&&&**%&%%&&@%@Oo#=;rti9,3>O  oO%#oO;=513919at;#=&%@@@@%@++siscsNBclxzzNNNbbzsxzz",
"5655ypyp>$$+$=&&%&&%%%#;yiiiry935ttt6r5>@X@#@@%%*&**,%*&**%&%O@o$=;6ryt+Oo@%+O#=*@ o&>13t>1i3;O&*%%@@@@@+;siixcVsczNxNZCNNxsassr",
"3556ypyar$+$=&&&&%%%%##=9iyiry999yy6961$oo#%%%%&,**,*,*****&%O%Oo=&9;;-@++%%%%&*=&%##X#@>5*=53O%&&&#%%%@$;silpVNxbNNNCBCCBNbxba9",
"9569tids8%%%%,,%&&&@%%%&ryapylryrry566>ooO@&%&&&*,,,,,,*,****%%@O@=5%#@#%%%&&***-**&%%OO&3;;i1+%%&&&&&@@;19iaixCsaxBVBNCVNbNNrii",
"y56yyazp3,%%%*****&%%%%&ytyprytrr9y965=.##&&&**-*,<,,*,,,,,*,%%%@+>r==o@%%&*&*-*****&%%@==53a6@%&&&&&&@@>p5tppaNaixxsbNBNVVNVrzs",
">yyraaxspt@%**,**&&%%&%@y89ytyyy95rr--# %&&--,*-,,*,,*,*,,,***%*$o;>;=O#&&&&*---,-***&%%&;3&y;O%%&&&&&@@9ztplytNxrisszxbbxbNVii9",
">5atpypy3i,%%,%,,,*%%*%%55;yyr99>6yy1$.@%*---,--,,,,,,,,,,,*,,**%#1;>=X%&&&&**-,,***&&&&X=3*>33@%%&&&&@9zstiat6rsirisaasssxBClir",
"555i6yppt,$&%,,,***@%%%@=,;r5yr699ry9XO%**,,-,-,,,<,<4<,,<,,,,**=%*;=X%=*&***-*,,--**-&*@+5;,@@%&&%*,&@=iaattt39zsarrrisczsxVsi9",
"r99yryylr&&&%,,%,*&%%%%@%136tt6it9tqOO%%---<,,<<,,<444<<,<4,,***&%=;$.%>**&**---,,----*-%O&%#O%**&&--&@@-aaaittrrxr555rsxsislxsr",
"r5yysypy1%**&,%,%&%%%@%@;33>333yy955@%&,-,,,,,,<<<47444474<,*,,**%O%#O&&,-,*-,,,<,,--,--*&&=%%**-**,&&&%#ala6ttrr95;;;rriiicizxi",
"ppryyyia=&*-,&,,**,%,@&*#>3,1331it%%%**--,<,<<<2,<4774784<<,,**%**&%%******--<,<<<,,----**&*****-,-***&&#tii=tt3r>;>y55sxxilxssi",
"iryittty**,,&,&&****&&&@@>#;163566#X%*----,<<44<,<777w774<<<,,*,*---*******,<<,,<<<<--,,-*<-,***,,----&-&#>5&>>iir5rir5xcxiisr5s",
"5taaaaaa&%**,&,%,*,**,%@#&&%6rspa;6@%:-----<2<2<,777we7744<<,,*,---**-**-,-<,<,<<0<4,,-,,-,-,**-,4,-,*&-*&=>%5ipi5riirixxiissr;r",
"riyasait&,*,,&&,,,,,,,#%&&&%triis$1#%---,,:,<<42<777777744<,,,***,,-*-*---,-,<,<<44<<<,,,-,--,--,,,,,*&-:-&==-aarrrri55i95iri9;;",
"3ryspzay%,**&,,,,,2,2,&%*,*&3ttir#&&&-,,,,,<4247<777777774<,,,,,-,-***-*,,,,,,,,<47<<4,4<<,<,-<,4,,,<,*,,,*:&9sai5rirrrrr5rii5;5",
">yssxzs9&,,,*,,&&*,,<,&&,,,&&,61&#%&%*,<,,<24<4474<4<77444<<,,,,,,*****<<,-,,,,<<4q4444<,<<<,,,<,,,,<<,,4,:=$;5iririr5i5r5ri55;;",
"rrisxss>%,,*,,,,&,*,,<,%*,**%&$+O%@**<,,,<240<4w4477<77444<<,*,*-*,-&*,,,-,,,,,,44744447,<44<<<4<7744q,74,:%$$$$;5r5iiriirri5;rr",
"9rsssist***,,,,,*&*,,,,*,,*&#+oO@%&**<,<2247q<77744<747744<,,,*,,*-*&-,-,,,,<,,<447q7eq<,<4<<<4q8,78884441>;$$$$$+$;iririirr5rr5",
"5yisxsssy&*%,,,,,***,,,*,**&#X.O@&*:-<<4047q7<74444<47474<<,,*,**---*-,--,<<<<<<4440qw7<-4444474,,,,47444533>;;;$+ +iiirrirrirr5",
"99iiazasa9=6,,,,<,%*,,,,,,*%&%@%%&*,,,4772788222<<44777774<,,*,,--***,,,,,<<<4<<4470w04<<<4447442,-,24q88772,,,:*@@O9t36>,96rrr6",
"99riiziyi5&&*,,*,<,,,4,,*,,%%&%%*,&,,777727u722,,<<4747q74<,%,,*,-**-,,,,,<<<<<4770qw74<,<474q4442,,<44wq88742,::-*&#=>;=%3ait66",
"995raiiia9$*&,&*,%,,<<,,&,**&&&%%,,,28e8248w722,,,<<477q74<,,,,,-**,,,<,,<<<<444000qw744,-4qq4444,,-,,48weue842,,:-:*%#@#&9ipyyt",
"9r59yysxa;==**,&%*,,7,,@%%,*,,,&*,,,2w8848ww722,,<<<<447e77,,*,,-,,,<<<,<<<<44744q0wwq74,,4u07244,,,-,,728wqww824,,,,:-*X$>tipyi",
"9955iizart****&**,,,<,%@,*%@,,2,,<,,477827d872<,<<<4<<<7qq7<<,,%*-,,<<,<<<4474770qwwuq04,,4e77742<,,,,77288w78wqq42<,,1:*&%>tprr",
"r599tisa6r&**&%,,%,,,%,,,,*@%,,,727447778eww8224<<<7<<<74wq4<**%-*,*,<,<<<444777qwquuwq4<-4ww0772<,-,24<,778848qqwq847,4:=@#9air",
"r9599tya7,%**%,*,,,*,,,<,<,**,,,,,42224787wdw444<<<4<<,<7q4<,***--**,,,,<<4777777qwufww74,4uq7427<,,,42<244444882qwdeq71,:=X1isi",
"yr999tyt66&*%%,,,,,,,,<<,,,,%,,,,<74477442wee7774444<<<<eq<,,,,,,,**-,,<44447777qwewudwq4,4uq744<2,,282,,<,72<88<wqqfw4,:,*+%9yi",
"it96rtyr3>%%**,,,,,,<447,<,,,%,,,427474472ww8w884474<4q4uq<<,,,,,,--,-<<<4474777qeqqwudw0<4ew4722<<,<4,,4,,<,4q4<440uu04<:*%X9ii",
"iyarri5yr;%&,**,,,,<7484<<<<,%@*,,<<27<<,7www8weq0007q70qq<<,<,,<,--,-,,444q0777qwqqqqdeq47eq44724<,4<<,,,,<44qq2214weq7<,*&o@yy",
"apyyyi6y&%@&***,<<477777<<74<,%*,,<<7<,,278wd777eqqqeq704q<<<<<<<,*,,,-,<40q0q7qwq70qqufe44q77q272,24<,-*,4488weq04400744<,&@#ii",
"tyttyay&#%@**,*,<478eu74<,e42<,%,,<7<,,,778w8777quwqqwq7<q<<<<<<,,-,,,,,<470qqquq777wwweu7qe47q724,44,,-,,4244weewuqu44224:&@&37",
"yrrryap#%%&,*&,,478edue7448772,**,44,,,,<4777277qwdwwuw707<<4<4<,,-,<<<4<470wqqq74447qqwew7e444488,w<,:-,,<428eqwdgw0q0112,*o#>9",
"y96rpay#&,**,,,,788udd88444e772<*,82,,,,<<777477qwedudewq447<4<<,<,<<,<<<740qqw7<<<<<477wu0eqw4487<47,:,,7<<47wqeguequq4,,,-##9r",
"t>666y9%****,,,2778ufue88444ww2<,,4<,*,,<4877778qqwdhfew077444<<<<<<<<44,470wwedq444<74447ww704<<78<,--,448448q8ufuwwq042,:-#@66",
">13,,&%%*%*,,22478uedduew74<777<,,*,,*,,<<778888qqwuffewwqq0004444<<44q4<7q7qwqdfqq07qqqeuuq77<<848,:-,,,44488wwufuwwq04<,,*#o:3",
"%,;#XOo%&,,,,4478eudfduew772<47w,<,,@*,,,447878e8eeudkddwwqq074004<<7q74<<7qwwwuuufeeuffueew44444<4<::<244q0qqeuhjggwww041<*O O=",
"Xo X#&&,,,,,<4888uddfddeeq742<47w72,*%,,<47787888wedgjgdewqwq00qq0<4qwwq<q4w7qewuuujjfuewweq7444<22,*,444qqeqwdfhdfdfuuw04<,=o X",
"+#%%*,,,,,<44488feudjfuew7w77,<27d72,%%,,477u88eewedfjvgueewqqqqqq4<<4w4,47qqeewwufffeewqqqew704<4,*:<40qqqqdfhvguufeuuueq41<&@O",
"=1,,,,2,<<47448dgeugkfduwww77<<<47d7,,,&,44788e8wwudhjhvffeewwwwwq4<<<qq<<q7qqweeeuffeuwqwq47q74,2<*,400euuuffhhduudwww0qq4<**:&",
"4,22,2227477878uuddhvfuuww772<,,27882722,<77788weedhggjhhdudewwewq04<<74<447qwweueeffuwwqqw4440<,:**,1eudfeeudghuuuew0q0442:-<::",
"242272277778wwdeudfkhgueee774,,,27778wd7,,<78wwweddgdgddhhffueeeewwq<<,<4,<7qeeeuuuffuwwqqw4<<<4,,,*4q00euwwefghduwwwq444,,,<<-,",
"4774778ww78eudueddhkfddue77774,,,42w8dw74,<78wweuddudfhdfhkfdeeeewqq04,<4,<qqweeueefduwwuqq<,,-,2,*,7444qwqqqffhuuwwq044<-,<42,<",
"7888888we8eeddddffjhfdddee7774,,<,4w8de84<,7778wduududdhffvjfduddeeqq0<,<<<44weeweuffuwwq7474*,40,-,:,,4477eeudhuuww0444-,244<<2",
"88uu8ededeedddffhkkhgdddew7w87<*,,7w8dd872,278weeeuduudhddjnjffffeuqq44<,,,<7qqweeugguwq044<,2477,****<<24447qdfeewq02,:2444q<24",
"8u8ddddeeddhfhhjkjjjhddeewe774<,,,7w8wgw722278wdweudeudddjhjmjffhdewq7744*-<4qqqquugfewq774,24q42,<,*-,<20qw4wefeqq44,,4440qq240",
"8ddfddddddhhjkmkjhhkgddewww774,,*27wd8gw872287d8wduuuduuddfhvmhffffwwqwq7,*,477qeuugduw004,<47w227q4<**<20qwu4qdq70<,<0700qu00qq",
"dddfjghhhhjvvvkjghgjhdueeew872,,,27wd8ddw8828,747eqeefueudfjvnvjhduweewwq7,*477qqeuhduw042,44q0<0qw74<*,4quwge7w4<,<4400qee44qee",
"dddhhhjkkvjjjhkjfhgjhfdeeewe772,*28wd7ddwww8,,7777qqeedeuddvvvnvfddeuuuwq74,,47qewdhuew0414wwd04qddq74<,qweefdw044470qqudq24qeud",
"ddhjvvvvvkhhhjjjffjhhhfduuew77<,,27wd8wgddd82,272477ueddudhkmvvnjhffdduuew7<&<7weudgewq74<47u010wdfwqq4,qqwedfeq70eqedde027qeudd",
"hhhvvkjjvjhhhjkjhfhhvhggddew777<,28we8wkhggd72,22<<77edddfkvvvvvmvjfdduduuw4*<7wueugeq74<*,444qqegkeqq7q4qedegdeeeuufgq74qqeuddf",
"hjkvvkvvjjhhjhjhgffhkhgffewww722,4wdwd7dkhhd8772,,,27uuudfhhjnkkvnjhffdufuq4<-4wequdq04<,=,,<04qddkdwqqw40qudghddfhkge74qeedddff",
"jkMkjhhhfhhhhhhhhhhhkhffdee887,,<00eejwqwkhffqw4,*-,<wweufffhhjkvnvjjjuufdw04-<0qqeuq0<,**:788ededvdggde040eujnjhvjfuq<4wwuffdfh",
"vvkjhhfhfhhfhhhhhhhkkhffddew82<,<4wegjgu4wdhduw4<-,,<04wwudffffhjvnnkjjhduwe0<-4qqwwq<,4-*<<7wqddfkdeweuwq0wdjnmvkfdw44qwufffdfj",
"vhkhkfdffffdfhhhhhkhvkhfdee887<*<wwefffduw400ww0<<<,-<<<4wwuuddhjvvmmvvjfueqq4<-<4qq<,,,-47<7wugddffugeew7wuhMvhfgfuq<7wuufhfhjn",
"hffhhfufffhffhhhhhhhkhggdwew87,,0weeufvffuwwq0dq04w<<,we0wwweuufjjjjjvvjjdeew04-,<70<<,*,400wqwuddkhhhguq7whkvjgdddu7<qwuufhhkvk",
"fdfffddfdfffffhhhfhhvjfddwew87,,qwwuudhfdufew0wwqqqw4<,<wwwdhuudjhddfhjmjfdweqq4,:<7,,,<477queueddhjjhudqquvkghuwwqw44quuhhjvkjh",
"fuufffdhddffdddfffhjvhfdeeew82,<qweuddfvjffuueeuwqwww4<-,<00euufdddeudfjmjdeueeqq,-,*<<0740eqeweddjnnhdd0wjhddduw044<wuddfhkhfff",
"fuuddfddddfduuddfddhjhfddde87<<4qqwuuddhjhhguuddewwqw0q4*,<<wwuuqquwwudfhjjfjffddw**,40447qqueeudfjnhhhduhddwweq044,40wuudfhfddd",
"ufuufdddeedeuuduweefkhdffdew4<48qweuduuhvhffdfduueewwww4<*-<4wwue44qqqeddfjeeeeq4,-<q0400q0qwedudhnvddhhgwwe07707<<,<7qwuufhdddd",
"duwufuueueueeeeewwwuhhhddd88427wwqweuuufkhkffgddfuduuw044<--<4qq00<<<40weddeq004<<<4qwqqqw0wwuufhnnh0hgdwqqu4244<,-,440qwufduuuu",
"fuwudeweeweweweewqwuhhhfde88<78eeeqwwuufjkhhgkhhfdddwww04<,%,40<4e040<<40ejqq0<<44e4wwwqwweueddfhvkdqjduuqww72<,4,-,<<70qwdudfuu",
"wwqfuwwwqqqweeuuwqfffdhdd87878eduufqqeffhkkffuhgffduww004<<,*,4<4e04<0<,<qdq4<<4400qwuddwwuudhffhngwwjuuuqq077,-,-,,<<40qwdfuewq",
"q40wuwwwwwueudfdfffhfffu877<47eduuwwqeeffhvjgkwfffuuwwqww4<<-*,*<0w0<4<,<<q0<4400wewwufeuedfhhfdkkdqeheewqqq774,%%-,,447qwfewq07",
"<<00qqwuuuuuffhdfhhjfhuw88428edhgfudqwwdhhvkhhfwfjuduuww04<4<,-*-4fq0004<0440004wwwweddeeudhhfdhnju2udwwq0000q2,*%-,,,<4quuq7747",
"<<<<070qqffufdhhfdhjfuwq84427eeguwqqwweudfjnnhfuuwfkfuwww044<4-**<0,,-,<4<440qq0wew0wedudddhhdfjjfq7udwqq07777<:*-*,,,<40q004<<,",
"<<<<7<77qwddfdhkdfhffuwq772,2reeuqqwuuufdfhvkuewqefuudduww0qq<--,,-,,,,-,--,,,,00qqwwwueeufuufhvfuq7udwwq07742<,-,-*,,<4q474,,,-",
"<q<,<<<<7quwuhdfudfueuwq774<<7qe000queuufdhhuuwwuhwefkhffuewu4-,,<,,,<<<,,**-,<0qqwueeuuufuhdfhjuw2quuw000q7272,,,,,--,q<<,,,--,",
"<q<<,,<<q00qddddgfhwwdew777<,<44000wwwwwudhdweeudfjffdduuwwqww,,<<<<<<<<<0,<%-<40qeqwuuffdfdjhvdwq<0eueqq0004<<<<<<<,,,,,--,,,<<",
"qq<0,*,<444qwewdgduw8we87442,,<40077q00weuduww00wuduweweqq4<<,,<<<<4444444q<%*<<40qqqweudufhgkku04<qudqqq444<<,4<<44<<,,,,,,,<44",
"wq0<,,*,<<44qqweuffq8www7422,*,,4747777qwwdewq020wuwqq7044<,-,<<444444<4474<,--<40000qeeeeughnheq44quuqq044<<<,<444444<<<<<<4440",
"dw0<,,*,<<<40qwwddhewq8w7224,*,,<<4<477wqqeeqqw444qq744<4,,*-<<4044q0044444,,,-,444q0wq0qweudkfe4<<0fw0004<<<,,<q0744444<44740qq",
"uqe0<4<*,,,<4qqwudfddqq877274,*,4<<,<<<4rqqww0w2,<04<<<,,-*-,,<44qqq000044<,<<--<<400q44qqqwehwe4<40dqq00<<<,,,,4e047044440qqwed",
"044004<-*,,,400qquduqe887222<,,*<<,,<<<<70q00q44,,<4<,,,-%--,,<<40qq00044<<,,<-*,<444<44400qwfq04<0qdq00444<<,,-,4e04777770qedw0",
"<,<,<<<-%*,,444qqqudq88q8227<<,,2,*-,,<,,<470444,,,,,--***-,,,<<04qqq0<4<<,,,,,-,<<<<<444040qe04<<40dq744<<<<<,,,<0eqq0q0queqq74",
",,,,*%,*%*,,<<44788wq8447782<,*,:,**-****-,22272,,,,-,-**--,,,<<44qq04<<<,,<,,,,,,<<<<444000ww4,,<7qdq7044<4<<,-,<q7quqwuuwq44<<",
",,*,,%%&,%*,,,4<4288u4284882,,,-&*##%&&9565*1:,,,,,<,****-::<,2240qq4<<<<,**,<,--,,<<<<44440wq<,*<wwew00444<<<<,-<<<<wueq044<,,,",
",,,,,,*%,,%,,,4,,<<448484884,,,*$==313scacxli5*-,,-,,**%*-,,,22240w04<<<,,-*--,---,,,<<44400w4,-,<400u07044<<,,**,<<40uw74,,,--,",
",,,,,&,%@*,*,,,,,<<24q444444,*,&$3yaBccbCzxBBt**:-*,**%*-,,,,,22<0q<44<,,,-****,-,,,,,<<4404e<,,*,,<40w704<<<<,,**,,<0q04,,,<<,4",
"<,,,,,*,*%,,,,,,,,,,<8q482<,,**%$y9lBVNczllNNi%***-,****-,:,,,2240q4<<<,----*%&*--,-,,<<4444e<,,<*,,<<00744<<<,,-*-,<44<<,*,<<<4",
"<<<<,,,*,%%,*,,,*,,,24w44,,,**%#$rrzNbNbxplcNl3&*****@*-:,-,,2,2<q4<<<,,---**@%%*-,--,<<<<<4004<,,*-,<7w44<4<,,,,---,4<,,&-,<400",
"<<<4,,,*&&%&&,%,,,,,2244<,,,,&%%3pycbzllllyzl,r%%%*:-**-----,,2240<<,<,,,-***@@&*----,,<<<<<4q<<,,**,,<44<<<,,,,-*&-,,,-**-,<404",
"<44<,,,,,&&%&*,&*,,,,,<4,,-,*&@;3cBxalsplxbay&$$*%****:*---,,:,2<4<,,,,----*&%%*---,,,,,<<<40q44,,-**-,<44<<<<,--*&*-,*&*--,<<<0",
"4<<<,,,*,,,%%&&&*&,,,,<4,,-*&@1,tyrplaaiaxcl55$o@@%@*******,-,,,<<<,,-,,,--*%@%&--,-,,,,<<<4400<4,,,-*,<4,<<<,,,-*&&,*%*--,,,<<4",
"4<,,,<,,,,,*@%&*,,,,,,,4,,,%%15ci5r9iaaalllxssy+++$$====*-**:,,,<,,,-,*,-***%%%**,-,,,,,<,,<44044<<,,**,4,<<,,,--**%%%%*--,,-,,<",
"4<,,,<<<,,,%%%%,,*,,,,,,,,,*%4ixisiiraszsilxir5.++$$==**--,,,,,,4,,,,*******%*%****,**,*,,,,<24744,,,-**,,,,---***&%%@%*&,,-,,<<",
"7,,,,,<,,,**%%&,,,,*,,,,,,%%5zlNszlcssiiiriair;++$$=***-,:,,--,2<<,-*********-%%&&**-**,,,,,2<2q44<,,,*&*<,,--**&&%@%%%&**--,,<<",
"4<,,,,,,--,&%%&*,*,,,,,,,**yyNyNcbslxairisaaar5+$$$;:**-*,-:,,2q<,,-*,****%-***%%%******,,,,<,<444<,*,-**,--****-*@%%&*&*--,-,,<",
"<,,,,,**---*%%%**,,,,,,*-&&iibpcbxssiiaiiisilsi+%%*%*&&****:--,2,,**-***%%%%**-*%%&&&****,,,,,,<<,,,<,<,-*-****%%-*&*--***-,,-,,",
",,*,,,,*--*&&%%&***,,*,,-*%fxBlBNssiiair9issasa;@@&%%%%&,***-,27<-,-*-**%%%@%%%*%%&&&&&,*,,,,-*<,,,,,,,*-*-**%%%%&%,-,<---*--,,-",
",,,*,*&,1-&&%%%%*,*,,***&#ibBbpxssizxbsrslxzasxi3%%%%%%&&&***&*-,<-****%*%%%@%*%%%&***,****,-,,2,*--********%%%%@%%*-<,--,,---,-",
",,**&*&@%&-*1%%%%&,**,*%%>plcaiiassssairsslxlsbxa@O%%@%%*****,-&%---*--*%@%%@@%%%%&&*****,*,---,,***********%%%%%%%%%--,-***,,,,",
",&&%=5>;;3>5=&&&&*--:,--&6latlaaraizzsiiszsxsbzai;@@&@@&%*&**-<*%*,**-**%%@@%@%%%%%*%****-,---*,***-*&&&&&&&*@%@%%@%%***%%%-,,,,",
",,,,3ylily9rl;#&&*-***&&=ysiiaiyzsbxNxyriazbbzirir%@%%%%%&&**-:-%%***,***%%%%@@@@%%%%***-:*-*=**&&%%#%%%&%%&%@%@@%%%%%-%%***-,,-",
",,%,3azBNbttlp;%&&-&&&&%>lszayibxxzsNbzxiisxcsyyla$o@%&%%%%*&*-,*%%-****&%%@%%@@@%%%%%%%*****%**@@0%@@#%%@%%%%%O@%%%%%%%%%*----,",
"**%$,fzxbxi9lx9&%%%&-&@$rbsalbacszaixbxxsriisiiar5>o@%%&%%%%&:*-,*%*-*%*%%%%@@@@@%%%%*%%%&-**%%%%5uay@@%%%@%%%@O@@%%%%%%%%%-**,,",
"&%@1yscsczsalat$@@%%&@%$ybzlazlblxaisbBNs9raii5i65;$+%@%%@%%%**--**&-*%&%%%%@@@@@%@%%*%%%%%**&%@@rsss6O#%@%%@@@@@@@@%@%%%%%**---",
"%#3ipsiscxbpiya=@@@@@@@+txcallilaiiszBbbi9yaaxaii3$=@&@@%@%%%&&&-**%&*%&%@%&@%%@@@@@%%%%%%%*%%@#@1spr6OO@@@@@%@@@@@@@@%%%%%%-%%%",
"@@tattyzNccy9ap=@@@@++>3ycsszsii5isszzzxsssrrsrai5>@+@#%@@%@@&%**,-%@*%&@%%%*@@@@@O@O%O%@@&%%@@OO>5aryOO@@@@@@@@@@@@@@@%%%%*%%%%",
"@5sttiisxxstypp=@+++Ot99Ncaiiazi5txxxxzssssrrrsii:o+o@@@%@@@@%%%*-*&&%%%@%%@%@@@@O%@OOO@@@&@%@OO=36puz@O@@@O@@@@@@@@@@@@@@%%%%@@",
"$5straaxNsaaiia>;+;;+i9aVbsyapspiplzllzczpsrrisit;++oO@@O@o+OO@#&*&&%%%@@%@@@OO@+o+o+o+o@@@O@OOO;39aac:OO@@OO@@O@OOOOOOOO@@@@@>6",
"ysxxasasxssxsysi9qsr;i9abbsitirrisxxsssxsissirxsp$+$oOO@OO+333@#%%*%%@@%@@@O@@o*+X@>>;+$ooOOOO=13rzssy@OOOO@@@OOOO%%@OOX5%663%sl",
"aNbxxxszasxsNiassybs;;;saliy5r5yicBVNssczsrysrsyll&=OOOOOO3p>6++O%%@%%@@@@O@>6>==+=3>63;ooo@pzxilalcp3oOOO@@OO##&1kjzzs=BBBCcBsx",
"sVNsssssasasxbbsbbbb3=$;;9qy6>yslNNNBxccxxiraiy9iir&OXOoOo>t5>X+O@%@@@%@@O@sysy>;=++$rzpr9pzNVNzzzilc6ooOO@@@O+;6abdlcBccbcBNClx",
"xBNzisaziasxsxxbbsaza=.#>>ytittaalbNVbNVbbzrsaryiil%ooo+OOrir3;o@@@@O@@@O@cbzar>>=$$=iczzNxcCbNxNiicN>oOOOOOo+>9bczlbNccNczbNBxc",
"sbczaasbsaaasxxxbiass=+#=riisiapxsxNBbxVbxZlyirriip3#@@@oOiapya3-@OO@OOO%ccccsr33=X$=yassBNxxNNxcpxxa3oXOOoo+>6ybczzxzzxccxxllcs",
"axNzsasNsbxassiassyy>++$=ripaiyyNVNbVNxbslxli5s9rya=X+>3racNzbxz,@@OOOOo>czzzxlai@X=>6ylzcppsszxxsslz3&-XOoo&rsssxxblzszzxlscxcs",
"szcsicsNiNsapriayaiw>+#>5rpxpsrssNNNCVxbzazBrirypp3;=$3>iNxlsaa9siOOOoOr5cszcxasa9$=&>rtapilszsszyasatlr@OXo=6itszxxxclalxxxxNcp",
"sslzzNxxasaiy6ryrps9;>;>>asssssszCBbZbCNBxaBsaaryy;=@+5>ttsaiisrcz6+oor5ycllzcaszz;#$>6risyryspasasplisit9==;3trralxxliisllzxlii",
"sblcccbbxsr6rrrrsps$$>;;9axssssxxBbBBbZVNBxcsassii===$3;559rritpzzs$+isitspllallaxy;#9t=rityriypaiiisrssy9;==3rttyixsaiiiiaNsaip",
"BVNNNszNxayr9iirsar$>iiapsssiiNbxBccNbCABBsc9aripp>>$oo=5553rtrrsslzlccli9tapyypxza=#r5yyiyyy59tairipylsr3$$=3>>99rralsrrillaziz",
"VNNVbxsssiyapssias>+;paiasaipspsxzlisxCCNzbCitasriar;Xor5>53it9rtrsasxxlprtpplppaa5>$9rtilr9y959r669ipp9r>$+$36r5595iyticasbzzVV",
"BBNNNssatttrippisi$o;ipaspissiyxiczsysNVCccxyasapiyp5=+yrtyryr9r3>rrtlczz9rrpriyyyr;=35raaarat953>66riy*5;+++9aaia5t9ryylNBBbBVB",
"BNbNNxzsssy5raais9;;$5aitissytiayzlszsxxxxsripiyxyip5#+6ttpyrr953>3>>txcsssyrstriyr;+9yilliy9i35r;>39a953;#+;ritlpi55irsasllcbBB",
"BNBNbbbxsNytyassi>>$$5rpxiyryrtazlasaiszar59ypirsxs3>+$=;ayrr9r55>>;;5ssyasssyrris>;+9rizayir53>3;33996>5$++$rtisisp9iiriaszbbBb",
"xNNNBNbxsapirayst>$+;5sssiarrrtylsiaysily9i96iityir$;$+#;rir5rrr53333>;355isa59rry3$+5yysli965>>>69r9r6653$++5ayyiayr9yriiazxbxx"
};
