/* XPM */
static char *b13868a694de41c5fc592574f99427595gXeKyWAiHeBR9VO[] = {
/* columns rows colors chars-per-pixel */
"64 64 222 2 ",
"   c #731E00",
".  c #752400",
"X  c #7B2600",
"o  c #772800",
"O  c #7C2C00",
"+  c #7F3100",
"@  c #822C01",
"#  c #833401",
"$  c #8A3602",
"%  c #863902",
"&  c #8B3C01",
"*  c #873909",
"=  c #8B3B0A",
"-  c #923D02",
";  c #963F07",
":  c #8C3F18",
">  c #8E4102",
",  c #8E4409",
"<  c #934402",
"1  c #9A4503",
"2  c #964903",
"3  c #9B4C02",
"4  c #93440A",
"5  c #994609",
"6  c #954A0C",
"7  c #9A4D09",
"8  c #9E5103",
"9  c #9E530B",
"0  c #954D11",
"q  c #9C4D12",
"w  c #9A5518",
"e  c #A24E02",
"r  c #A24C08",
"t  c #A35403",
"y  c #AA5503",
"u  c #A65903",
"i  c #AB5C05",
"p  c #A3550A",
"a  c #A95609",
"s  c #A5590C",
"d  c #AB5D0A",
"f  c #B45B05",
"g  c #B25C06",
"h  c #B25E0B",
"j  c #A04F18",
"k  c #A35514",
"l  c #A55B13",
"z  c #AB5D14",
"x  c #A45D1B",
"c  c #AC5E19",
"v  c #B25F11",
"b  c #AD6006",
"n  c #AD610B",
"m  c #B26207",
"M  c #B3640C",
"N  c #B9640D",
"B  c #B5690E",
"V  c #B9690E",
"C  c #AD6213",
"Z  c #A6611D",
"A  c #AB631D",
"S  c #AD6C1C",
"D  c #B36513",
"F  c #B96612",
"G  c #B56A12",
"H  c #BB6C14",
"J  c #B2651B",
"K  c #BA6718",
"L  c #B46B1B",
"P  c #BB6D1B",
"I  c #BD7116",
"U  c #B4711C",
"Y  c #BD731A",
"T  c #BE791D",
"R  c #A15F20",
"E  c #9F6125",
"W  c #A46423",
"Q  c #AA6727",
"!  c #AA6925",
"~  c #B26C23",
"^  c #BA6E22",
"/  c #AF7026",
"(  c #AC732E",
")  c #B27224",
"_  c #BD7221",
"`  c #BE7B23",
"'  c #B2752B",
"]  c #B47A2E",
"[  c #B87828",
"{  c #BB7C2A",
"}  c #AF7732",
"|  c #B47A32",
" . c #C16D15",
".. c #C26E1B",
"X. c #C17216",
"o. c #C3741B",
"O. c #C9741D",
"+. c #C4791D",
"@. c #CA7A1E",
"#. c #C47522",
"$. c #CA7723",
"%. c #C57B23",
"&. c #CB7C23",
"*. c #C0762A",
"=. c #C47A2A",
"-. c #CB7D2B",
";. c #D27C25",
":. c #D17F29",
">. c #C87D30",
",. c #BE812D",
"<. c #BD8332",
"1. c #BB853B",
"2. c #C58026",
"3. c #CD8125",
"4. c #C3832B",
"5. c #CD832A",
"6. c #C6882E",
"7. c #CD892E",
"8. c #D28126",
"9. c #D3842C",
"0. c #D9862D",
"q. c #D48A2E",
"w. c #DA8A2E",
"e. c #D6902E",
"r. c #C28633",
"t. c #CC8434",
"y. c #CD8C33",
"u. c #C58D3B",
"i. c #CC8D3B",
"p. c #D28632",
"a. c #D98730",
"s. c #D48B33",
"d. c #DA8C34",
"f. c #D38D3A",
"g. c #DC8E38",
"h. c #C8913B",
"j. c #CB923C",
"k. c #D49135",
"l. c #DC9136",
"z. c #D4933B",
"x. c #DC933B",
"c. c #DB993C",
"v. c #E18F33",
"b. c #E08F38",
"n. c #E29236",
"m. c #E2943B",
"M. c #E4993D",
"N. c #EA993F",
"B. c #BE8B40",
"V. c #C38C43",
"C. c #C59444",
"Z. c #CC9542",
"A. c #CD9C44",
"S. c #C5964A",
"D. c #CC9C4B",
"F. c #D39543",
"G. c #DC9540",
"H. c #D59B43",
"J. c #DC9C44",
"K. c #D39C4A",
"L. c #E49B43",
"P. c #EA9D44",
"I. c #E49F49",
"U. c #CDA14D",
"Y. c #DAA245",
"T. c #D4A44C",
"R. c #DBA34D",
"E. c #D6A84E",
"W. c #CEA353",
"Q. c #D2A552",
"!. c #DBA651",
"~. c #D5AB54",
"^. c #DDAB54",
"/. c #D5AD5A",
"(. c #DCAF59",
"). c #DCB056",
"_. c #D6B15C",
"`. c #DCB35C",
"'. c #EBA045",
"]. c #E3A34B",
"[. c #EBA54B",
"{. c #E4A84E",
"}. c #EBA94F",
"|. c #F1A74B",
" X c #F3B14E",
".X c #E2A750",
"XX c #E4AC54",
"oX c #EBAC53",
"OX c #E2AF59",
"+X c #EDAF58",
"@X c #F2AB51",
"#X c #E7B052",
"$X c #EDB155",
"%X c #E3B45C",
"&X c #EBB45B",
"*X c #E5B95F",
"=X c #EDBA5F",
"-X c #F2B056",
";X c #F1B45C",
":X c #F3BA5D",
">X c #F9B85A",
",X c #DCB661",
"<X c #DDBB65",
"1X c #DDBE69",
"2X c #E4BC63",
"3X c #E3BD66",
"4X c #ECBC63",
"5X c #F2BE61",
"6X c #DFC16B",
"7X c #E3C36B",
"8X c #E7C46B",
"9X c #EBC46B",
"0X c #F9C769",
"qX c #E5CA72",
"wX c #E7CC75",
"eX c #EBCD74",
"rX c #F7CD71",
"tX c #EBD279",
"yX c #F3D276",
"uX c #F9D579",
"iX c #F9DF81",
"pX c #FCE588",
/* pixels */
"g.eXm.3 X O & i X.H H d t 2 & 2 d.].s.%.G u 3 s H H < 3 u  .a.x.c.a.9.#.P 3 2 e  .P.&X2X2XOXm. .e < # y 9.].qXwX3Xs.B i 3 & u N ",
"[.oXP.&.3 @ O & 2 2 < % # # # X.I.oX}.I.9.+.Y #Xl.&.u # 3 i m B M B s t < # t d a.&X8X7X7X2XI.O.e 3 # & F x.7XqX%X&.m m i i X.0.",
"*X7X2XL.H 2 & # O O # # & & 2 F $XeX8XOXL.9.&.+.H &.9.5 . & t 2 & # O o # < i H G.2X7X7X6X<X].;.u e e @ & h c.).&.t # d M H m.}.",
"7XqXqXOX9.h t 2 D _ 2 2 8 u 3 F }.eX8X%X].g.9.+.+.3.+.7.h O O O # # % Y J.t.H ^ K.,X7X7X3X`.L.O.g 1 H -.K @ 1 H < O < i F 9.I.*X",
"7XqXqX*Xg.F i t P #.J.9.V B 2 a @.[.%XR.x.9.&.+.o.X.I P G i < < 3 3 n C H s X.&.Z.`.,X,X`.R.9.N 1 H j.D.D.$.# # # - y t X.n.].*X",
"3X7X7X].g.F u t -.c.F.G.].d.9 5 3 F -.9.9.%.G F F M C l C 7 2 t i t C P I s B 9.i.W./.^.c.O.i < - $.A.A.D.T.&.2 e i 3 3 M 9.L.XX",
"].].m.g.&.i 8 t &.Y.).~.R.9.X.& 2 < d o.9.7.B 8 3 7 6 6 k p 5.%.P z F I H t d &.p.1.u.-.h < # @ e K 1.A.~.,XJ...H F 2 3 u &.d.L.",
"&.$.H B t & t t B s.%X2XQ.R.o.< # 3 i H Y L L t & & & 4 p q.Y.H.H ^ c z p < a g.}.x.F 2 $ & x l t 2 4.A.`.<X`.9.X.H 1 & t M O.X.",
"e < # o o # u 3 u M x.*X^.V.-.2 2 t d L Z x W z p < 1 t H #Xr.{ P O.s 7 u Y 4.y.k.5.t < t H H H F 3 I A.,X<X^.&.h o.m o # 3 h i ",
"o o o < %.#.n % 2 2 i s.Y.<.~ d i a c A ! W W ! D a h M H r.<.,.=.B M t N ~ ) 4.4.) k h a 4.9.&.B 8 i s.OX.X#.= K x.R.s.# . O o ",
"> > u s.T %Xs.t # < 2 t _ ~ J M H M J ~ ' ( ] =Xl.M i h ..C.h.u.<.P h e d { ( ] ' Q ~ d y s 7.9.P 2 2 F 9.! : D 0.9.a.X.z.1 $ & ",
"u i P 9.L.s.3.&.8 & > 6 6 p B d m V P *.1.u.&XyX}.X.y y =.U.Q.h.<.4.M e e ].Z.B.1.| {  .m q F I k 5 2 2 q j &.G.g.R.!.J.o.y t u ",
"8 u 9.oX&XoXg.I o.3 2 d Y.o.n 3 i m X.5.z.{.=X].s.F $ e t.W.Q.Z.u.u.K y 4 ].%X~.D.u.%.H i < 4 & # 2 & & - F o.d.R.(.`.^.g.i u i ",
"3 I m.&X4X&XP.3.n t > > 8 i t < 2 d X.&.d.m.s.4.z @ 1 e i.Q./.U.D.Z.#.y $ J I.G.s...5 $ < y & $ 1 e $ < 2 t o.z.T.Q._.~.J.M u t ",
"t I x.+X4X*X[.q.H s 3 % & > & 2 & 2 m F F H D 1 O -  .- 9.~._._.~.i.O.y ; $ h i - X   @ N 9.x.*X&XN # & - t #.y.D.U.W.~.z.M t 2 ",
"t P q.[.&X+XI.q.P u u i &.m.F 3 # < i u i 2 & @ r J.R.5 - f.!.R.s.h ; - g @ @ X X h x.!.).^.%X%X].X.t # # 7 %.h.D.U.W.D.f.h e > ",
"3 n %.c.@X[.L.9.P p i M X.&.}.O.& # 3 t & # # 3 I.qX7XR.$ 1 O.g $ X X h X.y 1 - u J.x.^.`.,X<X`.`.c.F u & < ^ u.S.S.S.K.m.B u & ",
"2 3 F 5.L.P.x.-.A s i @.l.H.G.&XM O # # # % 2 H 4XtXwX%XO.@ @ X d z.~.,X^.&.N u e $.I.2X3X7X7X3X,XR.p.F i 2 z [ 1.V.A.XXM.m u % ",
"# 3 8 I 9.g.t.^ z d X.s.H.T.W.OX}.d # % < 8 m &.oXeXeXXXO.i < y J.2X3X7X3Xg.H y 1  .n.XX2X2X7X7X4X:XP.8.m u n P =.i.{.@Xa.h i > ",
"& > 8 t Y %.*.P D M @.c.T.E.Q._.+X&X3.t n H M H n.[.[.9.X.i B y 9.2X7X7X7XI.N 3 # 3 X.M.XX&X&X#XoX'.w.X.m t i B &.M.[.m.&.i b u ",
"s = 2 t n @.c.3.F n X.s.~.).).,X4XN.%.9.H I m o.d.3.x.P i 2 F & e 9.%X7X7X].M 3 X $ 2  .n.'.[.'.N.9.H s u 2 u u B &.q.3.I b B m.",
"9 6 , 7 b T y.q.B 7 i X.G.%X2X9X5X'.&.B M B i I &.I H n < 2 H < O $ M L.].9.e u # X $ 1 N 9.v.w.@.i i F P < 3 2 t B +.o.M d p s ",
"n s 6 6 6 x S ` H 5 < 2 X.n.[.-X@Xm.&.M i b i H B M n 3 % M &.g.].u @ 2 r # $ M < O X $ e m X.H u 3 a l l l t < < u M B p d 6 6 ",
"n n l 0 0 w w ! P 8 # & t M X.9.w.8.H i t t u M b b < % 8 L.;X[.X.O.# O o # :.4Xa.- O O & t i 3 & % 4 w Z %.%.2 & & 3 7 7 a M G ",
"l.%.L l L ~ R E A 8 & & 2 3 u i H H i 8 2 3 8 n n 2 # 8 L.;Xx.s.&.B 8 2 & B 0.9XeX3.& O O & < % # # < Y 5XuX[.T & & < 7 s i c t.",
"q.4.T T q. X7.W c 7 2 & & & & < 3 u t % 2 > 2 i 3 % > n 3.s.x.l.5.B u i i X.m.9XwX8XH - O + # % & 8 o.uXpXiX0X&.2 & 6 p n i m B ",
"F =.4.=.k.e.+.C 9 3 2 3 > & % % % & # # t 7 # % # & u P 5.g.x.g.+.b t i B O.M.4XwXwXoXV 2 # % & 2 i 3.rXiXyX:X&.t 5 9 M d t V 3 ",
"& t Y 4.5.3.D b t 2 3 i 9.].%.> % # # 8 q.uX5.& & t u I 5.q.q.3.B 8 i i N o.M.*XwXtX9Xn.V u 2 3 t u o.[.5X:XM.d 7 a -.5.u 2 H > ",
"$.& & D I n 3 i 8 2 t H H I I I < & t X.q.P.x.F u b 8 H &.I +.I d & u u H X.m.+XwXtX9X|.8.o.m i u 8 i V 9.w.X.2 7 d Y ) & i +.d ",
"-.+.# # # & a D 2 2 F +.3.&.I &.8 3 m o.9.P.-XP.&.b & i u t 3 < # 2 2 t i X.g.oXwXeX;X'.m.9.+.i i & 3 t u M t < t D P S < +.L.+X",
"$.m 2 & & i D l 7 M &.l.x.d.@.m 3 < u o.g.+X9X9XL.I & # + + O O & i # & e B &.n.4X4X|.m.d.o.V u m < > 8 8 3 < 2 t d 6 > 5.+X&Xp.",
"-.P u u u h C s t o.I.oXoX[.9.N 3 # 2 B n.&XwXwX*Xa.i > # + O 2 5.+Xn X # 2 i o.M.m.8.+.X.m i 8 B u > & > & > 2 p p & G 6.7.s.s.",
"&.M d d s z l 7 s a.].OXXXXXg. .e - O u 9..XqXwX8Xa.B i 3 & u B g.eXm.3 X O & i X.H H m t 2 & 2 g.+Xx.%.D u p z D s 9 C %.s.M.l.",
"I i i i d H M D J I.2X7X7X*XL.O.e e @ & F c.7XqX%X&.d m i i X.0.[.oXP.&.3 O O & 2 2 & # # + # X.I.oXI.f._ J F y.5.T I I &.s.s.q.",
"G > u u F P H P A G.*X8XqX7X].;.y e e @ $ h G.%X:.r # i m H n.}.*X7X2XL.H 2 & # O O + # # & 2 F $XeX`.Z.-.o.I H F I n H +.&.+.T ",
"< > 8 u H H I P A { R.*X2X2XI.O.y < ..9.K @ 1 ..< O & i F 9.I.*X8XqXqX%X9.m t 2 F #.2 < 2 t 2 B }.eX3XK.t.#.P P F H n M P n d i ",
"# t & 7 F H B H Z / 4.H.^.].9.h - ..!.<X,X9.@ # @ - u t X.n.].*X8XqXqX*Xg.F i t X.&.}.a.B m < t O.[.^.H.>.L D C D B 8 8 2 & # # ",
"d I < 6 M d i H A ! ] y.7.X.y - $ &.,X<X<X(.o.< e i 3 3 M 9.L.XX2XqX7X].g.F i y d.}.oX[.oXd.2 & 2 F -.9.3.I k 9 p d i < & # + # ",
"s.W.#.t a e 1 H #.W ! L a - @ X y $.,X<X<X<XJ. .H F 2 3 u &.d.L.].XXm.g.&.i 3 t a.4XeX9X&Xd.I # < 2 M +.l.Y.B < & < 7 5 < > l H ",
"O.z j r - # 7 x.&Xa.z 1 # . O < i t ^.<X<X<X`.&...H 2 & t M O.X.&.$. .B t # 3 3 F I.9XwXeX=X@.& # 2 u H 6.Z.i.u # # & 5 7 P H.J.",
"9.N 5 ; r =.T.^.^.x.u & a $.d i h & 9.<X<X<X^.o.i X.h X @ 3 m i 3 < # o o # u < 3 F I.eXtXyX'.u % > u L ] 1.B.^ t < 1 t M J.2X2X",
"^.N f e N i.U.Q.T.u.k i d H.m.O.F - u R.(.J.K @ h x.!.d.#   o o o o . < #.+.i # & 2 i m.rXuX>X@.8 & > k ! ( } ] D a d N X.`.7X7X",
",X9.h e i i.S.S.C.} x u M D J.m.9.i # F o.$   y 9.9.a.X.G.1 # & > > t s.T ).q.3 o & 2 u d.>X>Xw.V 8 > 4 w W ] 4Xl.M i h :.,X<X<X",
"`.Y.N e r ].A.1.} ! C F O.=.&.s.[.9.2 O .   F F.g.R.^.I.O.u t u u u P 9.L.9.%.&.2 O % 2 i 3.l.q.X.u 7 < 7 U &X9XI. .u y p._.`.,X",
"_.~.O.u 5 c.%Xh.' S D H -.d.G.g.+.c.u # @ M H d.^.,X,X%Xm.i u i 8 u 9.oX&XoXs.P 3.> + & t i X.X.H u i 8 n c.4XJ.5.v < e i./._._.",
"/.Q.$.f ; J I.s.T M t C %.x.L.L.s.H t 3 < y ;.R.,X<X1X2X].N u t 3 I m.&X4X*XP.3.M i & % < u u i u 2 i b 3.[.J.y.J ; a e y.~./._.",
"/.F.O.y r 4 N a t 2 & p o.g.L.L.q.I t t < i b.(.<X1X1X3X].N t 2 t I m.&X4X4X}.g.+.I i % * & & > & 2 t m @.l.y.) q r  .1 -.Q./._.",
"p.h 1 - g $ # & 2 i z L U 3.q.q.%.F t 2 2 h M.%X<X<X1X,XI.M e > t P s.@X;X&XoXm.5.H +.u > & * > 2 b t 2 b D J k v c.J.5 1 t.K.K.",
"- @ @ h  .e 1 J H Y k ! S Y +.G G 8 % 2 2 y M.%X3X<X,XOXL.h e & 3 n &.L.-X-X@XL.q.+.I +.b 3 2 H uXl.F & & < < u c.,X_.i.; 5 X.h ",
"h f.R.(.K.X.N i D X.l W ' [ ) w 6 & & t 3 t a.OX2X2X).oXM.i t # < 3 G q.'.@X|.M.s.3.Y T B i 8 o.m.-.F J.a # < F !.,X/.F.O.; = @ ",
"J.(._./.~.g.X.d t O.P 0 W ( w s 7.$X3.M t 3  .g.].XXoX-Xx.i i > * 2 8 I d.P.I.x.5.&.o.B i b & +.n.d ..| J u 2 D f.Q.Q.J.O.d 1 y ",
"9.(._./.`.I.H p 5 a &.I 0 0 l T 5.9.X.s t < y H 9.N.@X}.k.M m i > 6 8 t +.s.x.q.&.o.I F i M 3 x A P g.[ ` X.i p #.t.x.9.X.i B y ",
"t 5.!._.2X].P s = 5 t @.8.G C ^ &.H p 2 u & 3 t B &.J.Y.y.Y +.l.s , 3 u n 3.x.9.+.H B G n I P l C 8.k.z.2.%.B M Y Y 9.H i 2 V & ",
"O & M x.I.9.s m = * 5 t H m.o.z l 7 t &.5.2 2 2 t V q.z.5.` _ P p 6 4 s M y.Y.q.H s i M F %.2.y.x.}.s.T Y Y M B P G F n < 2 H 2 ",
"].u # 2 t & ; V 2 * # 5 i B F d 3 3 D J z P 3 < 2 i O.s.%.I c l n p 6 9 z F.T.H.I 3 2 2 M o.%.l.oX].y.Y G G n M M M d 3 % M &.g.",
"o.O.& O O $ 9.2Xa.< # $ < u u 3 3 8 l x A %.%.2 & 3 n J J P P I n d 9 9 l V.W.~.5.7 # > u m M a.J.k.%.G n d d n i b 2 & 8 L.;X}.",
"&.B 8 2 - B 0.9X8X&.- @ # > < 2 2 p Z ` :XpX'.P & < 2 3 p d J *.L D d s %.Z.D.W.t.t & & 3 3 d I 6.2.G s 9 9 p n n 3 0 t G.&Xz.s.",
"5.B u i i  .n.2XqX2XH - # % & < < D 5.uXpXpX>Xo.2 < 2 7 t 5 5 B z.T.+.d -.-X%XD.-.8 2 < 2 & 2 l S G n , 9 4 3 u 8 % > B 3.s.x.l.",
"%.b t i B o.m.*XqX8X].M 2 < p < 2 m 5.rXpXuX@X3.s 6 7 i u 3 B X.5.y.3.B c t.J.%.d 8 2 s 2 % & < 6 6 , > u 8 % % % & u P 5.g.x.g.",
"F 8 i i B X.n.XX7X6X).9.B u 8 3 8 u o.'.@X@Xq.+.n s l H h M &.n.z.r.t.9.F c J i u < 7 M 9.f.L & % & & t 9.uX5.& > t u I 5.q.s.3.",
"d & u u H X.n.oX8X7X*XL.&.X.B i t 3 i I &.@.&.P d p 4 F P &.s.H.j.r.r.s.o.i t 8 2 & 3 V H H F D > & t X.q.P.l.F u b 3 H &.I +.I ",
"# 2 2 t i X.g.oXeXeX$XP.v.9.@.m i & 3 i M B n n 7 < r i H g.].K.Z.u.1.i.&.B u 3 6 2 i V @.@.I &.3 2 n o.9.P.+XL.&.n & i u t 3 < ",
"% u # & t B &.n.4X4X[.n.w.+.H i M < > t i u u 7 5 t u u I n.].XX~.Q.W.i.&.M u 2 2 u B 8.w.9.@.m 8 < u X.g.oX8X4XL.X.& # # + O O ",
"5.+Xn . # 2 i o.m.n.&.O.X.B b t V u < & & & < 2 a M 3 3 B -.L..X).`.^.f.$.d 3 3 d  .v.'.[.P.9.N e # 2 M g.OXwXwX=Xa.i > % + O 2 "
};
