/* XPM */
static char *result[] = {
/* columns rows colors chars-per-pixel */
"128 128 88 1 ",
"  c #151515",
". c #1D1C1C",
"X c #271F14",
"o c #201F1F",
"O c #2D2316",
"+ c #20201F",
"@ c #2D2418",
"# c #322617",
"$ c #342817",
"% c #322718",
"& c #35291A",
"* c #3B2D1B",
"= c #3E301D",
"- c #242424",
"; c #282727",
": c #282827",
"> c #2C2C2C",
", c #362D22",
"< c #392E21",
"1 c #3C3224",
"2 c #30302F",
"3 c #3E3529",
"4 c #343434",
"5 c #383837",
"6 c #3C3C3C",
"7 c #43341E",
"8 c #453621",
"9 c #483721",
"0 c #463824",
"q c #4C3B23",
"w c #413629",
"e c #453A2A",
"r c #4B3D2B",
"t c #513E25",
"y c #503F28",
"u c #403F3F",
"i c #4E402E",
"p c #544126",
"a c #584427",
"s c #55432A",
"d c #5A4629",
"f c #5E492B",
"g c #4E4130",
"h c #40403F",
"j c #544531",
"k c #594731",
"l c #574833",
"z c #5C4B34",
"x c #5E4E38",
"c c #634C2D",
"v c #684F2E",
"b c #67502E",
"n c #69512F",
"m c #634E32",
"M c #614F39",
"N c #665132",
"B c #6C5431",
"V c #6F5837",
"C c #645239",
"Z c #6A563A",
"A c #6E593C",
"S c #715732",
"D c #745A34",
"F c #795D36",
"G c #735C3C",
"H c #795E39",
"J c #7D6137",
"K c #7D623A",
"L c #444444",
"P c #484847",
"I c #4B4B4B",
"U c #545454",
"Y c #5C5C5C",
"T c #755F40",
"R c #766041",
"E c #7B6342",
"W c #636363",
"Q c #6C6C6C",
"! c #737373",
"~ c #7B7B7B",
"^ c #82653B",
"/ c #85683E",
"( c #816640",
") c #846941",
"_ c #8E7147",
"` c #838383",
"' c #8B8B8B",
"] c #929292",
/* pixels */
"rqr8e81ewrreeee<o;2446uu6uuIIYYUUUUIPIuYWWYWYWUIWWWWYWWWUUYUULWWYULIIUULIIUUUIILILuILLPUIUYPLUUUYYIILIUII554224421$118jzzjxzxMzs",
"rjzjjkjjkzzjjjy*..-;>22>524uLIIILLLLLL6PUUUUIUYIIUUIIUUIIIILLUIPLuPLLIL666LLL6664546u454IuLuL6LILI65666L424:2>>-gxkjNCRGEZGEERA8",
"izmNcmyryyptss8# .o-:>;-:>25LIIILuLPuu6uPPPuIIILIIIIIIIIIII66IIPP5uuuLIL66LL666444444446uuuLu6uuL6566L66424422--rTBcZHHHDGDGHSv9",
"jkfpcaq99tqtfy7O..---->>;>246LLLL666PLLLLLULu65LILLIIIIIIIIu6ILII4u6LILL66LLu6444444444466uLuLIu65455u54:4564>>-jTHBBbvSHDDDHSBq",
"sZmcdtartaacq77X .--;2>>>>>24LLLLLL6PP6LIIILLu6LLILLIILILPPL6IIII4446LII64u66644222544556u6L6uLu6566uu5424242>>:zTHBDDDDBBnBnvd8",
"jGBBcaatapdt77*X .o.;;;>>;>>26huL6uu44u6LLILu66uLLuIIILLLPuLLPIILL224uL6464644442224444455666666446655445422::-+jT^DDDFFFDFSDSc9",
"jCBdtpaactaat7$#  .--o-;---->46666545465u6LL66666LuLLuu6uuL4LPPLP64566664>>22>22422444444256444544546>44>>>:--..jCNmDDDKDDF/HSct",
"ymBffydptpct777#  ..---o--o.->>25>2>244566644566u6u6646655545666u6464664>>;>>>>>>>;2;4>:;>222644444;4>>;>---+...eZBHFFDKK^DDDnBt",
"rGvcqspssfnft77$3@&1131<42w1errjjrgrzzzxxMMxjzlMPlzxMMxlkjrspsxlMzzxzkxjLrkgjjrzgrergjiriirrr88848*<w0ww<,%&&%&*isfcSbBJKDBBDBv9",
"tCmydappapcf77773ggiiieigrrixzxTZZZTETAATETETGEKTTTTNGGGTAMmZZTTGMzCGGZxlTzMACCCAmjlCZCMxzzjgxxzPjjjjszksgreeei=sxffvfcbBDBBvcdy",
"9kccsfsddfbfct7$1i00w0q0=*8789cNB(^^EFBfBHDHBBSD)EE)F^JK^^^//)(KDcBHHHBmCBBBBckscmpmBBNZmvcBmBBDVddmmfcdsqq0pa7*rxqspafNBKHBBDn9",
"8zds9qdcvtcfdat*1e877777777*77sfSFDSFDSvBSSDBB^FDSHSDBSBvSSDFFK^^H^J^SBnBmmvBvfampfpmBfBpymBcBBSctcypqsyq9i9tf77rxqqpdbcBBvcmDBq",
"qCfqqqcbppfpfp7$<e0w7pq7q7q7787tDDFSDBFBBBBdnnFSSvFDDSBnvnSHDHHBBSSnBc9dccdbBSBBnvaadccccpcpfccvcypvpp9qqiq98pq*wssfqaNccBcvSDBp",
"qTDpffadapyppc7O1r97*7=77=777779cSSvSvSSvvDSDnSDBvnnnvBvBvcvvnBSDSFSBBfpvnnbDNvpdcndtdtcftyccvvvddptymqpp790ifq*1qqq9ppppacccBBq",
"sAHBfmBdqadcta7O1i7=***=7777777=vnnacccnSnBnvcSSBcBnSSnSBSSDHvvBSSDFHFDccfcBBncdvdaadddccaapadvcdtyypqacqp7pp7p=1lipy9pcpccSnvcq",
"rMmcffnpavfcpp7X3e*=7*=777===777vvScnnvDvvBSSnSSSvBnnnnnvvvvBSS^/BFBBDBNBddsvpcccattpdttt7ttfdpfdaccdpyqppp7q0p&1e9797ta7yttaap7",
"extddpda797p777O<e*=7=89=8q077qpvnSnSSSDnnSDSSnvnSSSnSSSDSvSSnydDDFFDFDSSvpdfvnBcdptpp777t99tmBcftyfcctttta7777#%ej77=7=77777t7=",
"1stqatyaat7tt77Oei===99977077q7qSSSvSDFDcnvSSScDFDFDDFSSSnnnbptvSDDDHSKKDBDBcBSDSvappfpttvt99dazptptdaqatqatttt$%e9777777qp7aq=$",
"1zpttttpdpt7777*1i=779q7707q7ppbSnccSDnnaanDFFnvFFSSnSnSDDSccfvDSHDHHSDSFSvcmBSBcft7cpp7qt7*9Bvvyataaattt7pccp77%e897===77777*#O",
"1zatp77q77q7q77#3i077=778ipp77paScacDDDSaanv^FSDF^DJFFDFFSScafSFHSBDSBSDHBSSnBBfdatpptt7qdat9vvdpacaBcppyqaccap7139777**=7af7=*#",
"ejq97cattqt7tt7#1wqiqqt7777t7ddfnnvdncmcaannFSF^FDDFDDSDSSSSccnFSSSSvmBBSBDSSpccct7cctp7999qcttttddcnc7taqccvcd7=e879988777at=*O",
"1gq7a77t7777qt7*eNafqpta7pttqapqvvpcvcdctavSDSDFDnDDvcvvnSSSbBnFDSDFSBSBcnBSDvdzatttccvp7qttytttvdpcvaqt7tccnnc71i9=9qp7777pa7$$",
"1i0q7t777777777$8jaapa7qctttpa77cc7tdpysaccvvvcvvvnvvvcnccacfcsCvcvSnnSSccvvcdsdaq7tatt7*7779787ttaccc7q77pcpaq*&i8y=77777777t*=",
"&e=87tt7777q7tt7=q7q777777*77tq77t*777w3777ttqtatttqttq77t7tq*1et7tdtq9tq99979857777777$O7$#*9<,7*79q7***7*777*:1r78==79q77q77=$",
",w07qpp97qt7apt7o:>555552>>5uu654>-;2>226>4466LIhPIIL6uLuL6L54LL6uuuuLIuLIILIu54;;;22>;>;>;4254454244442:->:>2:+gi9p=0pq7q7q77*O",
"%e997qqq7tttaa77:5uIUIUIPhLIUYI46446ILLuLLuIIYYWWWWWWYUYYYWYUUYYIIYYUQQWWWWWYIIuu5uhLu646656LPIIIPPPPPPLLu644u4:glaq*qpaqpp777*O",
"&3qqappq7tyaaca7>LIUYYWYUPIYWQWILu6IUUUIUIIUWWQQQ!!~!WWWQWWQWYWWUW!!~!!!~!QYUUUIPPUPILu66LLLIIIUUPIUUIIIYULPLh521lda897qpp7q77*#",
"&icBnnf97cdqcnc75PUYYYYUYUIY!!WYILUYYWUUUUIIYW!QQ!_'~!~!!QW!!U!QW!`_!!~!!WYYYYUUULUUPIPuLPLLPILIPIWYYPIYUIULu6L51Nffdp777ap7977#",
"@zBdfcBscnnadBn7>IYYYYQYUUUYQ!!QUULWWYYIYUIIWQ!Q!Q~~``~~~!~`~YQQ!!Q`QW!WWWWWYWYUUUYUUUUI6Pu6LYUWPPQQ!IIYUUIL6hPhiCfdd79=77i97=&&",
"$1sdfcbad7ancvn7>5LQQWYYYYYQ`~!QUIIYWUWYYYIYW!!Q!~~~`''~`W``!YW!QWQWYYWWQYYWWYYYYYYUYUIPUPL6LUUUYYQQQYUWWYPuhPPhjZnjs99i7q777=&#",
"*rfbBDBfapcdvdc8;46LIYYUYYYY!'`QWYYWUWWYYUYWW!QQQ~~~~'`~~~!!QWWWWYWWYYYWQ!!`!QQYYUIIPIPPILLLPIUUYUQWYWUYYYIILPULjZcBd9qqq778p77*",
"%efbbccaddvnnSv9>56LhhLYUYWQ!!QYUUYYYWYYYWYWWQWWQQ~``QQWQ~!WQWWYWUYIUYQ!~``~~!QWQWYUUPuIPPLLPPPUPYQYWYUYYYUPLIIhiiNabppp7qa7p7*$",
"&er7q9dqaccSnSc74L66LLLLIIYUQ!!WWYYQWWYWWYWQWWQQY!`~!QWWQWQQWWWWWYUQQQQ!]'`'~QQ!!!~QQUIIIYLhLLLIUYQQ!WUWWWWIULIILlkfcpy9qs7p7p7$",
"&eptqfcadvfvnSc76ILLLLLILIUUWWUWWYQWYYYYWWYUYYWQQWWQQQQQQWQWYWWYWY`'!QQ'']''~!QW~~`!QYYUQWULhLLLIWY!WWYWWYUILLI6ezdyat9yq7p7p77$",
"%zpafcnBSnBSSSv7IUUUIWUIIIYYYYUYYWWWWYUWWQYWUYQWWQQQ!QQQQQQWYUW!!!``Q``]]]'`~~!!~`~!WQQWQWYLLILu6LYQQWIUYWYIL6L>wlyddtddpt7t777$",
"3jfcbdvSDSSDDFS76IU!QWYQIUWYYYUUYWQWYUYYYYWYUYYWQQ!QQ!Q!!QQYYQ``~!``QQ~``]`~QWQQ~!Q~!!QQWWWILhuuPPYQ!QYUWYWUL44>erkdcfvSp77p7a7$",
"rsfdcvBBSDSFDFSt4IUWQ!YYYWUYWYWYWQQWUUUWYYWYUWWQYQQQQQ!!!Q~!!`'`~Q!QW!~~~''!W!!!]!QQ!!WWQ!YU6LLLLIY!!YWWUWII644>yldycdvcat7qpqp*",
"exdpvnDD^DSDDFDt4IWQQ!QWWWYUUYYWWWWWYIUWWIUUUIYYQWQQ!!!!!!~!!!`'!~`'WQWQ!!QQWWWYQYWQ!QWWQWYYYuLL6PUQWYLYILLLL4>4jjyayyttpt777tt*",
"rZddvDSJSSSSDDDt6UYW!QQQQYYWWUQQ!QWWYYYWYYUIIUYY!QQWQQQ!!~~~!Q~~~~`!WYW!!!QQQWQWWWY!!WWYWQWYQQLLuPIYWUPLLL44444oejr9ttqtt77777p*",
"rCddfbDSDcSnDDnt6YWQQQWQQQUYYYY~!!YWWWWYWWYULIYWWWQQ!WQ!QQ``YY!`~Q~WYYW!!`QWWWQWYWYQQWQWW!QQWWWIPUUYYYIL6L6II44>wr7779qtt77777p*",
"qmppfSFnScnSSFSt5IQ!~!QQQQYWYW!''!UYYWQWWWYIIIYQ!QQQQQ!WQQQWYQQ`~Q~!WYQQQ~!Q!QQQWWYYQQQWWWWYYWWQILLUULuuLu56Pu64=a99777777*77777",
"ecatacS^DcaSnnn96UWQ!!~~!WWWW!`']`WWYQQWWWYIIUYW!QQ!~!!QWWWQQ!Q~~!QWQYW!~QQQQQWQYYUWQ!!WYWYUUUYWWUPLuLuLII6ULL6L0pt777777**7777$",
"rCnccvnDnvcDSSf76IQ!!!~~~WWWQ'']`!QYYWQWWWUIULYYW~!!!~~`QWW`!~!`~~QQQYW!!QWQQ!!WQYYQ!!'!YYYUYUYWWIPuuLuLLUULuP428iqt9979777q77$$",
"rxtptanSSScSSna75I!~~~!`QYWW`]'```QWQQQWYYYUUUYYQ!!`'``]`YY``Q``~!!Q!WYW!!QQQ!!QQQWW~`'QWQYQYIUUYuL56LLILUIUIL623i79q9pp7qqptp7$",
"rCsyDvvSSSSSSSf76YQ!~~`~WUW!]]''']'QYYQWWQYUYYYYQ~~``'``~YWWW!~~!~QQWYUYQQQQ!!!QQ~Q!`~!QWWUWUYYUIIuLILYYWIIuIUU5wrq7tqq797ttqq7$",
"rCBffvnFS^^S^^n9uYQ!!~~WWUW~]'~````~WYUWWWWIUWWQ!!!!`'``~QQWQ~~`!~!QYUY!~Q!QQWQQQ!YQ!Q!QWYYWWQWWuL5PPLLIYYLuPWI6eiip9a77q79ta77$",
"rZdaavnSvSn^SSv9LYQQQ!QWYIQ`]``~``~`YUIUUWUUUQYW!!!`~`'~~!YWWW`~!QWYYYYWWYWQQ!Q!~QYQQWQQYYUYQY!ILP6ILLIUYUII!YL21iq7q97q7q97t77$",
"ezsbtaSSvvS^S^v9LYQ!QYYWUY`']~!!```~QYUUUYWYYQQQ!~``~~~```WYWYY`!WYWYYUWWYWQQQQQ~WWQQWQWUUYYY!~YILLLIIWILIIIUIL43ip7a9q77777t777",
"qzyqacdnctvSDSv9gWQ!!UWYU!]'`~~``!~!~QIUIUWYYYQ!~!!`~~``!!!QYYYWQWYYYWYYYYUWWWQQ!QQ~~QQWYYUIIWILIuPIIPYUIIPULPu5eg07tt7t77777q77",
"qxsdabnnttSnSSS7hW!~~YWYY]``~~````!~Q!WIIUWWQQQQ!!~~``]'``''!WUWWW!QWWUUWQWWYWWYQQ!`!!!QYYYIILIYP6ULIPWWWUIPhPu5eip77t7at77ttt7*",
"rCfaadaattcSSDn9LW!!QYWYQ'```~~'```!!!!WUUW``~!`!!~```']``'~``WYUYYQWYYYUWQUYQWQWQ!!!W!QUUIIIIUILLUUUYW!!WYUUIP23i777cc77t779qq7",
"9zscpfaf77vnSnnqLW!QWWYW~~`''~~````~`!~!UIU!`~!Q``!````''']''``WYLIWWYUUUYWYUYWQ!QQ!!QQWUUUULLUI5IUUU!!~~YWWIUULei7=7fafaaatpap7",
"9jfapasf7tSSSnStLWQWYYYW`~`'~`````````~~YII!~~~Q~~Q'`~`''`]```!`YILUYWYYYYYYYYWQWWYQQQQWWYILLIIILLUYU!~!`QYWUIYPei9=0a77ca9tttt7",
"1xNcbbvnnvDnD^ntuWQYYYWQ````~'````!`'``!QYUQ!!!Q~~!`````'']```!!!ULUUIWUYUYYYYYQWWWQ~~!QWQULUYII6LWYW!!`Q!WYYYULij977q7paa77taq7",
"1zaqdccSDFFnSSv76YUYIYW~'~~!~~`!`'~``]`!`YYY!`!~!```~~`~~~`!``!QQ!ULIUUWYYYYUYWWWWWQ~!!WQYLLIUILuUUQ~Q!Q`~WWYYYh3g=7pq77t77q9pt7",
"e07pfnnSSDDSSnn7>IIIIU~_`Q~`~!`~``~`!`~!'WWY!'``!`'`~`````!!~`~QQ!WUULLLUYYYWYQ~~!!`'~QQ!YILUUIL6IIYWWWWQ~QWUYUhejsdqppq9999pt9$",
"1gpsaavBD^JFDDv7;IYIIQ~`!Q~WQ~``!~!`~'``~QWWQW````'`````!~WWQQ!!QQ!WWI6LLIWQWY~'`~'!```QYWIuIIIuLIIUIWQ!WQYYUUP6egappafpa97pp77*",
"1r9qafdvnDnnSSc7;LUIUW~~W!QQQ!!!~~!``````!QWQY!Q~````'`!!`QWQQ~QQQQWQ!I66uYQQQ'~`]'`'!!!WYUIIL56LLUUUUW~!WYQYUU6wgBbdpapp77ta77*",
"1e9pcfccBvnnvct74uIIUWQ!WQYYQQ!!!'!~``'~!!'WWWW``~``'``!`QQWWW!!QQWWQQWLuuLUWW!QQW`'`Q!QWYYUILILILUUUYUUIIWWYUUPijffa7pat77paq7$",
"1i0pcccBnvvncp7746IIIUYQQYYWQQQ!~`!Q~Q!~~`'~YWW'`````''!`~QWYWWQQQQWQQQWILL6UW!QYY`~`!WQYYUIIYLUUIWYYYYIUIIIYWUIqimddpattq7qtat*",
"1g=pcbnBSBcappq*46LIIIIWQWYYWQQWW~!Q!!!!Q`'!QQW!'```''``~!~QQ!!QQWQQYQ~WYULLI!!QWQYQQQYYYYILPUUUUU!WQYUUULLUUUYh1jdcaaaaptqpccp*",
",iibDDbGVccqpda$;uLILILIYYWWWYWYWQQWQ!!QQ~`]`WYW`'''`~``~!~!``!!!Q!WQQQ~~!YWYW!W!!WWWUYYYILLWYWQYWQ~~WYUYIPUIPUh1lpfaa7aq77tacq*",
"eNNbJbBSnbcqda7$26uLLILYUIQQWWQUU!Q!!!Q~~!`''QWW'''`'```~`~!!``!QWW`!W!~YQQIIIQQ~QQQQYYYYIUYYWW!Q!Q!Q!WYWIPIILh58mfdaat7777qaa77",
"zABdBDcbcvpqppp*-uILLL5IIU!QYIYIUQ~~Q~~!QQ```WWW''~~```'~~Q!!~QQWY!!`!Q!WWQYIIYYWQQ!WYWWWYYQQ!!~!~`~~~Q!QYUIUL54eidcccq7taqqca97",
"lABcabfbccq9pap*2IILPhhLIIWQYWWUIWQQW`!!QQ~``QWW`````````!!!!!Q!QWQ~!!!QYWWQIIUYUWWWYYWQWYQQ!!!~!```````!YWUYL62rMdcacq7q798yNp=",
"jmbfsfabcbnqppp=5LUIP665hhYWWQYPIUYYYYYWYW~'`!WY~~`~~~`~~Q~~~!~`~!!`~``~YWYYWUUYUYYYWYWWWWQ!!~!!!!``'`'_!W!Q!~U4wMycat7*89977977",
"pCfbcfccsbfitfp=>hLPP552PhLhPYYPUUWUWUYYW!!~`~YYQ~'~!!~~!!~!!!Q!~!~~``~`QWIWUUYUIWWWWQWWYQQ!~~Q`!~````'`!Q~!!QWueyqydty9q89tqqa7",
"iCbbbSbVbcqpnfp$:6LLIP555P66LPIPWUUUY!WYWW!~~~YYY!'`!~~~!!W!!QQ!~~~`~`~QWWYUIWUUIYWWWWWYW!Q!!~`~````~~~Q!!QQ!QU5ejcvaat99pq779q7",
"pNNadcaBBfpmFVd*-2hLIL554666PPIPUWUUW!!WUWW~!!YUUW!~!Q~QQQYWQQWW!!!QQ!~QYWWYYYYIYYWWWYYYW!!!!~!`~`~~~~!!~QYQQWYP8zcvva9977tfqqq7",
"izBnNDfVVcffcbd$-26PPP44255566hhUUYUUWYWUUYWYYYUUUQ!WQWQWWYYQYYYW!!WQW!QUUWWIYULIWYYYYUYYQQ!!!~!!!!Q!!Q!!QWWQWUueMccat99tp777q7*",
"1ZNfNVfVcVZfddp$>56LPhh2>2>445h5LLPLUUYUUPLUYYUULhYUUUYWYYYYYUUUYYUUYYWYWUUYIYUL6IUYUUIYWQWQQ!QQQWWQWWWWWYUYYYI6ejadcd977p7t77q*",
"&sapsfdfcbddap7O.>2>442::::::2:2>224PPP664uULPLL66hhIPIIIUIIPPIPLLLIIIIIUILL6LL455PLLLIPUIIYYYUIUUUUIIUUUIL6IL64ekmvcat7777qapq$",
"&wCbJpsBmbpqqq=O45303g013333e3,133ewrjj<*3wrirjsiiiiie0ipisjjlliwrsjxjszhglsgjggijxzzdkjsxxxCCCCIMZzyzMyMTzzzMzyqxNBnnpy7pdvvcd*",
"=jspmpppfmt07a0O1eiiggggie0iieeijelzxzr*1gzCZZGGCACxjjzxCARERGA7qMTZTCCKRCAClCATZZzZTGCysAGGEEGAUBATTTTTTTTT(TAqsfVBacfpptavbqt*",
"=sdspq0pppda0q=O1i0700ispsdq0707rsadcpq$1jZnNnBDJDmdidbBJDJDKKf=rZKGBBv^KdptsfmmzHDBzKJplAbSKKKKVVDSDH^HHNZH(_FtsCHcpcsat7pfdbp$",
"1idp=q71qttft7$O3li0qqqpqqqqt0779tqpqtt*8xccvNBDVBfppfbNBJJJKKDpyGHHBBDSKZdysfddscBSDHHqxAZKKKKJDSFFH^^^HDvH^^DtsZKvdnBfcdaaaat*",
"10ii7===77q*=7*O30pq0q070p00t7=qtttqtty&%zmfcnnSDattaBccBSDFDDBqqA^SSSSSDapacpcqanSSbVcpzAVKJDSbcSDDDDSHHDvNvBvyrGZcfbacccNdsa7*",
"*ipp==*p0qqq0$$$<i===77q7=7qqq77t7qttdt7qzfdccnnnf77ancbDFDSBJD00THcnSSDDcdcdaacfccvBBapzKBNBBDnNSSBDDSSvcdcBDvtsZBfBJbbsyppasq$",
"&3p====0q7qq00=$,0****$77=$707=*t7qtcqt*yvcavcatac77cdtabSBSSSBq0dctcdvSScynvdpqnvbcafp=sVBBbcfdcccvcttcBcyttvvtqCcvdcbNfdpq9dt=",
"*is70pdp0ptqqq*$O$*$O$$O=$$$*$$@$77*7*7$$777*77*77=777777tqt79qq07*779q7ttqq9778777qq7=p0qaattqqqq9q99qq999%799qyxDdfpsfcbfqa7q$",
"*ip0777p7p=fi7=#@3:,1,,@@@@,$,,3&ree<3e%1ee*<<&<113eggiegge1=3i=rrrgrgee3i30gigggljjliw*=0000300iiiii83313=1wiiwyASddmNvmmttqt77",
"*ip=7=077pp7==*#X310elie3eggillryylMsls1,iizjlxxsiiglCxlxxCzsli&jMxzxxxxzCNzzzxZlxpxlil==jCxxjxxNCZCxxjjxxzjxxN7qlBkaayatcttyy77",
"&i=7====0fp0&*7#Xe=$<==77isst70qayccppq=&zfaapdi7=*pjsaaassbbdq*rCCddcdssmffmmbmfafzasi=0xfmcdCqbbbbfNNNbfdppaa8qZmccaddctdttt7*",
"*wp====p=i087*&O@e=*=1$7dtt0aqpqaypdpfp%2iid0pip*==qpipppafbbfq*rMfydcffffbffsfcsfffpqi&illmcffdcbbffccffdfdpda1qkkctyatcdttt77&",
"&j8i=770pppiq7&#@e<=77780qd0777pyyapqy9=1iip7f77==&7=p=pafadcfd=ixNaafssfsfmffcfbxfpii9$elsffbfpfVbcfdbfapppqpq*8yNm978tctqtt77$",
"*jfqp7=jidpp7p#O<3*$*$=770q0=70qttatqp9=&3==7777==*q=pqpppsfcbf9rzNppqpappdfmbfNppfipi0&ejffffaqfcpaffffppppqp9*wlmdqe097qq9t7$7",
"wldp0*pd7fqp77$O11****q7dppfp00qcdattqq7@3=*=7p7===7p07ppppfffat8xjpssqspqfNBfBfsp=ppqa*ejpffbbppdppcfbfappfds7*8lffd9ydtq99q77*",
"0z00=080pppppp#O,0=70878qtfdq7qqtqdaatp=@3p777777p7paap0asffdbf==lq0sdppppfcbNfpp0qpitt*0iabfbf00ppfdfdfbfafdaq=<smc09tyqt77977$",
"iii7==7p07ap=7*O1e==70qppdfaqtt9affBcdq=*spp=7q77p7pppp7pafdaca7&j187pppppdcNfafqsp8q=0*3ldffbfppppfcbccBffcfq7=1sfds*7avct8907*",
"isp7f0=77mpp0=#@11070tafbfbpqqataaBDcat9iZpafpp7ppppffp7qpsppqp*1g19i7ia7pdscfafpfp7p0q$3lpcbbbasppcbBBcdcfapq7&*jpvyqmkccd8ty8*",
"wsspspp0ppippp&@1r777qaatfbftpptpdVBfft01zp0faq==07ppaa1q9dsqq7*we87=ppp0sddcfdfqfi8fca$1jpfbbbaapincccdcBfqipq=7jfpp8paVvdkqtt7",
"iwsippp7ppapif=#,e0770ppdqbdqqadpabNfpp03zdpfffpp77pfbbpppqqpqt&11=7=17p=psfcNmbsbsapsp$*xafbbbdpd7bBDDncnbjafa*8radyqfdyccdddt7",
"1wpppipadpd=ppp%2i70qapapttppqfqdfafNfsq=Ntpaaaq7qppfffqpidtdsy$*e17ppp0pbaabfVNfBbafap=<japfffdpppVBBBBfpafdfp$&rqpy9attty9vcd7",
"pipmp0pfNp0fpf0&1iq0qp0papd09aftabfcNfftixffaaaq7=7pffaappqpspp7&i8pfa7p=fp0apsnbsbfcpq*$xfpfbbdppqcnbbbnaddcmc*&sqy87q9sdqyyzBq",
"1sffp*7ip=fsdp&$07==7777qtq7=qatqpffcap=1xffqpqq=77pfa77q7tasqw21&*1=q7p=p==pp=aftq=8$$*,j70pffap0ppaaqp9fcvcdq*8rq8***y8qdkycd7",
"1jaap=*=fBVmpp7$7@$@$@$@$$77*qq=99q80==8&0=====$&==77=*&==77*&&-%@@%@$*&*$@&***7q8=&@@=@@*$$7=7=$$&====$1899888**r988*887yyycqy*",
"0zspp0sfBNpfqdp$  ..+;-->5u4466666LL6L6664>>466L6L4466>44>44244>2>>>4454>->>444LuLu5>4442>254666446664>2>6655:-.3e0==7=0p0iapdq=",
"=zfippssrqpqiqq$ ->:;>26PUUUUUUUUIUYYYYYULLLIYYYYYUUUUL6U6LILLL6uL66L6LL424L6IUUWQYIu5LuILLLLUUIIUIIIWLh6PUI642+33p7==0ppippaq7*",
"1zddp1=78ssp997$.:222uLPUWQWWWWWYUYWQQQQWIIUWQQQQQWIWUIUUIIUULUUIIIILIYL4666LQYQ!!QUIUUUILIIIYWWUUWUYQWIhPUIh62-wi0=1=8sBpiqpa7*",
"1jf=7p=pczdq7q7*+:446uLIWQWWWQWW!YWQQ!!!QYUY!!!QQ!YIYUUYYUUWWYUIUYWIIUQuL4LLIIWW!~QUIIUYUIULUWQWYYWWQQQYUIILLh4:iw===8=pappsac7@",
"wzipp=7=sBmpyq=*+266hLUPUQQWWQQWYY~~!~!~QYYW~~~!Q!UIYYUYW!YYYWWUUYYLLYILLLLLUUIUW!YWUIYUUUIIY!QWUUWQQ!!WUILIIL5:0ii7=0ppfptypff7",
"iippppffvcdpq7*$.>44hPU!!YWWWQ!!QQ~!~~~QWYWY!!~!QYYIYYY~Q!WYWQQUYUWUIIuL5L6LLYUWYQW!WUIIUUUUY!QWUY!!Q!!!UUIIPh620i0w777pqdaqppf=",
"8zp=p7piqpp997*@.26hhUYUWWWQWQ!!!!`'````WYWQ!QYY!YYQYQ!`!!QYQWQYYWYIUL666L66LUYWW!!!QYIYUWQYQW!QYQ!QQ~!~!UIUIhh40ep=pq77dfns9qa7",
"1i0pp7pfmfqp77$#:4466LYYUYWWW!!!~~~~~~``WQWYQ~WQYW!WYQ!~~WUUWWWYYYYII5u5I666LIYYYQ~~`YIUYWWQ!!!!Q~!!Q!!!!QUUIhh4iiq8qppfffzdqpy*",
"0lq777ppdsq099=*-456uLIUYWWQQ!~!~~`~~~``!QWWW!~Q!!!YY!!Q!UUIYIYUUYIII6L6L666ILUWWW``~WYYIWYYQQ!QW!QW!!Q!!!QYPhh4sxaqpvfzcSByqpy*",
"ixp0dpa778q0q87=>556656LIQW!QQ~~~`~~~'''~QQYUQ~`~!~QQ~Q!WYUUIUYYUUUIILu66666LLYWYW~`~WWYYYYYQ!QQWWQW!~!Q!!!!YPh4gld79ydpfcpqpfa*",
"8ip07797107qqp9*2LLL554uIWWQ!!!~~~~~~`''`!YYUW!!~~!WW!~Q!YUIUUUYWUYIWLu45666LLIYUW~Q!WYQ!WYW!!QWWWQ!!!!!!!Q!YIP4rss7qdfcmfNddda*",
"3fbi00i07qppqsp*46Lu446LPWQQ!~!~`~`!~````!WYU!~`'`~!QW~Q!YIUYILLUIUIIuL65566LIUYWW!!!QWQWWUYW~~!QWQ!!~WQ!!!!WPI5rzdydfddfvdqacq*",
"wzpqq7qdppffpdq*5LUu65LLLWQ!!~~````~~`'~'QQQW~!!~`~~!!!!UYUYWUYII!WYQu6464L6uuIQWYWQ!Q!QWYUUW~!~QWQ!~WW!!Q!WQIP68McyppcbBBp9cvq&",
"*0ip0777sfacpNp=2LuL65LPPPQ~!```'`~~``~~!!QQW!!~`''`~`~~WWUYUUIIUIUYY6L666ILUIWQW!W!Q!!YQYUQW!!Q!QQ!!WWW!!QWYYI6rkcpsaBVBfsaDvy&",
"3AmfdpjBfpCfs0q$>ILLL6LIUPU!~~!`~`~~`'~~!!WWWQ!~~']'``'~Q!WUQUWUUYUYY6IIL6uIYYWYYUQ!QQQWQQW!QQQ!WWQ~~Q!!!!QQQYI4rZctacdZHSdpcBt&",
"*lsa8pp0mfdbfp9*>6LuL4uLULU!``~!~~~````!!!WWYY```']'```~!~~YQYYQQUIUI6LIIILUIYQIYYYYYY!Q!~~!Q~`~!!!``QW!!!QQQUI2rmd7pncBBBcBSct&",
"wzsqqpcayfdda9t$;66ILLLLI6U`~``!~!~~~`~!Q!UYYW~'`]'''```'``QQQW!~QYY6L6LIIUUIIWWQYYYYY~~``''``~!QUWQWWQWQQWWWI6>8MfqaccnHndtvva#",
"wzmppdfvpzdmct7$2uL66LLIU6LW!~`!~~~~''~QWYIYY!``~'''`]`'''`~~~~`!QII646UUUUUIUUUWYWWYW`~`'`''~QQQWUWWWQW~WQWUu44rCaytcnDDBfpcny*",
"izZcdadpdddBva7*>6I64LILILIIYQ!~!!!Q~`!QYYIYYQ~~`']'`''']``~!~'~~WIII4IIILWUUUIUWYYYY!Q`''']~!!QYWWUUWQ!`!QWYu6>qMvdpcnSKDncBFa*",
"rsmcffdyccdNBcq7;6L666LIILLIUY!!Q!!!~`!WWUUUUY~!~~''''''']``Q~`!~WY664LIIIWUIIUUUYYYWW!!``!'~!W!QWWYUUYQ~!WWULL>eMfyyNBFFDSF^vq7",
"isNfvdqydacmcpq&ouLL66IILLLLQ!~QQ!Q!~!!YWYUUUYQQ```'~~`'`'!`!Q~~~!Uu66466IYYILIIUYWYWU!!Q!WQWWYQ!!!YYYWWQ!WUPP4>ezqydBBBH^FFnDc&",
"rzdppt77ddvcppq*o>L666UL66LLWQ!WQQYQ!!QWYUIYUYWQ```~~~~`~~!QWYQ~!YuL44646LUULILIUWWYYYQWQQQWQQWWWQWUYYYQ~QWULL42rxrqffHDHBDBFFv7",
"rsfy99**yaddcdq$o>4245LL6LLLUYQWWYWQWWYYIILIIIYW!!Q~~Q!!Q!QWYYQQWILL44666IUWUULLIWYIUUQQ!!WWWQYUIWWUUUYYUWILu4448xfffpBBSGKHnSv7",
"ezdpq777tsffava*.46>44665566LLLILLULLII6L6666LUIYUYYWYYYYUUULLLIUL64;>4>>64I66L6u6LIUIYYYYUYIYLILPPuLLIIII66425><MpdsqvDDDDSKvvq",
"8jkyt98779s99q7*o5656uL6LIYWWWWYUYWYYWQYYUYYYYYIUWWWYYYYWYYUUYUUUULL6664IIIIILL6II6YIIWYWWWWYWUWYULuLLPLLLLLu52>1rqdt7aSBSBdvBp9",
"8sdtqt9779afcq=# -;>44556LUIIIIIIUYUIIIIIUIIUIYUYUUYUUIIUIUIL46IL64>;>>>66LL6664566IILLIUUIIUILII6546LL654464;>-8sayy7yvBBcdfvp7",
"emmyddfqpypds9=$ --->455LILIIIIIIIIIILLLILIUUUUUUIUULIUIIIIL666I64>>>->46LLU6466665LLLLILUIUILIIIL55L6L464444-;o3jmva9dvBBppcvd7",
"rCdyyyccpy7q99=@ oo;2>>>66LIIIIIUUUL6LLLLLIIUUILUUIUIUUIILI66L6L644>>4466LLII44666666uI6uLLLIIIUULu566656566>;-.estctyaSHBacvcc8",
"mCddacdyytq77q7@ o->4>4466LIIIUIUUL6666L6LIIIIILLIUIIIIILLI4LLLIL444446I6LIIL6LILL6666LLu6LLIIIIIIL656646444>--.rskataaSSvacBSc9",
"xZDncvcv99q7ty8% .;;4>>466LLLIUILL666666LILL6IIIIIIIIIIIILLL6LIL66L666646LLL666LLI56566u66uLLLLUIILuLI6Lu544:--.ejyypcccnvtcnFc9",
"zNtcvdad7&=7773& .->224445LL6IIIILLLL664LL6L6LL6IUULIIIIILILL6UUL6LL6LL4LILLL466IL55446u6666u6uIUIUIIL64252>:;;;jt7ttacnccyvvcp9",
"877&77&&$$$$$#.-.;>4466Lu6L66LUYYUYUILLUIUUIIUILIIIUUUUUIIUILLYYILLILIULLLILLLLLLL6LL6LIUILLLULUUYUULILu6L54>;>>ra77ttaatt779t99"
};
